<?xml version="1.0" encoding="utf-8" ?><svg xmlns="http://www.w3.org/2000/svg" xmlns:xlink="http://www.w3.org/1999/xlink" width="1024" height="1024" viewBox="0 0 1024 1024"><path fill="currentColor" d="M226.886 331.413L764.627 257.397C746.277 281.616 724.711 304.474 706.05 328.58C702.123 333.653 698.122 338.429 693.805 343.174C673 347.552 651.456 348.95 630.861 352.944C636.672 374.442 642.866 398.878 649.343 420.046C648.112 424.064 645.313 434.357 643.114 437.448C636.247 447.105 625.893 455.413 617.572 464.008C607.557 474.352 602.431 475.605 598.177 490.209C576.237 492.83 550.324 496.675 528.517 500.369C536.742 527.907 543.542 558.162 552.624 585.09L606.508 576.997C617.566 575.354 631.089 573.067 642.171 572.201C638.645 558.517 635.379 546.991 630.933 533.507C657.183 524.339 655.671 522.98 671.817 499.205C675.493 510.892 678.358 523.501 681.596 535.393C684.34 545.471 687.672 555.321 690.473 565.277C702.109 562.821 714.578 561.8 726.341 559.796C744.081 556.774 762.771 555.197 780.34 551.403C777.095 541.959 774.243 530.572 771.516 520.801L756.773 467.637C735.871 470.74 709.694 473.681 689.19 477.668C705.601 465.767 726.68 456.747 742.816 444.694C752.344 437.577 766.199 420.864 774.622 411.317C788.923 395.377 803.032 379.266 816.946 362.987C826.136 394.741 836.133 425.14 846.095 456.662L880.64 567.986L892.476 605.698C894.496 611.932 897.538 620.191 899.165 626.327C894.086 637.458 887.106 649.687 881.397 660.692L853.013 716.028C847.977 725.689 843.009 735.385 838.11 745.116C835.576 750.173 831.18 759.557 828.247 763.904C822.235 765.424 814.001 766.524 807.714 767.564L782.738 771.919L707.959 784.656L455.493 827.294C446.52 820.319 436.259 810.909 427.63 803.327C415.368 792.538 403.019 781.849 390.584 771.261L350.676 736.933C345.91 732.829 335.932 724.808 331.86 720.741C329.101 711.866 326.733 702.144 324.251 693.124C318.825 673.553 313.507 653.951 308.297 634.321L296.378 590.306C294.505 583.388 291.85 574.504 290.312 567.599C285.448 549.227 280.471 530.884 275.384 512.572L244.974 398.969C238.687 376.52 232.658 354 226.886 331.413ZM414.699 605.263C420.4 604.194 426.409 603.364 432.176 602.628C456.284 599.551 480.281 595.49 504.348 592.213C501.267 583.011 481.337 508.796 479.523 507.217L479.271 507.266C453.86 509.937 427.998 515.342 402.522 518.215C398.694 518.647 393.872 519.259 390.116 520.022C395.483 540.121 401.008 560.178 406.692 580.19C407.863 584.346 412.513 602.245 413.852 605.197L414.699 605.263ZM426.119 648.111C429.657 662.987 435.023 679.741 439.033 694.714C441.732 704.788 446.463 724.257 450.136 733.476C450.924 733.778 450.58 733.797 451.155 733.647C462.378 731.278 473.907 730.435 485.16 728.486C503.11 725.377 521.948 723.637 539.768 720.187C534.332 699.75 522.743 658.161 516.338 635.525C516.061 635.341 515.783 635.156 515.505 634.972L514.191 635.18C487.805 639.938 452.625 645.135 426.119 648.111ZM563.87 628.151C564.855 632.013 566.278 636.27 567.547 640.081C575.494 663.932 580.706 689.54 588.78 713.264C618.379 708.236 649.592 705.276 678.636 699.628C676.644 695.302 672.066 677.363 670.447 671.494C665.313 652.727 660.036 634 654.616 615.314C644.352 616.137 631.087 618.603 620.67 620.114C605.327 622.338 589.303 624.142 574.074 626.647L569.091 627.232C567.4 627.483 565.568 627.849 563.87 628.151ZM581.183 359.676C564.162 362.532 546.604 364.903 529.489 367.318C518.676 368.844 502.782 371.613 492.031 372.114C493.926 379.314 515.995 456.102 516.678 456.728C535.783 454.112 554.866 451.343 573.926 448.421C583.71 446.948 596.201 445.386 605.708 443.329C597.108 416.122 590.825 385.817 582.115 359.942C581.804 359.853 581.494 359.765 581.183 359.676ZM816.988 679.182C814.5 671.318 794.004 596.489 792.291 594.928L790.604 595.196C762.661 599.601 730.388 603.379 703.044 608.82C705.644 618.193 725.85 691.442 727.522 692.813L729.407 692.729C757.756 687.762 789.165 684.713 816.988 679.182ZM442.207 379.708L383.808 387.916C376.513 388.933 360.604 390.607 354.149 392.272C356.354 400.597 376.056 474.612 378.008 476.528L379.617 476.491L436.288 468.578C444.967 467.376 459.628 465.757 467.851 463.859L449.575 400.893C448.256 396.385 446.922 391.873 445.659 387.349C444.837 384.406 444.98 382.614 443.694 379.799C442.766 379.586 443.022 379.499 442.207 379.708Z"/><path fill="currentColor" d="M679.616 544.255C682.634 545.571 681.676 550.02 681.425 552.744L680.782 552.77L680.054 552.01C679.324 549.186 679.543 547.158 679.616 544.255Z"/><path fill="currentColor" d="M470.538 455.246L471.348 456.071C471.8 458.709 471.932 461.604 470.861 464.102C468.809 460.819 469.421 458.743 470.538 455.246Z"/><path fill="currentColor" d="M839.874 727.178L841.239 728.225C842.025 730.237 841.609 731.853 841.376 734.048C838.788 731.812 839.292 730.22 839.874 727.178Z"/><path fill="currentColor" d="M872.926 663.239L873.724 664.188C874.209 666.305 873.635 667.902 873.171 670.062L872.349 669.291C871.5 666.922 871.996 665.492 872.926 663.239Z"/><path fill="currentColor" d="M856.632 695.312L857.617 696.239C858.086 698.285 857.537 699.718 857.062 701.787L856.351 701.767C855.437 699.903 856.091 697.237 856.632 695.312Z"/><path fill="currentColor" d="M216.295 338.473C220.534 352.023 224.224 366.687 227.838 380.422L231.733 395.614L251.639 469.543C255.741 484.768 259.755 500.787 264.125 515.875C265.33 520.326 266.521 525.044 267.823 529.445L268.12 530.9C271.888 544.74 275.623 559.167 279.647 572.913C286.204 600.26 294.929 630.603 302.245 658.02L312.521 695.466C313.994 700.975 319.552 724.973 322.499 727.716C333.19 737.668 345.255 747.554 356.398 757.113L399.967 794.947L429.064 820.094C435.646 825.773 445.851 835.233 453.209 839.103C474.255 836.533 501.074 831.262 522.581 827.657L659.577 804.512L772.156 785.306C791.552 782.046 816.158 778.921 834.878 774.578C839.54 768.913 850.49 746.297 854.553 738.576C869.473 710.223 883.52 681.129 898.422 652.773C898.587 671.515 897.171 690.494 895.921 709.244C895.522 715.229 895.58 741.322 893.092 744.804C886.245 754.388 873.87 765.81 865.328 774.373L825.459 814.727L789.143 851.929C783.645 857.531 775.004 866.885 769.245 871.551C763.322 876.351 741.767 879.681 733.656 881.237L691.438 889.121L577.255 911.082L371.061 950.881C365.277 951.985 315.569 962.196 313.064 961.531C298.851 957.755 261.22 933.51 246.657 925.187C241.915 922.477 236.265 919.572 231.435 916.948C229.033 915.644 220.999 910.815 220.103 908.642C216.975 901.054 214.974 891.533 212.9 883.557L199.325 831.131L180.252 758.873C174.914 739.067 168.873 720.463 167.198 699.953C166.233 688.138 164.646 675.98 163.386 664.16L154.955 587.913C153.293 572.246 151.809 555.272 149.3 539.761C147.002 525.552 142.237 509.733 138.413 495.773L125.355 447.737C135.021 436.71 143.793 425.289 153.162 414.027L216.295 338.473Z"/><path fill="currentColor" d="M659.039 120.622C669.335 119.435 683.286 117.362 693.172 116.851C700.735 122.444 714.133 134.419 721.283 140.287C725.928 144.099 754.573 167.056 756.156 170.349C761.223 180.895 767.956 207.978 770.937 220.344C758.247 221.518 744.74 223.716 732.069 225.538L678.932 232.963L495.025 258.128L304.454 284.207L252.533 291.03C241.64 292.418 229.084 293.77 218.396 295.728C217.482 292.358 216.129 287.907 215.438 284.574C212.505 274.076 209.739 263.532 207.14 252.946C205.256 245.536 203.234 238.163 201.077 230.828C205.739 222.2 210.288 213.951 214.759 205.205C220.726 193.531 227.516 180.02 235.081 169.28C254.863 166.842 274.659 164.508 294.467 162.279C299.814 179.608 305.36 199.883 310.049 217.468C316.213 237.068 312.452 236.728 331.356 247.943C343.427 247.971 360.957 244.491 373.156 242.614C375.709 242.094 380.17 240.887 381.201 238.167C385.279 227.409 395.819 206.86 393.243 195.762C389.601 183.097 385.139 164.417 380.596 152.67C387.697 151.077 399.971 150.12 407.496 149.329C423.354 147.703 439.203 145.99 455.043 144.188L536.891 134.468C547.608 133.223 562.837 130.914 573.282 130.26C577.989 144.848 589.074 193.896 596.224 203.735C599.211 207.845 603.982 210.816 608.414 213.142C609.155 213.531 609.894 213.871 610.66 214.209C619.678 213.415 652.931 210.234 659.794 207.391C664.737 198.751 670.643 178.443 673.491 168.433C668.083 154.226 663.335 135.645 659.039 120.622Z"/><path fill="currentColor" d="M858.642 164.088C863.942 163.772 885.803 162.413 889.171 164.478C897.875 169.813 913.179 181.767 920.261 188.986C922.889 199.721 926.388 210.184 929.127 220.909C885.646 267.163 841.713 318.268 799.538 366.112C787.664 379.611 775.699 393.029 763.643 406.366C748.397 423.484 741.905 433.811 721.559 444.716C710.808 450.478 691.182 461.11 682.541 468.383C673.487 476.003 661.794 495.12 653.341 505.055L650.758 509.312C644.603 516.668 638.891 518.791 630.085 522.004C619.768 525.768 609.434 529.422 599.012 532.893C603.746 517.813 606.759 499.879 613.422 485.865C615.227 482.068 620.626 477.46 623.463 474.347C631.541 465.482 649.702 450.983 654.784 440.521C660.595 426.734 664.97 411.554 669.587 397.266C674.98 380.573 680.282 376.623 691.729 363.525C701.078 352.838 710.295 342.036 719.377 331.122C751.857 290.765 784.859 250.831 818.375 211.329L843.285 181.453C847.051 176.943 854.531 167.567 858.642 164.088Z"/><path fill="currentColor" d="M650.758 509.312C648.729 508.434 648.005 508.137 647.794 505.725C648.744 504.007 648.069 504.614 649.911 503.866C651.821 504.057 651.722 504.024 653.341 505.055L650.758 509.312Z"/><path fill="currentColor" d="M136.478 238.502C153.805 237.05 173.199 236.835 190.76 235.818C193.856 248.887 196.922 262.075 200.733 274.965C201.465 278.659 202.457 282.014 203.485 285.637L207.786 300.814C197.119 313.032 185.566 324.678 174.508 336.515L115.039 400.815C112.541 393.167 110.287 380.704 108.503 372.502L97.17 321.191C106.157 299.796 117.407 279.08 127.19 258.024C130.223 251.497 133.295 244.954 136.478 238.502Z"/><path fill="currentColor" d="M759.887 233.699C761.636 233.52 761.721 233.188 762.865 233.936C762.666 237.617 757.059 244.072 754.587 246.945C751.517 247.677 745.029 248.362 741.666 248.836L715.529 252.578L625.041 265.135L336.229 304.521L261.02 314.905C250.685 316.271 224.073 319.184 215.462 321.84C210.956 326.036 197.768 343.053 192.978 348.769L138.689 413.77C135.561 412.93 132.274 412.167 129.118 411.387L122.916 410.084C126.738 404.801 136.853 394.413 141.88 388.937C155.826 373.681 169.9 358.541 184.099 343.518L204.927 320.891C207.708 317.845 214.608 309.856 217.623 307.735L605.842 254.754C657.135 247.342 708.485 240.323 759.887 233.699Z"/><path fill="currentColor" d="M302.594 102.251C310.868 100.072 325.532 97.9207 334.321 96.3536C341.668 99.6463 348.844 103.306 355.823 107.32C357.528 112.123 359.371 119.503 360.84 124.618C364.134 135.868 367.304 147.154 370.349 158.474C373.894 171.82 378.028 188.193 382.92 200.877C378.871 210.053 375.869 222.117 371.719 231.43C359.219 233.319 346.912 234.432 334.335 236.615C335.939 232.274 343.287 211.086 342.643 207.734C337.467 180.78 327.314 154.225 320.405 127.571C319.026 122.251 317.331 116.507 315.566 111.307C311.596 108.304 306.735 105.115 302.594 102.251Z"/><path fill="currentColor" d="M608.34 68.6458C614.871 67.5826 629.192 76.2033 634.919 79.8747C640.902 92.0967 644.71 113.19 648.81 126.527C653.073 140.392 657.847 156.573 659.919 170.735C660.489 174.63 653.249 193.424 651.292 197.891C642.643 198.877 634.006 199.964 625.382 201.152C621.441 201.773 616.917 202.229 612.916 202.728C616.724 192.492 622.6 180.695 619.288 168.836C611.815 142.072 603.963 111.14 594.523 84.8875C593.47 81.9587 583.059 75.8784 579.955 73.9646C589.23 71.8221 598.959 70.2007 608.34 68.6458Z"/><path fill="currentColor" d="M598.508 80.3022L599.291 81.1193C599.831 83.8668 599.469 86.0765 599.238 88.8692L598.236 87.9209C597.502 85.014 597.697 83.1983 598.508 80.3022Z"/><path fill="currentColor" d="M286.185 106.165C291.156 109.149 300.899 114.287 304.222 118.832C308.441 124.603 328.415 196.992 331.338 208.395C329.684 213.785 327.301 220.743 325.897 226.059C324.588 224.401 324.385 223.511 323.611 221.499C318.63 206.026 309.137 159.951 300.96 150.478C286.2 150.255 271.787 153.861 257.454 154.674C257.453 151.519 257.371 147.918 257.506 144.806C265.427 132.819 277.462 118.279 286.185 106.165Z"/><path fill="currentColor" d="M564.927 78.1509C571.033 81.8671 580.212 87.5802 585.162 92.4358C588.635 105.587 592.395 117.361 596.247 130.319L609.836 176.963C608.093 182.268 606.275 187.548 604.384 192.802C600.919 184.161 598.457 174.655 595.933 165.674L589.652 143.76C588.298 139.421 582.948 120.389 580.488 119.456C570.391 115.628 549.364 124.015 538.365 122.41C537.002 122.211 536.355 121.02 535.797 120.104C535.512 117.512 536.294 115.689 537.714 113.516C545.796 101.152 556.231 90.0248 564.927 78.1509Z"/><path fill="currentColor" d="M212.292 183.969C212.471 186.382 194.042 219.653 191.364 224.637C179.13 224.62 166.205 225.742 153.84 226.069L153.823 225.672C154.533 224.568 206.952 187.698 212.292 183.969Z"/></svg>