<svg xmlns="http://www.w3.org/2000/svg" width="512" height="512"><path fill="#623aaf" d="M199 130h8l62 10 40 7 8 5 7 6 9 12 2 7 1 23 3 20 5 15 10 18 15 22-1 8-14 23-14 21-6 14-4 15-3 14-6 9-6 4-3 1h-14l-35-10-15-3-36-3-9-3-36-36-7-8-12-12-3-5-1-4-2-26v-8l7-34 2-19 2-32 4-11 10-13 11-12 11-11 6-3Zm87 92-6 3v2l-2 2-1 2v7l1 3h2l2 4 4 1h7v-2l5-1 3-4 1-4v-7l-7-2v-3l-6-1Zm16 13"/><path fill="#a885e7" d="M199 130h8l62 10 40 7 8 5 7 6 9 12 2 7 1 23 3 20 5 15 10 18 15 22-1 8-14 23-14 21-3-1-9-17-9-12-1-10 25-3-1-3h-9l-16 1-5-25-2-3h-2l4 25v4l-6 1-14-8-10-4-3-15h-3v13h-4l-1-5-3-2 1-1-2-1v8h-2v-8h-3l2 3v5h-19l-1-2v-9l27-3-2-2h-27l-5-33v-3h31l2 10 3-8h2v-2l3 1 22 1v-2h-22l3-2 2-1h17l4 4 1-1h23l-1-4-23-1-4-21-4-2 3 18v5h-27l-5-23-4-1 4 21v3h-31l-4-24-4-2 3 22v4l-30 1v3l31 1 5 31v5l-8 1h-14l-5-9-7-9-5-6-14-11v-47l-2-19v-8l-7 6 1-4 13-13 6-3Zm87 92-6 3v2l-2 2-1 2v7l1 3h2l2 4 4 1h7v-2l5-1 3-4 1-4v-7l-7-2v-3l-6-1Zm-112-71"/><path fill="#422281" d="m182 144 1 4v8l2 16v35l-2 17v30l7 27 10 35 5 10 4 5 9 6 8 3 4 1h12l23-2 61-4 8-4 4-2-3 9-4 13-4 19-6 9-6 4-3 1h-14l-35-10-15-3-36-3-9-3-36-36-7-8-12-12-3-5-1-4-2-26v-8l7-34 2-19 2-32 4-11 10-13 7-8h3Zm-8 7"/><path fill="#49278c" d="M198 134h15l20 3h4l-2-2 10 1 60 10 10 4 9 8 9 12 2 7v16h-1v-6h-8l-1-1-65-5-53-5-15-1-5-1-1-14v-11l3-8 7-6Z"/><path fill="#2f1567" d="m228 186 4 1 2 6 2 13v6h31l-4-18v-6l5 1 4 18v5h27l-3-15v-8l4 1 2 7 2 11v4h23l1 5h-23l-1 4-1-5-3-1h-17l-2 1 19 1-1 2h-21l-3-2v2h-2l-1 5-1 6-2-3-1-10h-31l3 15 2 14v7l4-1h23l5 2-3 2-18 2h-9l1 11h19l-2-8h3v8h2v-8l4 1-2 1 3 2v5h4l-1-6v-8l4 1 2 4 1 11 5 1 16 8 3 2h6l-4-22v-7l3-1 3 9 3 16v4l16-2h9l1 4-10 2-15 1 3 13 2 11v5l-4 1-2-5-4-23-17 2h-10l3 19 1 3v9l-4 1-2-7-3-18v-5l-26 3h-5v2l2 1v9l2 20-4 2-2-2-2-10-2-6-2 2-5-1 3-1v-3h-4v5h-3l-1-7-1-4h5l2-2-1-2-18 2h-6l-1-5 1-1 14-1-1-20 1-8h-2v-2l4 1v7h5v-3h-4v-6h5v2h-3v2l4 1v3h3l-1-12-11 1h-20l-1-4 1-1 22-2h8l-5-31v-5h-31l-1-4 1-1h30l-3-17Z"/><path fill="#cab3f1" d="M199 130h8l26 4 5 2-1 2-19-2-5-1h-15l-6 4-4 6-1 4v25l32 2 41 4 9 1v1l-10 1-3 16-1 13h-19l-4-24-4-2 3 22v4l-30 1v3l31 1 5 31v5l-8 1h-14l-5-9-7-9-5-6-14-11v-47l-2-19v-8l-7 6 1-4 13-13 6-3Zm-25 21"/><path fill="#6a3bc5" d="m183 217 8 6 9 8 9 11 6 10v2h5v1l-13 1v3h31l1 2v10h-3l-1-3-3-1v-2h3v-2h-5v6h4v3h-5l-1-7-3-1v2h2v28l-14 2v4h14l-2 16-4 16v3l9 3h12l40-3v2l4 1-5 1-31 2-8 1h-12l-10-3-8-5-5-5-4-5-4-8-16-57-1-5v-30Z"/><path fill="#a26cd8" d="M283 214h17l6 5 4 25v3l24-1 1 5-17 2h-6l-1 2-3-1 4 25v4l-6 1-14-8-10-4-3-15h-3v13h-4l-1-5-3-2 1-1-2-1v8h-2v-8h-3l2 3v5h-19l-1-2v-9l27-3-2-2h-27l-5-33v-3h31l2 10 3-8h2v-2l3 1 22 1v-2h-22l3-2Zm3 8-6 3v2l-2 2-1 2v7l1 3h2l2 4 4 1h7v-2l5-1 3-4 1-4v-7l-7-2v-3l-6-1Zm16 13"/><path fill="#5b2fb3" d="M271 142h10l28 5 8 5 7 6 9 12 2 7v16h-1v-6h-8l-1-1-65-5-20-2v-1h18l4-7 8-16 4-8-1-3Z"/><path fill="#ccb7f2" d="M237 217h31l2 10 3-8h2v-2l3 1 21 1v1l-9 2-8-1-2 7-2 3v10h2l2 3 11 2v-2l4-1 4-6h2l1 7 1 4-2 1-25 1-4-3-1 4-19 1-12 1-5-33Z"/><path fill="#2f1765" d="m228 186 4 1 2 6 2 13v6h31l-4-18v-6l5 1 4 18v5h27l-3-15v-8l4 1 2 7 2 11v4h23l1 5h-23l-1 4-1-5-3-1h-17l-2 1 19 1-1 2h-21l-3-2v2h-2l-1 5-1 6-2-3-1-10h-31l3 15v10l-2-3-1 5-2-2-3-20v-5h-31l-1-4 1-1h30l-3-17Z"/><path fill="#4c2698" d="m275 256 4 1 2 4v5h-4l3 22-27 3h-5l-3-18v-4h19l-2-8h3v8h2v-8l4 1-2 1 3 2v5h4l-1-6Z"/><path fill="#b597eb" d="M288 254h19l2 7 3 18v4l-6 1-14-8-10-4-2-11v-6Z"/><path fill="#8054b6" d="m296 189 4 1 2 7 2 11v4h23l1 5h-23l-1 4-1-5-3-1h-17l-2 1 19 1-1 2h-21l-3-2v2h-2l-1 5-1 6-2-3-1-9 2-3 1-8h1v5h27l-3-15Z"/><path fill="#ae72e5" d="m275 217 3 1 21 1v1l-9 2-8-1-2 7-2 3v10h2l2 3 11 2v-2l4-1 4-6h2l1 7 1 4-2 1-25 1-5-3h-1l-2-17 2-7 1-4h2Z"/><path fill="#4d289a" d="M230 263h5v2h-3v2l4 1v3h3l1-3 3 19v5l-16 2-1-20 1-8h-2v-2l4 1v7h5v-3h-4Z"/><path fill="#9a79cf" d="M199 130h8l26 4 5 2-1 2-19-2-5-1h-15l-6 4-4 6-1 4v25h-2l-1-2-2-19v-8l-7 6 1-4 13-13 6-3Zm-25 21"/><path fill="#7a53c4" d="m183 217 4 4-1 9v23l4 18 6 19 6 19 1 6h-4l-7-24-9-32-1-5v-30Z"/><path fill="#7954b8" d="m225 300 2 1-3 19-3 12v3l9 3h12l40-3v2l4 1-5 1-31 2-8 1h-12l-10-3-4-3 3-1-1-5 3-8Z"/><path fill="#ccb7f0" d="M262 256h12l-1 2h-8l1 7-1-4h-3l2 3v5h-19l-1-2v-9Z"/><path fill="#b18eeb" d="M256 219h10l-3 5v2h-2v3h3l1 8h2l1 7 2-2 1 7 2 2h-11l-5-19Z"/><path fill="#492a81" d="m263 188 5 1 3 13v13l-3 3-7-1v-3l-25-1v-1h31l-4-18Z"/><path fill="#ccb6f1" d="M186 177h1l1 15v27l15 13 12 15v3h2v3h6v1h-8l-5-9-7-9-5-6-14-11v-12l1-6Z"/><path fill="#d7c6f0" d="M227 259h11l1 2v10h-3l-1-3-3-1v-2h3v-2h-5v6h4v3h-5l-1-7-3-1v2h2v7l-4 1-4-12v-2Z"/><path fill="#4e279d" d="m283 272 9 3 11 6 3 3-13 2h-9Z"/><path fill="#705191" d="M271 207h1v5h24v2l-13 1-2 1 19 1-1 2h-21l-3-2v2h-2l-1 5-1 6-2-3-1-9 2-3Z"/><path fill="#502d98" d="M241 297h3l3 17-1 4-2-6-2 2-5-1 3-1v-3h-4v5h-3l-1-7-1-4h5l2-2-1-2Z"/><path fill="#cfc0d9" d="M301 237h2l1 7 1 4-2 1-25 1v-6l8 1 7 1v-2l4-1Z"/><path fill="#522c9c" d="m278 294 2 1-1 11-1 2-4-1-2-4-2 4 3 1-5 1 1-5 1-3h-3v-5l1-1Z"/><path fill="#c6a8f2" d="M305 217h22v1l-15 1-2 13 1 3h2v6l-3 2-2-6Zm5 18"/><path fill="#250d5b" d="M202 213h29v4h-30Z"/><path fill="#3b1d73" d="M327 246h7l1 5-8 1h-15l1-4Z"/><path fill="#826da2" d="M199 130h8l26 4 5 2-1 2-19-2-9-2v-1l-9-1Z"/><path fill="#311c5e" d="m144 256 2 4-1 8v10l1 2 1 9v13l1 2-2 2-2-6-2-26v-8Z"/><path fill="#c6a7f3" d="M266 219h1l2 16 1 7-2 4-1-2v-7h-2l-1-5-3-1h3v-2h-3v-3h2v-2l-2-1h3Z"/><path fill="#391c6f" d="m296 189 4 1 2 7 1 5v8l-4-1-3-12Z"/><path fill="#8056b8" d="M308 239h1l1 8h9v1h-6v3l5 1v1h-6l-1 2-3-1-1 2v-3h-9l2-1v-3h6l1-1Z"/><path fill="#be9df1" d="m297 205 2 2v5h-27l1-3v2l10-3 13-1Z"/><path fill="#c8aff1" d="M288 254h19l-1 4-1-1-10 1-1 2-6-2-8-1v-2Z"/><path fill="#a786e0" d="M274 256h1l1 14h-4l-1-5-3-2 1-1-2-1v8h-2v-11l8-1Z"/><path fill="#edddfa" d="m275 217 3 1 21 1v1l-9 2-8-1-2 4-1 1h-5l-1-7h2Z"/><path fill="#6949a5" d="M230 263h5v2h-3v2l4 1v6l-6 2-4-2 1-8h-2v-2l4 1v7h5v-3h-4Z"/><path fill="#56309f" d="m303 291 6 1v7l2-2 1 4-2 1-4-1v-3l-2 4h2v2h-4v-7h-2l1-5Z"/><path fill="#35196d" d="m263 188 5 1 1 5v10l-3 2-3-12Z"/><path fill="#9579cb" d="M296 258h9v10l-4 1h-2l-1-2v-7h-2Z"/><path fill="#966db8" d="m300 223 3 1 1 4 2 1v19l-3-4v-7h-2l1-9-3 1Zm2 12"/><path fill="#9d77e3" d="M256 219h10l-3 5v2h-2v3l3 1-7-1Z"/><path fill="#cbc0d3" d="m279 220 12 1 3-1h7l-1 7-5-1v-3h-9l-3 2-3-1 2-3Z"/><path fill="#745c9f" d="M240 137h10l15 3 4 2-3 2-6-2-22-3Z"/><path fill="#dcc7f6" d="m197 228 4 2 8 9 6 8v3h2v3h6v1h-8l-5-9-7-9Z"/><path fill="#d2c0f4" d="m245 263 1 3h16v-2h2v5h-19Z"/><path fill="#412378" d="m310 253 3 4 1 10-3 2-2-1-1-14Z"/><path fill="#7d53b6" d="m274 249 5 3v2l2 1-2 4v-2l-8-1v-2l-2-1-15-1v-1h20Z"/><path fill="#3a1c73" d="M315 212h12l1 4h-16v-2l-3-1Z"/><path fill="#dec2f7" d="M266 218h2l4 22 1 10-4-1h2l-4-21Z"/><path fill="#9b87a8" d="m279 225 2 2-3 4v10h2l1 3h-3l-1 2-2-8-1-12Z"/><path fill="#2f2348" d="M208 366h19l12 2h5v2l-21-1-15-2Z"/><path fill="#805cbf" d="m225 300 2 1-3 19-3 12-2 2-1-4 3-8Z"/><path fill="#422379" d="M262 252h7l5 2-3 2-15 1 1-4Z"/><path fill="#9663ce" d="m273 244 4 4 1 3 18 2v1l-15 1-2-1v-2l-6-1Z"/><path fill="#593e86" d="M170 154h2l-2 4-9 11-4 8h-1l1-7 10-13Z"/><path fill="#7852b6" d="m221 268 2 3v3l4-1v21h-2l-2-18-2-4Z"/><path fill="#835dc4" d="m197 298 2 2 4 12-1 3h-3l-3-10Z"/><path fill="#6848a2" d="m319 219 8 1 1 9-5 1-1-8h-2Z"/><path fill="#7152a6" d="M189 134h2l-2 4-3 1-2 9-2-1-1-1-6 5 1-4Zm-15 17"/><path fill="#58359d" d="m313 289 1 3v11l-4-4-2 1v-7l-3-2Z"/><path fill="#e8d8fa" d="M219 260h8l-4 2 2 5 2 3v3l-4 1-4-12Z"/><path fill="#ae74e6" d="M283 214h13l4 2v1h-22l3-2Z"/><path fill="#7d52b5" d="M271 207h1v5h8l2 2h-8l-2 5-2 5-2-2 1-6 1-1Z"/><path fill="#3e1f7a" d="m274 298 4 1 1 7-1 2-4-1-1-1v-7Z"/><path fill="#8b65cd" d="M183 152h1l1 9 2-1v14h-2l-1-2-2-19Z"/><path fill="#4c2c83" d="m275 256 4 1 2 4v5h-4l-1 2-1-4Z"/><path fill="#dbcafb" d="M202 218h30v7l-1-3-8-1v-1l-21-1Z"/><path fill="#d6c3fa" d="M186 177h1l1 15v11l-1 1-1 8h-1Z"/><path fill="#cfb3f5" d="m307 223 2 3 2 9h2v6l-3 2-2-6Zm3 12"/><path fill="#d9c3f7" d="M288 254h19v1l-18 2h-9v-2Z"/><path fill="#44257c" d="M301 197h1l1 5v8l-4-1-1-6Z"/><path fill="#2c1f48" d="m144 256 2 4-1 8v8l-1 6h-1l-1-16Z"/><path fill="#b38fe5" d="M266 219h1v10l-3 1-3-1v-3h2v-2l-2-1h3Z"/><path fill="#8a64d1" d="m183 217 4 4-2 15-2-4Z"/><path fill="#57368f" d="M307 212h8l-3 2v2h16v1h-19l-3-1-1-3Z"/><path fill="#714fad" d="M242 338h5l3 3-8 1h-12l4-3Z"/><path fill="#c3a8f4" d="m320 293 3 4 8 13v2h2l-1 4-9-14-3-4Z"/><path fill="#bc9fed" d="m292 274 6 1 9 6-3 2-10-6-2-1Z"/><path fill="#583c8f" d="M331 255h3l2 9-4 1-2-9Z"/><path fill="#4c3572" d="M153 187h1l1 9v7l-1 3h-2v-14Z"/><path fill="#d2c1f1" d="M230 222h3v10h-3l-2-1v-5l-3-2Z"/><path fill="#a687d6" d="m195 131 17 1-3 2-14 1Z"/><path fill="#6b45a0" d="M310 248h3v3l5 1v1h-6l-1 2-3-1-1 2v-3l-4-1 6-1Z"/><path fill="#b28eef" d="m290 205 5 2v1l-19 2 2-3Zm-16 5 2 1Z"/><path fill="#402973" d="M230 263h5v2h-3v2l4 1-1 5-4-1h3v-3h-4Z"/><path fill="#896db8" d="M240 137h10l5 2v1h-10l-7-1Z"/><path fill="#523981" d="M327 358h1v9l-5 10h-2l1-4h2l1-5Z"/><path fill="#dcccf5" d="M227 259h11v5l-3 1v-3h-5Z"/><path fill="#a472d6" d="M296 249h4v3l7 1v1h-11l-4-2 4-1Z"/><path fill="#e4d3f8" d="m210 243 3 1 2 3v3h2v3h6v1h-8l-5-9Z"/><path fill="#968e9c" d="m279 220 15 1 1 2h-9l-3 2-3-1 2-3Z"/><path fill="#371876" d="M231 303h4v11h-2l-1-7Z"/><path fill="#3b2470" d="M223 222h5l-3 1v2l4 1v5h-5l3-1v-3h-4Z"/><path fill="#faecfe" d="M278 219h21v1l-9 2-12-2Z"/><path fill="#6242a0" d="M271 142h10l1 2-5 3-2 1-2-4Z"/><path fill="#371871" d="m267 299 5 1-1 5-1 2 3 1-5 1 1-5 1-3h-3Z"/><path fill="#381974" d="m301 294 4 1-1 7h2v2h-4v-7h-2Z"/><path fill="#d5b7f4" d="M266 218h2l2 9-1 8h-1Z"/><path fill="#6d45a2" d="m303 208 1 4 3 1-2 3-5-3-1-4 4 1Z"/><path fill="#65479a" d="M170 154h2l-2 4-6 7-1-3Z"/><path fill="#d1c1ed" d="M222 261h7l-1 4-3-1v2h2v4l-2-1Z"/><path fill="#5a3793" d="M269 212h2l-1 4-2 2-5-1v-3Z"/><path fill="#9f81d1" d="M225 135h10l3 2-5 1-8-1Z"/><path fill="#2c0e65" d="m240 304 2 1v6l-1 2-4-1h3v-3l-4-1 1-3 2 2Z"/><path fill="#472786" d="M236 303h4l-1 5h-2l-1 6h-1v-10Z"/><path fill="#613c97" d="M260 221h3v5h-2v3l3 1h-4l-1-2v-6Z"/><path fill="#7453a8" d="M254 251h19v3l-4-1-15-1Z"/><path fill="#765c8b" d="m300 223 3 1 2 7-3 4v-7l-3 1Z"/><path fill="#3a314c" d="M144 286h1l1 13 2 5-2 2-2-6Z"/><path fill="#3a226d" d="M243 258h1l-1 10h-3l-1-4 3-3Z"/><path fill="#9c7fcf" d="M265 258h3v2l3 1h-4v8h-2Z"/><path fill="#845fc6" d="M186 160h1v14h-2l-1-6h1Z"/><path fill="#583493" d="m266 252 5 1 3 2-7 1-2-1Z"/><path fill="#9a71c6" d="M274 214h5l-2 4-2-1v2h-3Z"/><path fill="#c0a3f0" d="m274 260 2 4v6l-4-1Z"/><path fill="#8d57c6" d="M300 249h6v2l-3 2h-5l2-1Z"/><path fill="#58358f" d="M302 202h1v8l-4-1-1-4 4 1Z"/><path fill="#32126e" d="m308 294 1 3v2l2-2 1 4-2 1-4-1Z"/><path fill="#36206b" d="m225 264 4 1 1 9h-2l-1-8h-2Z"/><path fill="#4a2980" d="m310 253 2 3-3 5h-1v-7Z"/><path fill="#573a91" d="M300 258h5l-1 9h-2l1-7h-3Z"/><path fill="#a280d7" d="m186 139 3 1-1 5h-3Z"/><path fill="#603d99" d="m275 256 4 1 1 4-4-1-1 4Z"/><path fill="#4f2e90" d="M318 192h3l1 9h-2Z"/><path fill="#5a389c" d="M236 309h4v5l-4 1Z"/><path fill="#a477cd" d="M300 217h2l2 6h-2l-1 2-1-3 1-2-2-1Z"/><path fill="#47326b" d="M192 352h2l5 5v3l-7-6Z"/><path fill="#a67fe5" d="M260 219h6l-3 4v-2l-5 2Z"/><path fill="#0b0a0b" d="M300 232"/></svg>