<svg xmlns="http://www.w3.org/2000/svg" width="512" height="512"><path fill="#8d5fc9" d="M280 130h6v2l5 1 4 14 3-3h10v2h3l5 5 9 8 4 13v2l-4 2h2l-2 5-4 2-12 2 15-2h3l-2 4-8 10-2 3h-2l-2 5-6 5-10 1-4 2 4 14-1 7-4 4-1 3h-3l-1 4h-3l-1 4-7 2-3 1h-9l4 14 2 8 4-1 13-2h5l-2-7v-4l8-4 3-5h2l5 15 1 3 7-2 16-1-2-3-3-13-2-5h-6l-6 1h-6v-2l14-8 4-2 2-4 12-13 2-4 4 1 2 9 3 9 10 32 4 13 3 8-1 5-10 19-6 11 1 1 8-16 6-11 2 2-1 21-2 5-28 28-1 2h-2l-2 4-13 4-18 3-10 2-26 5-10 2-25 5-25 5-4-1-11-6-13-8-3-6-5-21-6-21-2-10-4-39-2-12-5-18 1-5 9-11-5 4-5-1 2-5-1 1-4 2-4-15-1-9 7-16 4-7 5-1h11l2 3 3 13v4l10-2h-1l-5 1-3-3-4-15 3-9 6-10 10-2h9l6 20 2 2h11l3-1 2-5 1-7-1-4-2-8 21-3 19-2 7-1h9l2 7 4 13 2 2h7l8-1 2-11-3-8 2 7-1 9-5 3-9 1 1-5v-7l-4-14-1-8-5-2v-2Zm32 46-1 2h6l-2-2Zm-10 2 1 2 2-2Zm-10 1-2 2 10-1v-1Zm-13 2v1h8v-1Zm-18 2-3 1-12 1 3 2 25-3v-1Zm35 2v2l2-1Zm2 0 3 2 4-2Zm-64 2-18 3v1h8l19-3v-1Zm52 0 2 2 5-1v-1Zm-4 0-4 2 2 1 6-1Zm-9 2-10 1 1 2 14-2v-1Zm-68 2-11 1v2l14-1 2-2Zm56-1-16 2-2 1-11 1 4 2 23-3 3-1Zm-71 4 4 1Zm31 2 2 2 5-1v-1Zm-4 0-9 2-12 1v1h13l10-2Zm-49 4-3 3v2l-2 1h3l3-4Zm23 0-12 1-1 2 15-1 3-2Zm-19 3-1 4 3 1 4 15 6 23 2 7 8 29 6 24 4 9 1-2-10-36-4-15-9-35-7-23 3-1Zm-11 4-2 2 1 3 3-4Zm5 4v3Zm-10 1-2 4 4-2 1-2Zm8 1v3Zm102 1-15 3 5 17 1 5 22-3 2-1-3-11-3-10Zm-114 3-1 3h2l1-3Zm79 2-3 1-16 2 3 12 4 10 10-1 13-2-4-17-2-5Zm14 35-19 3-3 2 4 16 2 5 9-1 14-2-1-6-4-16Zm85 25-18 3-1 1 1 8 4 14 21-3 2-1-1-8-4-14Zm-42 6-17 3 2 8h2v7l3 7 13-1 10-2-2-10-4-12Zm-34 5-12 2-8 1-1 4 6 19 10-1 14-2-4-13-2-8-1-2Zm-49 25 2 2v-2Zm2 2 2 2v-2Zm2 2 5 5-1-4Zm6 4-1 2 5 4 3-1Zm131 1-7 3v1h6l2-4Zm-16 4-10 2-6 1v1h9l12-2 1-2Zm-107 3 5 6 8 6 2-1-3-3h-2v-2l-8-6Zm78 2v1h11v-1Zm-4 1-8 1-1 2 11-1 2-2Zm-20 3 2 2 9-1v-1Zm-4 1-5 1v1h7l2-2Zm-8 1-7 2v1l9-1v-2Zm-18 3-9 1v2h8l12-2v-1Z"/><path fill="#8b5ec7" d="M280 130h6v2l5 1 4 14 3-3h10v2h3l5 5 9 8 4 13v2l-4 2h2l-2 5-4 2-14 2v2l-9 2-5-1h-11l-9 2h-10l1 3h-5l3-1-1-1-16 2-2 1-9 1-2 1v2h-9l-4-1-11 2-29 3-1 1h-6l-2 5-6 7v3l-4 2-6 7-6 1v-5l-4 2-4-15-1-9 7-16 4-7 5-1h11l2 3 3 13v4l10-2h-1l-5 1-3-3-4-15 3-9 6-10 10-2h9l6 20 2 2h11l3-1 2-5 1-7-1-4-2-8 21-3 19-2 7-1h9l2 7 4 13 2 2h7l8-1 2-11-3-8 2 7-1 9-5 3-9 1 1-5v-7l-4-14-1-8-5-2v-2Zm32 46-1 2h6l-2-2Zm-10 2 1 2 2-2Zm-10 1-2 2 10-1v-1Zm-13 2v1h8v-1Zm-18 2-3 1-12 1 3 2 25-3v-1Zm35 2v2l2-1Zm2 0 3 2 4-2Zm-64 2-18 3v1h8l19-3v-1Zm-29 4-11 1v2l14-1 2-2Zm-15 3 4 1Zm-22 6-3 3v2l-2 1h3l3-4Zm-7 7-2 2 1 3 3-4Zm-5 5-2 4 4-2 1-2Zm-4 5-1 3h2l1-3Zm-2 3"/><path fill="#8b5ec6" d="M352 157h10l7 5v2h2l2 10-9 11-2 1-2 4-5 5-8 8-9 11-5 6h-2l-2 4-5 6h-2l-2 4-5 3h-2v2l-8 4h-2l-2 4-7 10-10 4h-5l3-11 3-5 9-9 6-17 5-7 5-5 7-9h2l2-5h2l2-4 4-5 1-2h2v-2h2l2-4 8-10Z"/><path fill="#885cc2" d="M155 177h11l2 3 3 13v4l10-2h5l-2-2 10-1v2h-4v2l-4 2 4 1 5-1h13v1l-29 3-1 1h-6l-2 5-6 7v3l-4 2-6 7-6 1v-5l-4 2-4-15-1-9 7-16 4-7Zm13 23-3 3v2l-2 1h3l3-4Zm-7 7-2 2 1 3 3-4Zm-5 5-2 4 4-2 1-2Zm-4 5-1 3h2l1-3Zm-2 3"/><path fill="#6f4b9e" d="m308 176 9 1 3-1h7l-2 5-4 2-14 2v2l-9 2-5-1h-11l-9 2h-10l1 3h-5l3-1-1-1-16 2-2 1-9 1-2 1v2h-9l-4-1h-8v-1l7-2-2-3 27-4v-2l9 1 11-2 1-2 13-1 1-1h16l-2-2Zm-6 2 1 2 2-2Zm-23 3v1h8v-1Zm17 4v2l2-1Zm2 0 3 2 4-2Zm-70 10"/><path fill="#8057b7" d="M280 130h6v2l5 1 4 14 2-2-1 6 2 6-1 9-5 3-9 1 1-5v-7l-4-14-1-8-5-2v-2Z"/><path fill="#8258ba" d="m205 138 6 2 2 1 7 25-1 9-2 3-11 1v-4l1-5-7-26-3-2v-2Z"/><path fill="#5c3e84" d="m193 192 1 2h-4v2l-4 2 4 1 5-1h13v1l-29 3-1 1h-6l-2 5-6 7v3l-4 2-6 7-6 1v-4l3-4h2l-1-4 5-2 5-6v-3l3 1 5-8v-5l1 4 10-2h5l-2-2Z"/><path fill="#8359bc" d="m192 141 4 2 3 2 4 12 3 12v6l-4 1-3-12-3-8h-12v-5l5-7h2Z"/><path fill="#8359bb" d="m270 133 5 2 3 4 6 20-1 7-2 1-2-3-4-16-2-1h-11l1-5 3-5h2Z"/><path fill="#7550a8" d="m308 176 9 1 3-1h7l-2 5-4 2-14 2v2l-4-1h2v-3l-2-1v-3l-1 1-10-1v-1Zm-2 2"/><path fill="#7c54b2" d="m172 162 1 4-7 10h-11l1-3 11-7Z"/><path fill="#6a4898" d="M159 214h2l-1 4-3 5-5 5-5-1 2-5 4-2-1-4Z"/><path fill="#754fa7" d="M197 193h11l-4 3v2l-14 2h-11v-1l6-1 2-2Z"/><path fill="#62438d" d="m201 153 2 4 3 12v6l-4 1-3-12-2-8h2l1 2Z"/><path fill="#5d3f85" d="M216 191h8v3l21-2-2 2-9 1-2 1v2h-9l-4-1h-8v-1l7-2Zm12 4"/><path fill="#855abe" d="m235 188 9 1v3l-13 2h-7v-4Z"/><path fill="#694796" d="m279 147 2 3 3 9-1 7-2 1-2-3-3-12 1-3 1 1Z"/><path fill="#9162d0" d="m277 183 3 1-1 2h-2v2l-3 1h-13v-3l2-1h14Z"/><path fill="#3e2a59" d="M278 180h12l2 2-3 1h-12v2h-14l1-3 13-1Zm1 1v1h8v-1Zm9 0"/><path fill="#6e4b9e" d="M294 180h11v5l-8 1-2-4-3-1Z"/><path fill="#593d80" d="m162 205 2 1 1 7v3l-2 2-4 2 2-6-4 1 5-7Z"/><path fill="#442e62" d="M195 198h13v1l-29 3-1 1h-6l3-2h2v-2h13Z"/><path fill="#4d346e" d="m259 185 4 1v2l10 1v1h-10l1 3h-5l3-1-5-1 2-1v-3h-7v-1Z"/><path fill="#513775" d="m241 192 4 1-2 1-9 1-2 1v2h-9v-1l5-1v-2Z"/><path fill="#9666d6" d="M187 196h7v3l-4 1h-11v-1l6-1Z"/><path fill="#6a4897" d="m339 213 4 1-1 3-8 6-2-1 6-7Z"/><path fill="#9364d2" d="M253 187h6v3l-2 1h-11v-1h5v-2Z"/><path fill="#2b1d3e" d="m308 176 4 1-4 3h-6l-10-1v-1Zm-2 2"/><path fill="#4a326a" d="m363 294 2 2-1 21h-1l-1-18-1-2Z"/><path fill="#7751aa" d="M168 204h3l-1 4-5 4-1-5 4-1Z"/><path fill="#503773" d="m170 193 1 4h6v1h-5v7l-4-1v2l-2-1 4-7Z"/><path fill="#63448e" d="m305 180 7 3-3 2h-2v2l-4-1h2v-3l-2-1Z"/><path fill="#553a7a" d="M301 334h10v1l-9 2h-10v-1Z"/><path fill="#523875" d="m292 258 3 1h-2l-2 6v4l-2-1-1-8Z"/><path fill="#694796" d="M280 159h4l-1 7-2 1-1-2Z"/><path fill="#442e61" d="M294 185h2v2l5-1 2 2-5 1-10-2v-1Z"/><path fill="#9364d3" d="M172 198h7l-2 1v2l-6 2Z"/><path fill="#36254e" d="M324 183h3l-1 3h-16l3-2Z"/><path fill="#2d1e40" d="m341 325 4 1-3 1 2 2-9 1 1-2h2v-2Z"/><path fill="#4a326a" d="m217 240 2 4 10-1-3 3-8-1Z"/><path fill="#8b5fc7" d="M159 214h2l-1 4-1 3h-3l1-6Z"/><path fill="#9565d5" d="m303 180 2 1v3h-7l-1-3h5Z"/><path fill="#5a3d81" d="m172 162 1 4-4 4v-3l-2-1Z"/><path fill="#724da3" d="m277 140 2 3v7l-2 1-2-3 1-3v2h2Z"/><path fill="#674693" d="m192 141 3 1-6 7-1-3 1-2h2Z"/><path fill="#9666d7" d="m263 185 4 2 1 2h-7v-3Z"/><path fill="#473066" d="m228 276 1 4 9-1-4 3-6-1Z"/><path fill="#9465d4" d="M289 182h6l1 3h-6Z"/><path fill="#4f3671" d="m281 155 2 4h-3v5h-1l-1-8 2 1Z"/><path fill="#4e3570" d="m270 133 5 2-4 1h-2v2l-3 1v-2h2Z"/><path fill="#07050a" d="M161 208"/></svg>