<svg xmlns="http://www.w3.org/2000/svg" width="512" height="512"><path fill="currentColor" d="M280 130h6v2l5 1 4 14 3-3h10v2h3l5 5 9 8 4 13v2l-4 2h2l-2 5-4 2-12 2 15-2h3l-2 4-8 10-2 3h-2l-2 5-6 5-10 1-4 2 4 14-1 7-4 4-1 3h-3l-1 4h-3l-1 4-7 2-3 1h-9l4 14 2 8 4-1 13-2h5l-2-7v-4l8-4 3-5h2l5 15 1 3 7-2 16-1-2-3-3-13-2-5h-6l-6 1h-6v-2l14-8 4-2 2-4 12-13 2-4 4 1 2 9 3 9 10 32 4 13 3 8-1 5-10 19-6 11 1 1 8-16 6-11 2 2-1 21-2 5-28 28-1 2h-2l-2 4-13 4-18 3-10 2-26 5-10 2-25 5-25 5-4-1-11-6-13-8-3-6-5-21-6-21-2-10-4-39-2-12-5-18 1-5 9-11-5 4-5-1 2-5-1 1-4 2-4-15-1-9 7-16 4-7 5-1h11l2 3 3 13v4l10-2h-1l-5 1-3-3-4-15 3-9 6-10 10-2h9l6 20 2 2h11l3-1 2-5 1-7-1-4-2-8 21-3 19-2 7-1h9l2 7 4 13 2 2h7l8-1 2-11-3-8 2 7-1 9-5 3-9 1 1-5v-7l-4-14-1-8-5-2v-2Zm32 46-1 2h6l-2-2Zm-10 2 1 2 2-2Zm-10 1-2 2 10-1v-1Zm-13 2v1h8v-1Zm-18 2-3 1-12 1 3 2 25-3v-1Zm35 2v2l2-1Zm2 0 3 2 4-2Zm-64 2-18 3v1h8l19-3v-1Zm52 0 2 2 5-1v-1Zm-4 0-4 2 2 1 6-1Zm-9 2-10 1 1 2 14-2v-1Zm-68 2-11 1v2l14-1 2-2Zm56-1-16 2-2 1-11 1 4 2 23-3 3-1Zm-71 4 4 1Zm31 2 2 2 5-1v-1Zm-4 0-9 2-12 1v1h13l10-2Zm-49 4-3 3v2l-2 1h3l3-4Zm23 0-12 1-1 2 15-1 3-2Zm-19 3-1 4 3 1 4 15 6 23 2 7 8 29 6 24 4 9 1-2-10-36-4-15-9-35-7-23 3-1Zm-11 4-2 2 1 3 3-4Zm5 4v3Zm-10 1-2 4 4-2 1-2Zm8 1v3Zm102 1-15 3 5 17 1 5 22-3 2-1-3-11-3-10Zm-114 3-1 3h2l1-3Zm79 2-3 1-16 2 3 12 4 10 10-1 13-2-4-17-2-5Zm14 35-19 3-3 2 4 16 2 5 9-1 14-2-1-6-4-16Zm85 25-18 3-1 1 1 8 4 14 21-3 2-1-1-8-4-14Zm-42 6-17 3 2 8h2v7l3 7 13-1 10-2-2-10-4-12Zm-34 5-12 2-8 1-1 4 6 19 10-1 14-2-4-13-2-8-1-2Zm-49 25 2 2v-2Zm2 2 2 2v-2Zm2 2 5 5-1-4Zm6 4-1 2 5 4 3-1Zm131 1-7 3v1h6l2-4Zm-16 4-10 2-6 1v1h9l12-2 1-2Zm-107 3 5 6 8 6 2-1-3-3h-2v-2l-8-6Zm78 2v1h11v-1Zm-4 1-8 1-1 2 11-1 2-2Zm-20 3 2 2 9-1v-1Zm-4 1-5 1v1h7l2-2Zm-8 1-7 2v1l9-1v-2Zm-18 3-9 1v2h8l12-2v-1Z"/><path fill="currentColor" d="m172 206 3 1 4 16 6 23 2 7 8 29 6 24 4 9 9 9 5 4 1 2 5 3 11 9 2 1v2l25-4 14-1 2-2 20-3 2-1 20-2 7-2 16-2 6-9 8-16 5-9 2 2-1 21-2 5-28 28-1 2h-2l-2 4-13 4-18 3-10 2-26 5-10 2-25 5-25 5-4-1-11-6-13-8-3-6-5-21-6-21-2-10-4-39-2-12-5-18 1-5 9-11 5-6 2-1 2-4Z"/><path fill="currentColor" d="M280 130h6v2l5 1 4 14 3-3h10v2h3l5 5 9 8 4 13v2l-4 2h2l-2 5-4 2-14 2v2l-6-1-2 2h-17l-9 2h-10l1 3h-5l3-1-1-1-16 2-2 1-9 1-2 2-11 2-2-2-11 2-29 3-1 1h-6l-2 5-6 7v3l-4 2-6 7-6 1v-5l-4 2-4-15-1-9 7-16 4-7 5-1h11l2 3 3 13v4l10-2h-1l-5 1-3-3-4-15 3-9 6-10 10-2h9l6 20 2 2h11l3-1 2-5 1-7-1-4-2-8 21-3 19-2 7-1h9l2 7 4 13 2 2h7l8-1 2-11-3-8 2 7-1 9-5 3-9 1 1-5v-7l-4-14-1-8-5-2v-2Zm32 46-1 2h6l-2-2Zm-10 2 1 2 2-2Zm-10 1-2 2 10-1v-1Zm-13 2v1h8v-1Zm-18 2-3 1-12 1 3 2 25-3v-1Zm35 2v2l2-1Zm-62 2-18 3v1h8l19-3v-1Zm-29 4-11 1v2l14-1 2-2Zm-15 3 4 1Zm31 2 2 2 5-1v-1Zm-53 4-3 3v2l-2 1h3l3-4Zm-7 7-2 2 1 3 3-4Zm-5 5-2 4 4-2 1-2Zm-4 5-1 3h2l1-3Zm-2 3"/><path fill="currentColor" d="M352 157h10l7 5v2h2l2 10-9 11-2 1-2 4-5 5-8 8-9 11-5 6h-2l-2 4-5 6h-2l-2 4-5 3h-2v2l-8 4h-2l-2 4-7 10-10 4h-5l3-11 3-5 9-9 6-17 5-7 5-5 7-9h2l2-5h2l2-4 4-5 1-2h2v-2h2l2-4 8-10Z"/><path fill="currentColor" d="m308 176 9 1 3-1h7l-2 5-4 2-14 2v2l-6-1-2 2h-17l-9 2h-10l1 3h-5l3-1-1-1-16 2-2 1-9 1-2 2-11 2-2-2-11 2-29 3-1 1h-6l-2 5-6 7v3l-4 2-6 7-6 1v-5l-4 2-4-15-1-9 7-16 4-7 5-1h11l2 3 3 13v4l10-2h5l-2-2 10-1v2l3-1 11-1-3-2 5-1h10l4 1 14-2 3-3 11 1 11-2 1-2 13-1 1-1h16l-2-2Zm-6 2 1 2 2-2Zm-23 3v1h8v-1Zm17 4v2l2-1Zm-106 9 4 1Zm31 2 2 2 5-1v-1Zm-53 4-3 3v2l-2 1h3l3-4Zm-7 7-2 2 1 3 3-4Zm-5 5-2 4 4-2 1-2Zm-4 5-1 3h2l1-3Zm-2 3"/><path fill="currentColor" d="M155 177h11l2 3 2 8v11l-5 6-3 1-3 6-5 3-4 6h-2l-1 3-3 1-4-15-1-9 7-16 4-7Z"/><path fill="currentColor" d="M280 130h6v2l5 1 4 14 2-2 1 6h-2l2 6-1 9-5 3-9 1 1-5v-7l-4-14-1-8-5-2v-2Z"/><path fill="currentColor" d="m205 138 6 2 2 1 7 25-1 9-2 3-11 1v-4l1-5-7-26-3-2v-2Z"/><path fill="currentColor" d="m192 141 4 2 3 2 4 12 3 12v6l-4 1-3-12-3-8h-12v-5l5-7h2Z"/><path fill="currentColor" d="m270 133 5 2 3 4 6 20-1 7-2 1-2-3-4-16-2-1h-11l1-5 3-5h2Z"/><path fill="currentColor" d="m172 162 1 4-7 10h-11l1-3 11-7Z"/><path fill="currentColor" d="M278 180h12l2 2h-7v1h-8v2h-14l1-3 13-1Z"/><path fill="currentColor" d="m363 294 2 2-1 21h-1l-1-17-2 1 2-6Z"/><path fill="currentColor" d="m308 176 4 1-4 3h-6l-10-1v-1Zm-2 2"/><path fill="currentColor" d="m167 203 2 2-11 11-2-1 6-7v-3l3 1Z"/><path fill="currentColor" d="m162 169 2 1-4 4 6 1v1h-11l1-3Z"/><path fill="currentColor" d="M313 330h5l3 3-9 1-9-1v-1h10Z"/><path fill="currentColor" d="m279 159 3 1 2-1-1 7-2 1-2-3Z"/><path fill="currentColor" d="m339 213 4 1v2l-5 3-3 3-2-1 5-6Z"/><path fill="currentColor" d="m228 194 6 1-2 2-11 2 1-2 6-1Z"/><path fill="currentColor" d="M324 183h3l-1 3h-16l3-2Z"/><path fill="currentColor" d="m172 206 3 1-4 4-4 2 2-4Z"/><path fill="currentColor" d="M294 185h2v2l5-1-2 2-11-1v-1Z"/><path fill="currentColor" d="m206 175 1 2h10v1l-11 1Z"/><path fill="currentColor" d="m172 162 1 4-3 2h-2l-3-1Z"/><path fill="currentColor" d="m338 326 4 1 2 2-9 1 1-2h2Z"/><path fill="currentColor" d="M161 208"/></svg>