<svg xmlns="http://www.w3.org/2000/svg" width="852" height="917"><path fill="#d3a5f5" d="M672 200h6l-2 4-9 11-11 13-2 5-8 7-4 6-6 7-9 10-8 10 1 2-1 2-4 1-6 8-5 4h-2l-1-1-1 2h-6l-1-1h-7l-1 2h-9l-15 3-2 2h-8l-4 2 1 5 1 3 2 11 3 10v3l2 1 2 11 3 10v4l2 1 1 2 1 4-3 1 1 4h-2l-3 11-7 8-25 25 1 3-2 2-5 1-4 4v6l-5 5-5 1-4 1-11 1-11 2-1 2-5-1-4 2-6 1h-11l-5 1h-5l2 3 2 3-1 5 3 11v3l3 1 3 7-1 7 3 9 2 2-1 1 3 4 1 7-1 1 5 18 7-1 2-1v-2l4 1v2l3-2 9 1 1-3h2v2l26-4v-3l21-1 2 1v-2l9-1 1-1-5-2-1-6h2l-1-8-3-10-2-2v-8l12-5 3-3 7-1 8-9 11-16 2 1 7 25v4h3l1 4h-2l5 17h2l1 5h2l2 5-3 1v2l11-1 11-2 1-2h7l9-2h12l37-5-3-10-2-1-1-8-1-2-1-8-2-10-2-1-3-5v-3h2l-1-5-2-1-2-10-2 1 1-8h-3l-2-8h2v-3l-23 3-6 1-2 3-8 1h-9v-2l-10 2-9 1 2-4 7-4h2l1-2 8-4 17-10 10-6 2-2 8-5 7-7 1-4 3-1 8-10 3-1 2-4 12-13 9-10 7-8 11-13 1-5 7-2 3 3v7l3 10v3l2 1 2 9 12 38 3 9v3l2 1 2 10 7 21 3 12h2l1 8 4 13v3h2l4 16 4 12 1 2-1 2h2l2 10 1 6 2 1 2 5 4 17 3 6 2 4 1 4-1 1 4 13v3h2l3 6v5h-2l-1 7-3 3-3 7-5 8-4 9-1 4-4 4-3 9h-2l-2 5-8 16-3 9-6 9-6 11-4 8-2 7-3 1-2 5-1 2h2l-2 6-4 5-4 3-16 3h-5v3l-10 1-1 1h-13l-16 3-4 2-4-1-1 2-10 2h-14l-13 3-2 6h-6l-2 1v-2h-23l-12 2-2 2h-12v2l-5 1h-9l-19 3-3 1v2l-3 1-6-1-4 1v2h-10l-5 1-5-1-12 2-2 2h-9l-6 3-13 1-12 1-11 2v3l-16 2h-14l-27 5-3 1-3-1-1 2-6-1v2l-5 1-2-5-2-1-2-3-3-1-6-7-11-9-10-9-4-1-3-5-8-7h-4l-2-4h-2l-4-6-7-3-1-4-11-10-9-7-10-9-3 1v-2l-3-1v-3l-6-2-4-6-5-2-2-10-3-8-1-3-1-7-5-18-2-4-2-11-10-38-6-21-11-42-2-6-2-1 1-3-4-15v-3l-2-1-2-11-6-23-2-1-1-9-13-49-8-30v-3l-2-1-2-11-4-14-3-3 2-1-7-26-3-3-1-5 2 1-3-9v-4l9-2 19-3 4-1 14-1 23-3v-2l9-2 3 2v-2l13-2 3 2 38-5 5-1 2-2h8l5 1 1-3 6 1 24-3 2-1 1-3h2v-2h4v2l12-1 3 1 8-1 3-1 16-1 7-1h8l1-2 8-1v-1l11 1 1-2 15-1 22-3h7v-3l7-1h13l2-1 14-1 12-2 4-1h5l1-2 6-1h12v-1h11l16-2v-3l19-2 2-1 14 1 29-4 3-2 10-2h5l3 1Zm-148 20 4 1Zm-192 26v1h7v-1Zm214 54 1 3Zm-58 4-1 2h-14l-3 1-11 1-13 2 1 2-6-1h-1l-1 2-11 1h-11l-3 1-6 1-1 5 3 8 3 6-1 4 6 21h2l1 4-1 3 4 15 3-1 1 7v4l1 6 5 1 20-3 3-1 5-1 15-1 12-2 1-3h18l8-3 1-4-7-25-1-4-3-10-1-1-1-2-2 1v-12l-3-11-1-4-2-7-4-2Zm244 6 1 3Zm-581 10 1 2Zm202 3-27 4v2l-18 1-5 1-10 1-24 3-1 3 5 19 2 3 2 4-1 3 4 15 1 3h2l1 5-1 3 2 7 5 18 5 1 28-4 2-1h5l1-2 7-1h15l19-3v-2l7 1 1-2-2-7-2-3-2-3-1-9-2-9-3-11-1-4-2-4-2-10-2-6-3 1-1-6 1-5-2-6Zm66 39 1 2Zm-79 49v1h5v-1Zm-7 1v1h5v-1Zm337 4 1 2Zm1 4 1 2Zm-284 31-20 3-1 1h-5l-3 2-5 1-5-1-2 1-10 1-17 2-14 2v5l3 5 2 15 2 7 1 1 2 1 2 6-1 6 5 18 1 2h3v12l2 5 6 1 29-4 3-3 10-1 11-1h12l16-3-2-6 1-8-4-13h-2l-3-13-1-9-2-6-2-1-2-9-1-10-3-9Zm10 17 1 2Zm1 3 1 3Zm196 2 1 2Zm93 4 1 3Zm-137 25 1 2Zm-235 1 1 2Zm144 0 1 2Zm-46 23 1 2Zm288 13-34 5-3 2h-10l-27 4-2 2-4-1-3 2h2l1 16 3 10 2 6 2 9 4 14 3 2 1 8 2 11 2 6 13-1 19-3v-3h18l12-2 22-3 2-2-1-14-5-17h-2l1-5-6-21-3-3 1-4-2-4-1-7-2-6Zm-140 20-6 1-4 1-4 1-14 1-1 1-12 1-16 3v2l-12 1h-10l-3 2 1 6 1 2h2l1 5 2 6h-2l4 16 3 3 2 4-1 6 1 4 4 15 2 2 2 2 1 4-2 1h2l-1 5 1 1 13-1 3-1h4v-2l2 1 12-1 27-4 3-2 5-1h9l4-1 5-1 1-3-5-19-2-6-2-4-2-11-3-10-1-4-5-18-3-3-1-5Zm-138 20-25 4v2l-16 1h-2v2l-3-1h-8l-26 4-3 1 4 16 2 4 2 10 6 22 2-1 1 13 4 13h2l-1 4h3v2l16-1 25-4 1-2 1 1 10-1v-2l3 1 13-1 18-3-2-9-2-7-3-3v-9l-4-14-3-3-2-10-1-8-3-11-1-2h-2l1-6-1-2Zm60 9 1 3Zm8 28 1 2Zm144 0 1 2Zm-10 111 1 2 2-2Zm-191 33"/><path fill="#d3a5f6" d="m128 281 4 1v3l4 17h2l3 11-1 6 2 1 1 8 4 13 2 1v8l4 15v3h2l2 12 6 21 1 2-1 2 2 1-1 3 2 1 1 8 2 4 2 2 1 10 1 3 2 10 9 33v3h2l3 8v7l5 19v4l2 1 2 11 3 8 2 4 1 9 7 26 2 4 2 12 2 6 2 3 2 9 1 8 5 18 2 4 2 11 3 9 2 1v4h2l1 3 7 4 1 3h3l3 5 2 2 7 5 3 1 1 4 11 10 8 7 10 8 4 1 2 1v4l5 3h2v2l4 2 2 3 3 3 3 2 5 5 10 9 8 7 6 4 2 2 4 2 5 3-1 2 5 1 3 3 11-2 14-1 17-3 1-2h8l4-1 4-1 13-1 15-3 4-2 7-1 1 1 1-2 7 1 25-4h5l-2-1v-2l7-1 5 1 5-2h8l24-4h5l1-3 5 2v-2l13-1 13-2-3-2 4-1h2v-2h5l1-1h12l1 1 17-2 13-2h6l1-2 1-1 10 1v-2l17-2 10-2-1-2 15-1 9-1 3-1 12-1 18-3 2-2h5l6-11 1-4h2v-4h2l2-5 3-6 7-14 6-11 11-22v-4h3l2-5 13-26 5-8h1l1 16-1 37-2 5-1 25-2 9-3 6-8 7-5 5-11 11-1 3-4 2-10 10-5 5-14 15-5 5-41 41-5 5-9 10-3 3-5 4-10 1-9 2h-5l-1 3-13 2h-7l-13 3-4 1-4-1-1 2-6 2h-6l-2-1v2h-7l-14 3-3 2-9 2h-8l-28 5-3 3-18 1-18 4-3 2-5 1-4-2-1 2-21 3-10 1-1 2-5 2h-6l-3 1-11 1-13 3v1l-17 2-26 5-9 3h-6l-3 1-9 1-14 3-6 3-16 1-15 3-3 1-2-1-1 2-2-1v2l-8-1v2l-8 1-8 1-10 1-1 3-14 2-8-1-2-2 1-1-13-6-3-1-3-3-6-3-4-1-1-3-13-7-6-3-3 1v-2l-4-2-4-4-11-5-9-6-4-1-5-10-3-10-2-1-1-7 1-1-4-18h-2l-3-10-1-10-3-11v-4h-2l-1-3-1-6-2-12-1-7-3-1-2-9-1-9-5-18-2-2-1-11-2-7v-4h-2l-2-7-3-15-2-5v-12h-2l-1-4v-13l-1-7v-9l-4-37v-5l-2-1-1-7v-8l-1-2v-11l-2-19v-6h-2v-11l-2-6-1-4-1-15-1-11-1-7-2-1-3-7v-2l-2-8-1-8-3-10-1-5-6-21v-3h-2l-1-10 4-2 2-6 4-2 9-11 9-11 1-2h2l2-6 6-5 2-4 1-4h2l2-4 4-1v-2l4-4h2l2-4 12-14 7-9 1-6 5-2 5-5 1-3Zm9 25 1 3Zm1 4 1 2Zm9 34 1 2ZM62 489l1 3Zm157 123 1 2Zm591 34 1 2Zm-512 78 2 2v-2Zm396 1 4 1Zm-5 1 4 1Zm-90 15 4 1Zm-490 26 1 3Zm17 64 1 3Zm112 72 4 1Zm-3 1"/><path fill="#d2a5f4" d="M594 59h13l3 1v3l5 2 5 2 2 3v2l7 5v2l4 2 6 3 2 5 4 2 13 11 13 11 5 17 5 18 3 9 2 5h-2v2l-26 4v2l-5 3-8-1h-17l-14 2 1 2-7 1-5 1-10 1-11 1h-11l-16 2-3 3-5 1v2h-21l-1-1h-5l-2 1-13 1-7 1-3 3-2 1 4 1-4 1-3-2-6 1-3 1h-17l-3-2-1 2h-5v1h-10l-10 2-1 2-7 2-5-1v2h-11l-7-2v2h-10l-21 3-3 1h-6v2l-7 1h-9v1h-13l-18 3-3 3h-5l-6 2-1 2h-4l-1-2h-25v3l8 1 5 3v2h3l1-2 14-1 17-2h6l1-2h3l1-2 7 1 1-2h13l4-1 14-1 9-1 1-3 7-1 6-1 3-1 3 1h13l24-3 6-3 1 1 7 1v-3l11-1 1-1 2 1 14-1 16-2-1-3 8-1h6l3-1 6-1 4 1h9l36-5 6-3h8l9-2 1 1 14-1 16-2 4-3 9-1 1 1 11-1 33-4 1 2h-2l-2 6-7 10h-10l-2 2-7 1h-6l-1-1-5 1-2 1-15 1v2l-9 2-1 3h-7l-7-1h-18l-2 1-14 1 3 2-3 1h-9v-2l-6 3v-2h-2l-1 3-17 1h-9l-14 2 1 2-12 2h-7l1 3-3 1-5-2-5-1-1 1-10 1-2-1-22 3-2 1h-6l-2 2h-8l-1 2-9-2-1 2h-8l-15 2-1 2-19 4h-23l-21 3h5l-4 2-6 1-1-2-4 2-15 2v-2h-4v2h-9l-2 1-13 1-4 2-10 3-3 3-4-2-4-1-1 2-5-2-6 1-15 1-8 1v3h-7l-6-2v2l-4 1-3 1-16 1-14 1-10 2-2 2-7 1h-10l-4 2-2 7h-2l-1 2h-2l-1 5h-2l-2 4-7 9-7 5-11 14-9 10v3l-1 3h-3l-2 5-4 1-9 11-1 5-3 3v-2l-4 4h-6l-11-3 1-4 5-5 1-4 5-3 7-7 7-8 11-12 14-15 16-17 14-15 1-2h-2v-2h2l1-3h3l2-6 5-1 19-3 2-2h3l1 1 1-2 4-2h10l9 1 32-4 4-2 6-2 8 1 3-1 7-1 15-1 7-1v-2l3-3h2l-1-4 4-1 3 1v-2l-13 2-3 2-1-1h-6l-2 2-13 2h-14l-15 2-2 1v2l-7 1-6 1-2 3-2-2-5-1-4 1-7-2v2l-9-1-1 2-15 1-13 1-3-9-4-5 1-3h1l-6-23-3-3v-5l-1-3-2-11 1-7 9-16 2-7 1-2h2l2-5 5-11 3-3 6-12 3-3 14-2 3-1 16-1 20-2h7l5 15 5 18 3 3-1 3 5 19v4l3 1 2 6h-2l3 7 12 8 1-2v3l26-3 20-3 4-4v-6l2-2 2-2 3-10-2-2 4-6 1-5 1-3-1-9-3-3-2-6h2l-4-17-4-14 15-3 14-1 37-4h8v-2h6l4-1 13-1 7-1 24-2 14-1v-2l12-2v2l12-2 20-2h8l2 3 2 1 3 11-1 4 11 38 2 1v2h2v10l3 5h4l1 4 5 3h3v2l12-2 24-3 4-1v-2h3v2h5l2-5 6-18v-11h2v-3h2v-6l-7-23-5-18v-4l5-2 6-1 1 1 4-1h6Zm-11 57 1 2Zm-2 6 1 2Zm-279 6 1 2Zm2 22 1 2Zm287 26 4 1Zm-5 1 4 1Zm-42 8 1 2Zm37 2v1h5v-1Zm-463 5 1 2Zm530 1v1h6v-1Zm-223 6 4 1Zm129 7v1h5v-1Zm-27 4 4 1Zm-128 2v1h5v-1Zm-12 2 4 1Zm-80 1 4 2 1-2Zm34 5v1h5v-1Zm-72 5 1 3 3-1v-2Zm104 6v1h5v-1Zm-65 9 4 1Zm-133 18 4 1Zm-37 5v1h5v-1ZM775 106h27l11 8 12 10 4 1 1 3 3 1v2h2l3 8 1 10 3 10v6l-7 7-7 8-9 10-8 10 2 1-4 2-2-1-2 4-7 8 1 3-5 3-7 6-5 7-6 5-3 5-2 2-2 1-1 3-5 4-2 3h-2l-2 4-9 10-1 3-3 1-9 11-5 6-5 5-10 11-8 10-5 5-12 14-7 8-1 4h-3l-9 10-7 8-8 9v2h-3v2l-9 5-3 3-6 2-5 4-2 2-5 1-3 3-4 3-6 2-12 7-3 1-2 4-12 16-9 12-6 9-1 2-6 5-7 3h-3l-1 2-9 3-8 2v2l-5 3h-7l-6 2v-8h2l1-8 1-7v-6l4-8h2l2-10 9-10 30-30 3-4 1-6 2-1 3-9v-4h2l1-11 2-4h2l2-11 1-5 1-2h2l1-4 3-6 13-14 9-11 7-8 1-4 4-2 9-11 8-10 6-8 5-5 2-4v-2l6-4 2-5 5-3 9-11 12-14 8-10 1-3 2 1 2-4 9-11 1-3 7-6 7-9 2-4 7-6 1-5h2l1-3 7-6 9-11 9-10 4-7 4-3ZM520 441l1 2Zm-3 11"/><path fill="#d1a4f3" d="m87 177 1 2 15-1 2 1 2 7 2 4 1 4-1 1 9 35 3 11-1 5-6 7-1 4-5 2v3l-4 1-12 13-5 6h-2l-2 4-7 7-7 8-7 7-7 8-15 16-8 9v2l-5 1-4-14-2-4-1-3v-9l-5-21-2-2-1-5h2l-4-18v-6l2-6-1-4h3l1-3h2l1-5 3-8h2l2-6 2-6v-3l3-1 4-9 2-7h2l2-6 8-17 5-2h12l2 1 1-2 19 1ZM14 287l1 3Z"/><path fill="#c8a0e6" d="m675 175 3 1-2 1-2 6-7 10h-10l-2 2-7 1h-6l-1-1-5 1-2 1-15 1v2l-9 2-1 3h-7l-7-1h-18l-2 1-14 1 3 2-3 1h-9v-2l-6 3v-2h-2l-1 3-17 1h-9l-14 2 1 2-12 2h-7l1 3-3 1-5-2-5-1-1 1-10 1-2-1-22 3-2 1h-6l-2 2h-8l-1 2-9-2-1 2h-8l-15 2-1 2-19 4h-23l-21 3h5l-4 2-6 1-1-2-4 2-15 2v-2h-4v2h-9l-2 1-13 1-4 2-10 3-3 3-4-2-4-1-1 2-5-2-6 1-15 1-8 1v3h-7l-6-2v2l-4 1-3 1-16 1-14 1-10 2-2 2-7 1h-10l-4 2-2 7h-2l-1 2h-2l-1 5h-2l-2 4-7 9-7 5-11 14-9 10v3l-1 3h-3l-2 5-4 1-9 11-1 5-3 3v-2l-4 4h-6l-11-3 1-4 5-5 1-4 5-3 7-7 7-8 11-12 14-15 16-17 14-15 1-2h-2v-2h2l1-3h3l2-6 5-1 19-3 2-2h3l1 1 1-2 4-2h10l9 1 32-4 4-2 6-2 8 1 3-1 7-1 15-1 7-1v-2l3-3h2l-1-4 4-1 3 1v-2h-8v-1l7-1h8v1h-6v3l8 1 5 3v2h3l1-2 14-1 17-2h6l1-2h3l1-2 7 1 1-2h13l4-1 14-1 9-1 1-3 7-1 6-1 3-1 3 1h13l24-3 6-3 1 1 7 1v-3l11-1 1-1 2 1 14-1 16-2-1-3 8-1h6l3-1 6-1 4 1h9l36-5 6-3h8l9-2 1 1 14-1 16-2 4-3 9-1 1 1 11-1Zm-94 12v1h5v-1Zm67 6v1h6v-1Zm-94 13v1h5v-1Zm-27 4 4 1Zm-128 2v1h5v-1Zm-12 2 4 1Zm-46 6v1h5v-1Zm-72 5 1 3 3-1v-2Zm104 6v1h5v-1Zm-65 9 4 1Zm-133 18 4 1Zm-37 5v1h5v-1Zm-81 88"/><path fill="#cfa4f1" d="M243 39h6l6 3h5l1 3 9 5 7 24 4 15v3h2l1 5 2 4h-2l7 24 5 17-1 7-5 14 1 4h-2l-4 9-2 2h-2l-10 1-11-1-1 2h-12l1-6 4-11v-6l2-1v-10l-6-21-3-3 1-4-9-31-4-14v-3l-3-1-1-9-1-6h-5l-5-6-2-1v-3Zm26 138"/><path fill="#cfa3f0" d="M515 10h16l3 3v2l4 1 5 2 4 1 2 1 3 11h2v9l2 1 2 11 4 14v3h3l1 9 2 13 2 1 2 3-1 6 2 1 1 7v15l-2 2-1 7-2 2-2 3-3 4-16 2-7 3h-5l-2-1-5 3h-3l-3-6 2-5h2v-3h2l1-6 3-10-7-26-6-20h-2l-1-7-2-10-8-28-11-8-3-2v-2l13-3 2-2h2Zm3 56 1 3Zm46 9 1 2Zm-39 67 1 2Z"/><path fill="#cba2e9" d="m198 49 5 1 11 8 5 3v2l2 1 3 13 2 6h2l2 8v7l2 9 2 1-1 3h2l1 7 8 28 1 7-3 10 2 3-3 1-1 2h-3l-5-18-3-3-1-8-2-10-4-14h-2l-1-4h2l-3-10-3-1-1-5-10-2v2h-14v3l-5 1-8-1-4 1-3-2V86l8-10 2-5 2-4 4-1Zm31 93 1 2Zm1 3 1 2Z"/><path fill="#c9a0e8" d="m478 20 9 6 5 1 2 3 5 3v2l2 1 1 3 1 10 7 24 3 10h2l1 8 4 16 3 3 1 8-5 18-2 1-2-7-1 2h-2l-1-8-1-7-7-25-6-19v-3l-2-1-5-5h-1l-6 1h-11v1l-11-1-1 2h-12v-7l2-5 12-15 2-5 5-5 5-5Zm34 104 1 2Zm1 4"/><path fill="#c39fe0" d="M137 249h7l-1 4 5 1 2 5-7 1v2l-14 2-1 3-3 3-1 5h-2l-1 2h-2l-1 5h-2l-2 4-7 9-7 5-11 14-9 10v3l-1 3h-3l-2 5-4 1-9 11-1 5-3 3v-2l-4 4h-6l-11-3 1-4 5-5 1-4 5-3 7-7 7-8 11-12 14-15 16-17 14-15 1-2h-2v-2h2l1-3h3l2-6 5-1Zm12 5"/><path fill="#c59ee4" d="m126 125 1 2-3 6 1-1 1 3-3 5h-3l-3 7-6 10-1 5-2 1-4 7-2 2H70l-5-3 3-3 2-1 2-3h2l13-9 4-4 9-5 16-12Zm-25 44"/><path fill="#28113a" d="M270 219h8v1h-6v3l8 1 5 3v2l3 1-15 1-5 1-8-1 3-4h2l-1-4 4-1 3 1v-2h-8v-1Zm-1 6 1 3 3-1v-2Zm-1 5"/><path fill="#bf9cdb" d="M597 738h12l-1 4h-7l-3 1-1 3-6 2-1 1h-10l-3-1-7 1h-8v-2l13-1 13-2-3-2 4-1h2v-2h5Zm-2 4"/><path fill="#2e163f" d="M497 188h8v1l-7 1-3 3-2 1 4 1-4 1-3-2-6 1-3 1h-17v-3Zm-27 5"/><path fill="#311846" d="M489 214h8l7 1v1l-12 2h-7l1 3-3 1-5-2-5-1-1 1-10 1-2-1h-7v-1Zm-18 4"/><path fill="#260d39" d="M606 198h8l5 1v1l-9 2-1 3h-7l-7-1h-14l-4-2h9l1-1Zm-2 4"/><path fill="#dcb8f7" d="m79 582 2 2v43l-2 4-1-2-1-12v-12h1Z"/><path fill="#6a4d82" d="m87 177 1 2 15-1 2 1 2 6-2 1-1-6-36 1v2l-19-1 1 3-3 1 1-5 5-2h12l2 1 1-2 19 1Zm-37 6"/><path fill="#cfaceb" d="m372 405 4 1v2l-8 4-1 1h-13l-12-1-4 1-8 1-4-2 12-2h8l4 1 1-2v2l8-2 11-2Z"/><path fill="#1e0830" d="M307 214h7l3 2-3 2h-5l-6 2-1 2h-4l-1-2h-14l-5-1v-1Zm0 1 4 2 1-2Z"/><path fill="#ba9ad2" d="M672 200h6l-2 4-5 5-1-2-3 1-6-1-3-2h-14v-1Z"/><path fill="#9e7db9" d="m693 724 10 1-4 2h-7l-5 4-7 2h-22v-2l17-2 10-2-1-2Zm1 1 4 1Z"/><path fill="#2c123e" d="M431 197h7l-4 4-7 2-5-1v2h-11l-7-2v2h-6l-2-2 23-3Zm-6 2 4 1Z"/><path fill="#371d4a" d="M811 596h1l1 16-1 37-2 5h-1v-16l1-22v-19Zm-1 50 1 2Z"/><path fill="#250d34" d="m625 726 9 1-2 6h-6l-2 1v-2h-18l-4-2 21-3Zm0 1 1 2 2-2Zm-2 3"/><path fill="#a383bb" d="m452 660 1 4-9 1-1 3-4 1h-18l-12 2h-8v-1h5l1-3 1 2 10-1v-2h10l20-3h4Z"/><path fill="#c19bdd" d="m633 719 4 1 6 2 3-1h16l4-1 5-1v3l-10 2h-14l-11 2h-5v-3l5 1v-2l-3-1Zm24 3"/><path fill="#220a35" d="m66 167 2 1h36l-2 4H70l-5-3Zm35 2"/><path fill="#d2aded" d="m516 521 3 1-1 2 3 2-1 1h-30l-2-2h8l12-3Z"/><path fill="#200831" d="M540 182h8l5 1-1 2-5 1v2h-21l-3-3Zm4 3 1 2Zm-4 1"/><path fill="#2a113c" d="M607 173h7l1 3-7 1-5 1-10 1-11 1-11-1v-1l15-2 9 1v-2h5v-1Zm-21 4 4 1Zm-5 1"/><path fill="#e1bdfa" d="M783 107h9l9 1 1 3h-30l-1-3Z"/><path fill="#462b5b" d="m554 512 1 3-23 4-16 3h-8v-1l12-2v-3l21-1 2 1v-2l9-1Z"/><path fill="#8d6fa8" d="m295 250 4 2 1 3h-13l-11 2v2h-11l-3 1-10-1v-1l27-4 2-2h8l5 1Zm-11 3"/><path fill="#422658" d="M694 626h8v1l-13 4h-13l-8 2-7 1h-8v-1l13-2h6v-3l4-1h14Z"/><path fill="#331945" d="M197 229h7l-2 4-7 1-6 1-2 3-2-2-5-1-4 1-5-2v-1l12-2h8v-1Zm-11 5"/><path fill="#deb8fa" d="m322 92 39 1v2h-40l-4-2Z"/><path fill="#dfb9f7" d="M475 431h34v2l-3 1h-13l-14 1v-2l-4-1Z"/><path fill="#9d7bb7" d="M147 258h9l10 1v1l-15 2-4 3-7 1h-10l-1-2 9-1 5-1v-2Zm-12 6"/><path fill="#2c143f" d="m375 230 10 1v1l-19 4h-18l-5-1v-1l26-3h6Zm-23 4"/><path fill="#d4a8f2" d="M321 879h21l-4 3-4 2h-5l-2 2h-7Z"/><path fill="#361f4a" d="M330 242h4v2l12-1 3 1 8-1 3-1 4 2-24 4h-8l-5-1 1-3h2Zm2 4v1h7v-1Z"/><path fill="#b390cd" d="m115 223 2 3 4 15-1 5-3 2 1-4-3-1-2 1 1-13Z"/><path fill="#210b33" d="M254 246h9l2 2-10 3-3 3-4-2-4-1-1 2-9-3v-1Zm-4 4"/><path fill="#26103d" d="M437 310h9l5 1-4 2-5-1-3 1-6 2h-14v1l-8-1 1-3 4-1v2Z"/><path fill="#d8b5f5" d="M251 234h11l4 2v2h-11l-1 1h-18l-4-2h9l5-1Z"/><path fill="#d7b0f4" d="M479 73h8l-1 2-10 1-2 1-3-1v4h-13l-2-2 3-3Z"/><path fill="#2f1844" d="m579 210 13 2v1h-8l-6 2-12 2h-7v-4l19-2Zm-12 4"/><path fill="#3b2152" d="M651 167h6l1 3-5 3-8-1h-9l-7-1v-1Z"/><path fill="#896ba1" d="M461 393h16l-3 2h5l-1 2h-23l-13 2h-8v-1l18-3v-1l9 1Z"/><path fill="#a17eb8" d="m581 342 1 4-1 11-3 1-1 9h-2v6l-3-1v-6h2l1-11 2-4h2Z"/><path fill="#d4aced" d="M234 42h6l2 4-1 1-14 1-2-2-3 4-1-4 1-2Z"/><path fill="#cca6e9" d="m638 629 2 3v3l5-1 25-2-1 2-9 3h-22l-1-5Z"/><path fill="#bb95d5" d="M98 318v3l-3 5-2 4-7 6-7 5v-5h2l2-4 4-1v-2l4-4h2l2-4Zm-16 16"/><path fill="#deb7f8" d="m421 668 29 1v2h-41v-1Z"/><path fill="#362049" d="m393 210 6 1h9l4 2-20 3h-8l-4-1v-2l7-1 6-1Zm6 2v1h5v-1Zm-12 2 4 1Z"/><path fill="#9d7bba" d="M735 719h5l-5 4-11 2h-20l4-2 3-1 12-1Z"/><path fill="#210b33" d="m515 194 5 1-2 3-16 3h-8l-1-4 8-1h6l3-1Zm-10 4"/><path fill="#311646" d="M61 478h1l3 19 1 9v12h-2v-11l-2-6-1-4-1-15Zm1 11 1 3Z"/><path fill="#ddb7fb" d="M418 236h20l12 1v2h-32l-4-2Z"/><path fill="#ddb7f8" d="m455 396 27 1v2h-37l4-2Z"/><path fill="#e1bafc" d="M16 256h1l1 34h-2l-2-7-1-10 1-1 1-15Z"/><path fill="#2d143f" d="M435 758h6v3l-3 1-12 2h-11l-2-2 19-3Zm-1 2"/><path fill="#26103a" d="M381 537h8l7 1v1l-6 1h-10l-5 1-2 1h-7l-4 1-3-2 9-2Zm5 1"/><path fill="#270f39" d="m471 438 9 1-1 2-5-1-4 2-6 1h-11l-5 1h-5l-1 2v-3l17-3 10-1Zm-11 3"/><path fill="#482f5f" d="M532 218h19v1h-5v2h-11l-15 2h-6v-3l6-1h12Zm-8 2 4 1Z"/><path fill="#8d6ea4" d="M307 92h15l-2 4h-5v-1h-10l-8 2 1 5-1 3 2 1-2 3-4-14Zm-11 6"/><path fill="#ab8cc7" d="M135 302h3l3 11-1 6 2 1v8h-2v-3l-3-1v-17l-2-1Zm3 8 1 2Z"/><path fill="#bd9ad7" d="m74 586 2 4 3 4v15h-1l-1 5h-1l-2-20Z"/><path fill="#b693d1" d="m128 836 1 2 2 1-1 3 4 2 3 7 1 3 3 2v2l-6-1-5-10Zm4 10 1 2 1-2Z"/><path fill="#b695cd" d="m106 751 2 2v3h5v11l-3 5-2-2v-7Zm3 16 1 3Zm-1-15"/><path fill="#251035" d="M597 738h12l-1 4h-7l-3 2-13-1 2-2h4v-2h5Zm-2 4"/><path fill="#9977b5" d="m648 732 8 1-3 2-10 1-1 3-9 1-3-1h-8v-1l18-3h6l1-2Z"/><path fill="#debaf8" d="M194 107h12v2h2v2h-23l1-3 8 1Z"/><path fill="#54396d" d="m68 536 2 1 2 22 1 18h-1v-5l-2-1-1-7v-8l-1-2Z"/><path fill="#b292ce" d="M325 248h10v2l-6-1v2l-6 2-9-1-2 1-11-1v-1Zm6 2"/><path fill="#7e5c96" d="m570 123 2 2-1 8-2 2-2 3-3 4-15 1v-1l15-2 1-4 1-2-3 1v-2l4-2Z"/><path fill="#321946" d="M170 86h1v11l18-2h7v1h-6v3l-5 1-8-1-4 1-3-2Z"/><path fill="#c49de1" d="M656 815h9l1 2 7 1v2l-5 1h-10Z"/><path fill="#dcb7f8" d="m577 747 4 1 13 1v2h-26l-2-2Z"/><path fill="#deb7fa" d="m531 652 30 1v2h-32Z"/><path fill="#dfb7fb" d="m603 508 30 1v2h-31Z"/><path fill="#d9b3f5" d="M353 318h4v2l2 1-2 2-7-1v1l-12-1v-3Z"/><path fill="#dcb6f7" d="M450 303h19l1 3-3 1h-11l-6-1Z"/><path fill="#381c4b" d="M719 710h6v1h-5v3l-10 1-1 1h-9l-3-2Zm-3 2"/><path fill="#a081bb" d="M658 241v3l-3 5-1 5-5 3-7 6v-3l4-5 5-5 2-4v-2Z"/><path fill="#b491cf" d="m292 136 3 3 1 7-3 9-2-3-1-14Zm-2 16"/><path fill="#e1b9fb" d="M480 74h6l1 5h-18l2-1v-2l5-1Z"/><path fill="#b790d4" d="M250 894h3l-1 5h5l-4 2-10 1-1-6 5-1Z"/><path fill="#8e6ea6" d="M420 576h2v2h7v1l-25 4h-6l2-1v-2h7l5-3 5 1Z"/><path fill="#e0b8f8" d="M368 447h25v3h-8l-2-1v2l-12-2Z"/><path fill="#9371aa" d="m252 163 1 4 1 3v5h-2v3h8l-1 2h-12l1-6Z"/><path fill="#4a2f5e" d="M475 750h15l2 2h-9l-6 3-13 1-3-2 14-2Zm-6 4"/><path fill="#ab89c6" d="m602 503 2 3 11-1 13-1-2 1v2l-11 2-12-1Z"/><path fill="#8665a1" d="M683 495h5l1 3-2 1h-15l-3 1h-14v-1Z"/><path fill="#9a77b4" d="m769 431 1 2h2l1 8 4 13-1 2-1-3h-5v-15Z"/><path fill="#2f1740" d="M636 415h5l-2 4-8 1h-9l1-3Z"/><path fill="#d6aff0" d="m507 206 14 1v4h-13v-2l-2-2Zm15 1"/><path fill="#cba9e9" d="M592 187h11v4l-3 1-13-1-4-2Z"/><path fill="#dab5f6" d="m681 157 2 2v4l-13 1v-4l-2-1h13Z"/><path fill="#7c5f90" d="m238 40 4 1h-3l-1 2-16 1v5l4 4h-4l-4-5-2-1v-3Z"/><path fill="#2d1241" d="M77 617h1l3 29v7h-1v-6h-2l-1-4v-13l-1-7Zm1 22"/><path fill="#8e70a4" d="m347 321 10 1-1 2-24 3h-6l4-1v-2l5-1 5 1v-2h7Z"/><path fill="#2c123e" d="m117 277 2 1-1 4h-2l-2 4-7 9-5 2 3-5Zm-12 16"/><path fill="#d8b3f4" d="m314 251 6 1-1 3h-19l-1-3h14Z"/><path fill="#ac8cc5" d="m102 280 1 3-4 2-2 6-8 7-4 3-2-1 10-10 7-8Z"/><path fill="#816196" d="m511 124 1 2 5-1 4 1-2 10-2 1-2-7-1 2h-2Zm2 4"/><path fill="#dab0f6" d="M414 862h14l5 2-3 2-10 1 1-2-3 1-1 2-2-1-1-3-3-1Z"/><path fill="#dfb8f9" d="M579 831h20v2l-8 2h-8Z"/><path fill="#371e4b" d="M540 207h7l2 2-3 1v-2h-2l-1 3-17 1-5-1v-1Zm-13 3 4 1Z"/><path fill="#9173a8" d="m404 775 4 1-9 2-1 2-12 1-8-1v-1Z"/><path fill="#270e3e" d="M319 327h7v2l-2 1-16 1-5 1-4-2Z"/><path fill="#2e1641" d="M159 242h10l5 2-4 2-14 1-2-2 5-2Zm10 2"/><path fill="#806397" d="M201 105h7l3 8-1 4-2-8-5-1-9-1v2l-13-1v-1Z"/><path fill="#9a77b7" d="m546 751 4 1h-2l1 3-3 1h-11l-8-1v-1Z"/><path fill="#dbb1f6" d="M734 702h5l1 5-1 1h-9l-2-2 1-3Zm-7 5"/><path fill="#ba95d2" d="M589 627h2l1 14v3l-2 1-10-1 1-2h7l1-3-1-4v-7Z"/><path fill="#a386b7" d="m612 413 2 1 1 2-1 2h6v1l-17 2 2-4Z"/><path fill="#301646" d="M237 902h6l-1 3-14 2-8-1-2-2 4-1h13Zm1 1 4 1Zm-3 1"/><path fill="#785c8f" d="M350 88h8l-2 3h-19v2l-15-1v-1Z"/><path fill="#341a49" d="M320 886h6l-4 2-6 3-14 1-2-2Z"/><path fill="#ddb5f9" d="M504 846h8l4 3-9 2h-5l-2-2-6-1v-1Z"/><path fill="#280e39" d="m528 743 3 1-1 2h-4v2h-10l-5 1-4-3Z"/><path fill="#a184ba" d="m722 314 1 2-5 8-9 9h-2v2l-2-1 7-8Z"/><path fill="#d9b3f3" d="M267 188h11l10 1v2h-18l-7-1Z"/><path fill="#ddb7f9" d="m539 156 22 1 1 2h-24Z"/><path fill="#361a4d" d="m571 838 5 1-3 2-9 2h-14v-1Z"/><path fill="#d8b0f7" d="M103 718h1l1 14v6h-2l-2-4v-13Z"/><path fill="#2e1441" d="M392 583h6v2l-9 2h-7l-2-1v2l-9-1v-1Zm2 1"/><path fill="#8c6ea0" d="m493 433 12 1 1 2h-9l-13 2h-5l2-2 5-2Z"/><path fill="#290e3d" d="M503 567h5l-4 1v2l-9 2h-12v-2Z"/><path fill="#74598a" d="M492 521h2v2l5-1h9l-3 2-11 2-10-1-2-2 9 1Z"/><path fill="#3d2551" d="M495 387h9l4 2-17 2-6 2h-8v-1l12-2 1-2Z"/><path fill="#29113a" d="M307 214h7l3 2-3 2h-5l-2 1-6-1-2 1v-2h-5v-1Zm0 1 4 2 1-2Z"/><path fill="#e1b9fd" d="m664 732 20 1-1 2h-21l-2-2Z"/><path fill="#d6aff1" d="m209 589 3 1-1 4-1 4h2l1-4 2 9h-2l-1 2-1-3h-2Zm2 16"/><path fill="#3f2553" d="m446 459 2 4 1 6 3 1 3 7-2 5-2-3-5-14-1-2Zm6 19"/><path fill="#8868a0" d="m558 468 4 1-2 1-1 4h-2v2l-9 1v-3l7-3Z"/><path fill="#351848" d="M540 182h8l5 1-1 2-5 1-3-1v-2l-5 3-12-1v-1Z"/><path fill="#be9bd9" d="m514 152 5 2 5 1v2l3 1h-5v1h-9Z"/><path fill="#deb6fa" d="m382 780 20 1v2h-23v-2Z"/><path fill="#8868a4" d="M393 671h8v1l-5 1v2h-12l-2 1-10-1v-1Z"/><path fill="#8f6ba7" d="M501 332h3l1 4 3 1v6l2 1-3 4-2-5-2-2-1-1Zm2 4"/><path fill="#9170a6" d="m469 303 12 2 1-1h6l2 2-3 1h-13l-4 1-3-2Zm14 2"/><path fill="#e0b7fb" d="M127 200h2v19l-2 2-1-7 1-2h-2Z"/><path fill="#dcb4f7" d="M239 71h2l1 17-1 2-3-1-1-10h2Z"/><path fill="#8966a0" d="M245 665h5v3h5l2 7h-4l-4-6-5-2Z"/><path fill="#3c224f" d="m478 571 4 1-3 1 2 8h2l3 7v4l-3 1-1-6-4-7Zm3 11"/><path fill="#2e1542" d="m404 490 2 4 3 10-1 7-2-3-3-13Z"/><path fill="#dfbafa" d="m347 412 23 1v2h-21v-2Z"/><path fill="#a885bf" d="m10 262 2 3h3v7l-1 2v9h-1l-3-15Z"/><path fill="#997cb3" d="M552 153h8l-4 3-2 1-18-1v-1Z"/><path fill="#a47fc1" d="m238 89 3 2 1 3h2l2 10-3 4-5-17Z"/><path fill="#351946" d="m667 719 5 1-1 2-10 2h-7l-5-1v-1l13-1 4-1Zm-10 3"/><path fill="#34184a" d="m725 607 2 4 3 11-1 1h-5l1-6-1-9Z"/><path fill="#d9b0f6" d="M322 539h2v5h2v7h-5v-10Z"/><path fill="#270f3a" d="M549 495h1l4 14-1 3-5-2-1-6h2l-1-8Zm1 7 1 2Z"/><path fill="#af89c4" d="m681 452 1 2h3l2 2v10l-2 3-3-11v-3l-2-1Z"/><path fill="#230a36" d="M179 232h10l-1 6-7-3-5 1-5-2v-1Zm7 2"/><path fill="#deb8fa" d="m538 220 22 1 2 2h-22v-2Z"/><path fill="#361d48" d="m529 132 1 4-3 9h7l-5 4h-3l-3-6 2-5h2v-3h2Zm-4 10 1 2Z"/><path fill="#351849" d="M523 847h5l-1 3-2 1-13 1-5-1v-1Z"/><path fill="#b38cd1" d="M160 866h4l2 4-1 2 5 2v3h-3v-2l-4-2-4-4-2-2Z"/><path fill="#ba97d2" d="M123 816h2l1 4 3-1v9h-2l-1 3-3-12Z"/><path fill="#e3bcfb" d="M447 623h2v17l-2 2-2-9 1-1Z"/><path fill="#7c5d93" d="m516 458 1 4 1 5-2 1 2 7-6 2v-8h2l1-8Z"/><path fill="#deb9f8" d="M191 446h2v16l-2 2-1-7-1-4Z"/><path fill="#997db4" d="M434 233h8l-4 2-1 2h-9l-9-1v-1Z"/><path fill="#9976b4" d="m451 767 4 1h-2v2l-4 2-6-2v2l-11-1v-1Z"/><path fill="#ddb6f9" d="m478 764 21 1v2h-22Z"/><path fill="#dfb9f9" d="m499 524 14 1-2 2h-21l-2-2h8Z"/><path fill="#371e4b" d="m523 434 1 4-5 14-2 4-1-6 3-9 3-1Zm-3 7 1 2Zm-1 3"/><path fill="#2f1742" d="m295 250 4 2 1 3h-20v-3h9l5 1Zm-11 3"/><path fill="#3f2855" d="m587 185 5 2v1l-11 2h-10l-3-2 8-1h3Zm-6 2v1h5v-1Z"/><path fill="#2e1542" d="M275 175h9v3h-3l-10 1h-6l-2-2Zm-6 2"/><path fill="#412755" d="M515 10h16l3 3v2l-6-2-10-1-1 1-7-1v-1Z"/><path fill="#826199" d="M338 880h4v2h6l-1 2h-7l-9 2-4-1v-2h6l3-2Z"/><path fill="#351f47" d="m693 724 10 1-4 2h-7l-2 2h-8l3-2-1-2Zm1 1 4 1Z"/><path fill="#9372a8" d="M95 693h2l-1 6-1 7-1 4-2-2-1-14 3 1Zm-2 13"/><path fill="#9976b1" d="m571 372 3 2v7l-5 1v4h-2l-1-3 1-3 2-1Z"/><path fill="#9d7ab2" d="m361 339 1 2 2 1 3 2v8l-2 6-1-3-2-10Z"/><path fill="#2a133b" d="m139 262 10 1-2 2-7 1h-10l-1-2 9-1Zm-4 2"/><path fill="#3a224d" d="m186 256 6 1-2 2-17 1-6-1v-1h9v-1h9Z"/><path fill="#29113a" d="M469 192h12l-2 3-15 1v-3Zm1 1"/><path fill="#81649a" d="m294 180 1 2-2 4-7 2-5-1v2l-11-1v-1l20-3Z"/><path fill="#38204d" d="m629 179 9 2v1l-12 2h-7l4-4Z"/><path fill="#805e9b" d="M421 80h8l-4 2-2 2h-6l-3-1h-13v-1Z"/><path fill="#a07bbc" d="m315 739 5 2 2 4 3 3-5 1-3-1-2-6Z"/><path fill="#ddb4fa" d="M650 718h2v4h-7l-3 1-6-3v-1Z"/><path fill="#e2bafc" d="M239 622h2v19l-2 1-1-6Z"/><path fill="#ab89c4" d="m548 405 1 4-8 7-4 3-2-1Z"/><path fill="#e1bafb" d="M512 342h1l1 20h-2l-1-4-1-6 1-9Z"/><path fill="#9f7db8" d="M713 305h2l-2 5-6 7-1 2-2-1 2-6 4-5h3Z"/><path fill="#745a8c" d="M235 234h16l1 3h-10l-2 1-10-1-2-2h7Z"/><path fill="#dbb4f8" d="M481 203h6l-1 3 3 1v1h-9l-5-1v-3h6Z"/><path fill="#77588d" d="m447 193 14 1-1 2h-5v1h-17l3-3 6 1Z"/><path fill="#deb6fa" d="M441 191h13v2l4 1h-9l-2-1v2l-5-1Z"/><path fill="#9473ad" d="m273 64 2 3 4 15-1 4-1-3-2 2-1-10Z"/><path fill="#301444" d="M440 863h5l-1 2-5 2h-6l-3 1-5-1v-1Z"/><path fill="#2d1341" d="M607 831h5l-1 2-6 2h-6l-2-1v2l-6-1 4-2Z"/><path fill="#250c38" d="M643 499h10v2l-18 2-1-2Z"/><path fill="#a685bf" d="m654 388 2 1-2 3h-3l-2 6h-6l3-5 4-2 2-2Z"/><path fill="#dcb2f9" d="M150 254h12l1 2-6 2h-7Z"/><path fill="#36204a" d="M307 239h6l1 2-8 2-9 1v-2l-4-1h7v-1Zm1 1 4 1Z"/><path fill="#251039" d="M651 167h6l1 3-5 3-5-1-2-2Z"/><path fill="#e0b9fa" d="M304 110h1l1 15-3 2-1-7v-4Z"/><path fill="#ddb5f7" d="M540 735h17l1 3-3 1h-7l-1-2-7-1Z"/><path fill="#4d2e60" d="m497 640 5 3v8l-1 3-3 1v-8Z"/><path fill="#2f1744" d="m435 600 2 3 2 10 2 5v3l-3-1-3-12Zm3 15"/><path fill="#381e4d" d="m321 527 1 2h3l1 3v12h-2l-3-13Zm2 5"/><path fill="#9c79b8" d="m19 296 3 2-1 10v6l-2-4-2-12h2Z"/><path fill="#9573ac" d="M319 210h9l7 1v1l-14 2h-7l4-1Z"/><path fill="#dfb8fa" d="M255 126h2l1 14-4 1-1-5h2Z"/><path fill="#dfb7fc" d="M528 71h1v18l-2 3-1-2 1-18Z"/><path fill="#906baa" d="m293 889 1 2h6v1l-15 3-3 1-1-2 5-2v-2Z"/><path fill="#2d1242" d="M649 823h5l-1 3-13 2-6-1v-1Zm1 1"/><path fill="#2b113e" d="M358 777h6l3 3 11-2v3l-13 1-7-4Z"/><path fill="#533b68" d="m502 756 4 1v3l-17 3-2 1-6-1v-1l18-3h5l-2-1Z"/><path fill="#9270ac" d="m204 558 2 3 3 12v3l-4-1-2 1 1-4 1-4-1-2Z"/><path fill="#6d4d87" d="m324 413 6 1v1l-12 2-2 2-14-1v-1l21-3Z"/><path fill="#361f47" d="m350 409 1 3h-9l-4 1-8 1-4-2 12-2h8l4 1Z"/><path fill="#816098" d="m77 340 2 1-1 6-5 5-4-1 5-5 2-2Z"/><path fill="#a080b9" d="m110 303 3 2-5 6-3 1-3 5-3 1 2-4Z"/><path fill="#220b33" d="m125 250 4 1-3 4-5 5-5 2v-2h2l1-3h3l2-6Zm-2 6"/><path fill="#dcb3f8" d="m272 65 2 3 1 7v11l-2 1-1-17Z"/><path fill="#583b6b" d="M451 54v3l-1 8h11l-1 2h-12v-7l2-5Z"/><path fill="#9a78b3" d="m189 503 2 4 3 10-1 3-2-2-2-3-1-8Z"/><path fill="#8863a7" d="M66 514h3v10l-1 10h-1l-1-10Z"/><path fill="#e3bdfc" d="M415 510h2v16l-2 2-1-7Z"/><path fill="#a583bf" d="m725 291 3 1-9 11h-1v-5Z"/><path fill="#220c35" d="m232 258 3 2h-3v2l-11 1-1-3Z"/><path fill="#8c6ca4" d="M382 227h19v1l-15 2h-7Z"/><path fill="#311845" d="M358 207h6v3l-7 1h-8l-4-2Zm-4 2"/><path fill="#2f1742" d="M586 176h5v3l-9 1-11-1v-1Zm0 1 4 1Zm-5 1"/><path fill="#7b5991" d="M580 60h3l1 3-7 3-5 1v-4l5-2Z"/><path fill="#dcb4fa" d="M713 724h16l-1 3h-13v-2Z"/><path fill="#573c6c" d="m418 666 8 1v1l-17 3h-8v-1h5l1-3 1 2 10-1Z"/><path fill="#8b6e9f" d="m584 442 2 1 2 9-4-4-5 4v-3Z"/><path fill="#ddb5f8" d="M546 311h2l1 7h-1l-1 8-2 1v-15Z"/><path fill="#614476" d="m167 268 7 1-3 2-11 2-3 1-9-1v-1l19-3Z"/><path fill="#210d2f" d="M330 242h4v2h6l-1 2-12 1 1-3h2Zm10 1"/><path fill="#2f1443" d="M486 61h7l3 3 2 5-1 4v-3l-2-1-5-5Z"/><path fill="#8d69a5" d="m419 864 3 1 2 3-15 3-4-1h2l1-2 4 1v-2l5 1Z"/><path fill="#916fa9" d="m497 850 10 1v1l-15 3-4-1h2v-2l4-1Z"/><path fill="#6f5386" d="M580 745h7l-4 3h-3l-18 1v-2l13-1Z"/><path fill="#321846" d="M412 526h3l2 10h-7l3-2-2-5Z"/><path fill="#e2bbfd" d="M207 504h2v13l-1 3h-2l-1-7h2Z"/><path fill="#dcb5f7" d="m178 466 2 4-1 12-2 4v-16Z"/><path fill="#e2befd" d="M63 463h2v15l-3 2Z"/><path fill="#8d6ea5" d="m673 424 5 2 1 3h-2v8l-2-3-1-4-2 1Z"/><path fill="#dbb1f6" d="m419 369 2 2-2 12-2 1-1-6Z"/><path fill="#ceaceb" d="M251 234h11l4 2v2h-7l-5-1v-2Z"/><path fill="#39244b" d="m498 196 5 1v2h5v1l-6 1h-8l-1-4Z"/><path fill="#9075a7" d="M71 162h3l2 1-4 5h12v1H67l1-3 2-1Z"/><path fill="#dbb7f4" d="M783 107h9l9 1 1 3h-9l-3-2-7-1Z"/><path fill="#301642" d="m487 75 4 2 3 11-3 2-3-10Z"/><path fill="#694e81" d="M479 73h8l-1 2-10 1-2 1-15-1v-1Z"/><path fill="#8b67a3" d="m673 714 5 1v2h5l-3 3-6 1-1-3-2-1v-2Z"/><path fill="#86679e" d="m621 569 2 4v4l2 1 1 4-2 2-3-3 1-7h-2Z"/><path fill="#dfb6fb" d="M405 575h17l-3 4-9-1v-2h-5Z"/><path fill="#280e3b" d="M616 551h5l-1 2 2 9-1 2h-2Z"/><path fill="#deb6f9" d="M529 463h10l-1 3-2-1-1 3-4-1-2-1Z"/><path fill="#e4befc" d="M400 454h1v14l-2 2-1-6v-8Z"/><path fill="#543d69" d="m372 405 4 1v2l-9 2-6 1h-8v-1l17-3Z"/><path fill="#2c123f" d="m78 324 2 3-1 3h-3l-2 5-3 1-1-2Zm-2 4"/><path fill="#2b1440" d="M520 219h8l-3 3-11 1v-3Z"/><path fill="#e0b8f9" d="M226 45h16l-1 2-14 1Z"/><path fill="#331849" d="m117 795 2 3 3 11-1 3v-2h-2l-3-10Z"/><path fill="#7c5d96" d="M735 719h5l-5 4h-2v-2l-8 2h-8v-1Z"/><path fill="#361d47" d="m630 602 3 3 2 4 2 5-1 4-2-1-2-7-2-4Zm4 11"/><path fill="#7c5e91" d="m525 562 8 1-1 2-12 1-11 1 2-1v-2h14Z"/><path fill="#a384bc" d="m405 536 4 1-9 3-1 1h-8l-1-2Z"/><path fill="#826398" d="m371 451 10 1v1l-13 2-2 1-3-2h2v-2Z"/><path fill="#321745" d="M87 329h2v3l-5 4-5 5v-5h2l2-4 4-1Zm-5 5"/><path fill="#dbb5fa" d="M593 321h1l-1 14h-3l1-13Z"/><path fill="#36204b" d="M437 310h9l5 1-4 2-5-1-3 1-4 1-3-3Z"/><path fill="#87689e" d="m454 306 11 1v1l-13 2h-7l4-1v-2Z"/><path fill="#311a44" d="M135 302h3l3 11-1 5-2-3-1-8-2-1Zm3 8 1 2Z"/><path fill="#906fa5" d="m563 290 13 1v1l-12 2h-7l4-2Z"/><path fill="#301842" d="M234 224h8l4 2-13 2-5-2v-1Zm1 1"/><path fill="#331746" d="m352 638 5 5 1 10-2 1-4-12Z"/><path fill="#3a1d4c" d="m807 554 2 2v3h2l3 6v5h-2l-4-10Z"/><path fill="#e2befc" d="M47 406h2v14l-2 2-1-6Z"/><path fill="#6a4c7f" d="m161 399 3 2-1 4 2 1-1 3 2 1v8l-1-2h-2l-1-8Z"/><path fill="#e3bcfc" d="M368 342h1v16h-2l-1-6Z"/><path fill="#e0b7fa" d="M563 287h14v3l-6 1-8-3Z"/><path fill="#8e72a9" d="M601 210h8v1l-13 1v2l-7 1-6-1v-1l9-1Z"/><path fill="#362048" d="M567 212h2v2l3 2-13 1v-4Z"/><path fill="#d8b2f4" d="m568 174 3 1v4h-9v-4Z"/><path fill="#ac8bc5" d="m764 114 1 2-2 5-5 5-3-1Z"/><path fill="#301440" d="m573 735 4 1h-2v2l-5 1h-7l-2-2Zm0 1"/><path fill="#deb5fb" d="M516 559h14l-3 3-11-1Z"/><path fill="#e1bbfc" d="m575 364 2 3v13l-2 1-1-14Z"/><path fill="#2d1542" d="m357 325 2 3 2 7-1 5h-2l-2-6 1-5Zm2 11"/><path fill="#9a7fb5" d="M201 265h7l-4 4-9-1-2-2Z"/><path fill="#a786c1" d="m758 253 4 2-3 1-2 4-4 3v-3h2l-1-4Z"/><path fill="#dcb4f8" d="m358 220 9 1 3 2-4 1-10-1Z"/><path fill="#deb6fb" d="M86 180h17l-1 2h-6l-3 1-8-1Z"/><path fill="#e2bbfd" d="M303 159h2v16h-2l-1-13Z"/><path fill="#513367" d="m305 136 2 3 2 9-5 4-1-3 2-4v-5l-1-2Z"/><path fill="#9f7db7" d="M135 131h2v8h-3l-1 4-2-1 2-6Z"/><path fill="#482f59" d="M170 86h1v11h10l2 2h-6l-4 1-3-2Z"/><path fill="#9876b1" d="M521 73h3l-1 5h2l2 3-1 9h-1l-4-14Z"/><path fill="#2a113e" d="M444 75h3v2l4 1-16 1v-2Zm-3 2"/><path fill="#aa84c2" d="m178 876 4 2 5 5-2 1-9-5 2-1Z"/><path fill="#e0b7fb" d="m450 750 11 1v2l2 1h-9l-6-2Z"/><path fill="#755792" d="M694 626h8v1l-13 4-7-1v-1h8v-2Z"/><path fill="#e6bcfd" d="M720 566h1v15h-3l1-14Z"/><path fill="#e4bbfd" d="M222 567h3v13l-3-1Z"/><path fill="#dcb6f5" d="m648 542 9 1 1 2-3 1h-8Z"/><path fill="#240d36" d="m601 493 2 3v2h2l2 5-3 1-3-3-1-6Z"/><path fill="#9876b2" d="m192 471 4 1-1 2-1 1 4 1-2 7-2-3v-3l-2-1Z"/><path fill="#d4aeef" d="m516 467 4 2 3 3-6 2-2-6Z"/><path fill="#7f5f97" d="m753 381 2 2 1 6 2 1 1 8h-4v-8l-2-5Z"/><path fill="#2b143e" d="m373 381 2 4 1 7v4l-2-1-2-8Zm1 8"/><path fill="#e1b9fc" d="M176 385h1v16l-3-1 1-4-1-4Z"/><path fill="#dbb1f7" d="m146 350 2 1v7l-2 5h-1l-1-9Z"/><path fill="#240c36" d="M636 203h5l1 3h-8v1l-8-1v-1Z"/><path fill="#2f1643" d="m570 123 2 2-1 8-2 2h-2l1-6Z"/><path fill="#9978b5" d="m128 836 1 2 2 1-1 3 4 2v2h-2l1 6-2-2-3-11Z"/><path fill="#2a0f3d" d="m748 693 3 1-2 6-4 4-1-3Zm0 2"/><path fill="#3b214e" d="m445 636 2 3 2 7v4l-2-1-3-5Zm0 4"/><path fill="#876aa3" d="m638 629 2 3v3l5-1h7l-4 2-10 1-1-5Z"/><path fill="#2c133f" d="M184 483h2l3 8-1 5-2-2-2-7Z"/><path fill="#9b7baf" d="m397 456 2 3-1 9-2 2-1-13Z"/><path fill="#e5bdfd" d="M687 455h2v14h-3Z"/><path fill="#8b6ba2" d="M690 350v3l-3 8-4-1v2l-4-1h3l2-4Z"/><path fill="#e4bbfc" d="M159 327h2v14h-3Z"/><path fill="#2c1541" d="M21 315h1l2 8-1 7-2-4-1-3v-6Z"/><path fill="#331e45" d="m216 260 3 2 1 2-4 1h-8v-3Z"/><path fill="#997bb3" d="M194 241h9l-1 3-14-1v-1Z"/><path fill="#2f1944" d="M463 227h12v2l-6 1h-9v-2Zm3 1"/><path fill="#77588d" d="m434 220 11 1v1l-7 1-2 1h-11l3-1v-2h6Z"/><path fill="#dab5f7" d="m652 204 10 1-1 2h-10l-4-2Z"/><path fill="#75598d" d="M658 202h8l-3 3h-19v-1Z"/><path fill="#361b49" d="m502 127 4 4v2h2l-1 9-2-4-3-7Z"/><path fill="#a582bf" d="m499 116 2 3 1 8h-2l-2 3v-9Zm-2 14"/><path fill="#d7b0f3" d="M253 895h7l1 3-2 1h-7Z"/><path fill="#ddb4fb" d="M329 879h13l-4 3-3 1-5-1Z"/><path fill="#a47cc0" d="m447 857 6 2 2 3-10 1Z"/><path fill="#84629a" d="m228 642 1 2 2 14-2-2v-3l-3 1 1-11Z"/><path fill="#2a103d" d="M567 643h10l3 2-6 1h-8l-1-2Z"/><path fill="#5c3e78" d="M717 623h7v1l-8 2-3 1-11-1v-1Z"/><path fill="#8a6ca1" d="m179 466 2 3 3 11-1 4-2-5-2-1Z"/><path fill="#3f2457" d="m459 440 4 1-10 2-5 1h-5l-1 2v-3Z"/><path fill="#523565" d="m561 357 2 1 1 2 1 4-3 1 1 4h-2l-1 2v-9Z"/><path fill="#a583c1" d="m63 303 3 1-8 9h-1v-5l2-2h3Z"/><path fill="#a181ba" d="m632 273 2 3-3 1-1 2 2 1-6 4v-4Z"/><path fill="#6d5184" d="m411 235 7 1v3l-15-1-3-2 11 1Z"/><path fill="#2d143f" d="M526 209h11l1 2-5 1h-7l-5-1v-1Zm1 1 4 1Z"/><path fill="#2d1640" d="M456 203h5l2 3h-9l-4 1v-3Z"/><path fill="#7c5b92" d="M148 111h6l-2 1-1 3-5 1v3l-3 1 1-5Z"/><path fill="#65497d" d="m569 93 3 2-1 6 2 1-2 3v-2h-2l-1-6Z"/><path fill="#290f3c" d="M225 83h3l2 8-1 5-2-3-2-6Z"/><path fill="#3a1f4e" d="m560 63 2 3v3h3l1 9-2 1-2-7-2-5Zm4 12 1 2Z"/><path fill="#946eac" d="m365 874 1 2h12v1l-14 2-1-4Z"/><path fill="#deb6fa" d="M665 815h11l-2 1v2h-8Z"/><path fill="#2c1442" d="m100 733 3 3 1 8 1 3-3-1-2-9Zm2 8"/><path fill="#7f6095" d="M563 646h7l-4 2-5 2-10-1v-1Z"/><path fill="#ab88c8" d="m781 620 5 1-2 5-3 4v-6Z"/><path fill="#deb2fa" d="m785 606 3 1 1 7h-4l-1-6Zm2 4"/><path fill="#9470ac" d="m224 588 3 1 1 4 1 1-1 9h-1l-3-12Z"/><path fill="#2a133d" d="m458 496 3 4 1 7-3 1 1-5h-2l-1-6Zm0 4"/><path fill="#826298" d="M787 489h2l2 10-1 2-1-4h-3v-6Zm1 2"/><path fill="#8a68a2" d="m540 462 6 2-3 3-8 1 1-3h2Z"/><path fill="#271139" d="M425 381h2l3 10-3 2-3-11Z"/><path fill="#805e95" d="m581 342 1 4v6l-2 2-1-1-2 2-1-2 1-2h2Z"/><path fill="#210a2f" d="m91 311 4 2 1 4-6 1-1-4Zm1 3"/><path fill="#664b7d" d="M658 241v3l-3 5-1 3-5 1 4-7v-2Z"/><path fill="#70528b" d="M623 207h5l-4 2-4 2h-4l-7-1v-1Z"/><path fill="#816794" d="m238 162 5 1 1 3-3 1-1 2h-3v-6Z"/><path fill="#260e3b" d="M833 131h2l3 8v5l-2-1-3-9Z"/><path fill="#dbb6f4" d="m322 92 9 1-1 2h-9l-4-2Z"/><path fill="#412654" d="m510 77 2 3 2 3 2 3v5l-2 1-2-5-2-6Z"/><path fill="#d1acec" d="M480 74h6v3l-10 1v-3Z"/><path fill="#361b49" d="M357 879h6l-4 3-10 1v-2Z"/><path fill="#a580c1" d="M449 648h3l-2 4 3-1-1 9-2-3Z"/><path fill="#e2bbfb" d="M531 559h14l1 2h-6l-2-1v2h-4v-2Z"/><path fill="#ddb4fb" d="m669 499 1 3-1 1-10-1 1-2Z"/><path fill="#341c47" d="M167 422h3l2 7-1 6h-1l-3-9Zm2 4"/><path fill="#e0bafc" d="M384 397h1v10h-4l2-9Z"/><path fill="#9d7cb5" d="m366 356 1 2h3l1 5-1 3-4-1Z"/><path fill="#b38fcd" d="m685 359 1 3-1 2-5 2-4 1 2-4 5-1v-2Z"/><path fill="#b28ec9" d="M509 344h2v8l-1 4-2-1v-10Z"/><path fill="#906eaa" d="m142 328 2 4 2 9-2-4-4 1Z"/><path fill="#271139" d="m159 242 4 1-1 4h-6l-2-2 5-2Zm4 0"/><path fill="#4c3064" d="m393 82 7 1-3 2h-15v-1Z"/><path fill="#7b5d93" d="m483 24 4 2 5 1 1 3-7-1-3 1Z"/><path fill="#260e38" d="M460 763h5v2l2 1-12 1-1-2Z"/><path fill="#482c5e" d="m648 732 8 1-3 2-13 1v-1h6l1-2Z"/><path fill="#6d4b81" d="M294 706h5l2 8-5-2-1-4Z"/><path fill="#341a4a" d="m85 672 2 4 2 10h-2l-2-7-1-5Z"/><path fill="#2e1541" d="m237 672 5 1 5 4-1 3-9-6Z"/><path fill="#8e6ba9" d="m351 586 7 1 6 1v1l-14 1Z"/><path fill="#b793cd" d="m646 543 3 1v1l5 1v1h-13l1-3Z"/><path fill="#260e3b" d="m305 468 3 2 1 8-2 1-2-5Z"/><path fill="#2f1644" d="M355 455h6l1 2-9 2-4-3Z"/><path fill="#d7b3f5" d="m335 455 10 1-4 2h-9l1-2Z"/><path fill="#260f36" d="M623 417h9l-1 3h-9Z"/><path fill="#ddb7fa" d="M338 319h12l-4 2-2 1h-6Z"/><path fill="#341849" d="M254 246h9l2 2-6 1-4-1-4 1-2-2Z"/><path fill="#a98ac4" d="m566 216 4 1-2 2-17-1v-1Z"/><path fill="#2a123c" d="m557 205 4 1 3 2-3 1h-9v-2l-4-1h9Z"/><path fill="#ddb5fb" d="M583 189h20v2l-3 1-13-1Z"/><path fill="#b08fca" d="M820 184h2l-1 4-5 6h-1v-5h2l1-3h2Z"/><path fill="#cfaae9" d="m254 174 4 1v2h5v1h-11v-3Zm4 0"/><path fill="#c09ed8" d="M834 140h2l2 5v4l-4-1Z"/><path fill="#2c133d" d="m521 108 2 2 1 8-1 5h-1l-1-10-1-4Z"/><path fill="#29113d" d="m351 769 4 2 5 3-3 3-6-6Z"/><path fill="#5e3f72" d="m381 765 1 2h6l-4 3-6-1-1 2-4-2 7-1Z"/><path fill="#66467e" d="m590 639 3 4-3 2-10-1 1-2h7Z"/><path fill="#281039" d="M488 608h3l3 7-2 3-2-1Zm2 5"/><path fill="#684d80" d="M623 504h5l-2 1v2h-16v-1Z"/><path fill="#8966a5" d="M403 315h7l-4 5h-4Z"/><path fill="#8b6ea1" d="m102 280 1 3-4 2-2 4h-2v2l-2-1 7-8Z"/><path fill="#694f82" d="m318 249 4 1-10 3-11-1v-1Z"/><path fill="#3e2351" d="M431 197h7l-4 4-5-1-6-1v-1Z"/><path fill="#8d6ca5" d="m550 179 12 1v1l-7 1h-8Z"/><path fill="#583f6d" d="m681 152 2 3 3 7h-2v2h-7v-1h6l-2-7Z"/><path fill="#4a2f61" d="m216 135 5 5-1 4 1 8-2-3-3-10Z"/><path fill="#67497e" d="m199 92 14 1 2 2-11-1v2l-6-1Z"/><path fill="#301444" d="M483 855h5l1 2-8 2-4-3Z"/><path fill="#2b113b" d="M362 765h2l3 4 4 1v2l-5 1-2-5-2-1Z"/><path fill="#ab86c4" d="m354 650 2 1 3 8-1 4-1-6-3 1Z"/><path fill="#250e37" d="m217 602 2 3 2 9-3-1-2-10Z"/><path fill="#816297" d="m74 586 2 4 1 4-1 10h-1Z"/><path fill="#2e1340" d="M527 470h3v2l-5 3-6-1 3-2Z"/><path fill="#ddb7f9" d="m576 457 2 2-1 4-7 2 1-3 4-1Z"/><path fill="#8d6da8" d="m765 418 2 3 2 9-3-3h-2Z"/><path fill="#a98ac3" d="m704 335 1 2-3 5-2 2-3-1Z"/><path fill="#997db2" d="m640 263 2 3-5 5h-2v2l-2-1Zm2 1"/><path fill="#452958" d="m112 253 2 2-3 3-3 2v2l-3-1 1-4 5-3Z"/><path fill="#261037" d="M314 238h6l2 1h5l-4 2-6 1Z"/><path fill="#dcb3f9" d="M507 206h7l-1 4-5 1v-2l-2-2Z"/><path fill="#cda6eb" d="m293 184 2 1-2 1Zm-4 2 4 1-3 2h-9v-2h7Z"/><path fill="#210b32" d="m595 175 8 1-4 3h-6l-2-2h4Z"/><path fill="#311645" d="m494 31 4 1 1 3 2 1 1 3-2 4-3-8Zm6 7"/><path fill="#7c5b94" d="m386 872 9 1v1l-15 2v-3l6 1Z"/><path fill="#dbb6f9" d="M664 732h6l1 2-2 1h-7l-2-2Z"/><path fill="#e3bcfa" d="M96 696h1v10l-2 2-1-7Z"/><path fill="#dab2f4" d="M574 567h1l1 13-2 2-1-8-1-3Z"/><path fill="#ddb4fa" d="M192 533h2l1 8-1 3-2-1Z"/><path fill="#2a113c" d="M313 497h2l3 6-2 5-2-4Zm1 3"/><path fill="#a07fb7" d="M529 424h1v5l-2 1-4 4 1-5Z"/><path fill="#d9b0f5" d="M475 431h7l4 3-7 1v-2l-4-1Z"/><path fill="#351b49" d="m39 387 1 3 1 12-1-3h-2l-1-10Z"/><path fill="#a07db6" d="m155 331 4 1-1 10-2-4Z"/><path fill="#29113b" d="M482 304h6l2 2-3 1h-7l-3-2Zm1 1"/><path fill="#331947" d="M545 295h5v3l-3 2-2 3-1-7Z"/><path fill="#2e1641" d="M234 249h12v2h-2l-1 2-9-3Z"/><path fill="#d7b6f3" d="M418 236h9l-1 2-8 1-4-2Z"/><path fill="#4b3460" d="M456 228h3l-2 4-7 1h-8v-1l14-1Z"/><path fill="#8d72a6" d="M379 216h8l-4 3-13-1v-1Z"/><path fill="#6d4e87" d="m634 82 5 2 2 5-3 1-2-2v-4h-2Z"/><path fill="#8f6da7" d="m573 68 3 1-1 4h2l1 4-2 4-3-10Z"/><path fill="#1e0931" d="m221 903 10 2-1 2h-7l-5-2Z"/><path fill="#b18cc8" d="m557 735 7 1-3 1v2h-6l-1-3Z"/><path fill="#3d2150" d="M607 729h6l-1 3-10-1v-1Z"/><path fill="#dfb6fb" d="m209 589 3 1-1 10v2h-2Z"/><path fill="#361b4a" d="M392 583h6v2l-2 1-11-1v-1Zm2 1"/><path fill="#321845" d="M565 558h3l2 9h-3Zm3 6"/><path fill="#7f5d97" d="m215 555 1 2h2l1 5-1 2 2 1-2 3-3-10Z"/><path fill="#8766a2" d="M355 543h5l-3 3h-2v2l-3-1-3-3Z"/><path fill="#c7a2e2" d="M379 540h12l1 2-7 1v-1l-6-1Zm5 3"/><path fill="#240c33" d="M520 516h12l-1 2-6 1-6-1Z"/><path fill="#2d1443" d="M55 453h1l2 7v4l-2-1-3-7Z"/><path fill="#a180b8" d="m566 446 1 3-2 4-1 2h-2l1-8Z"/><path fill="#c9a2e7" d="M525 433h1l-1 9-1 2h-2l2-10Z"/><path fill="#361d48" d="m670 412 2 4 1 7h-3l-2-8h2Zm0 4 1 2Zm1 4 1 2Z"/><path fill="#765c8c" d="M461 393h16l-3 2-4 1-9-1Z"/><path fill="#361c4c" d="M305 329h7v2l-9 1-4-2Z"/><path fill="#9575b0" d="M690 329h5l-4 6-2 1Z"/><path fill="#785a91" d="M414 311h2v2l4 1-1 2-8-1 1-3Z"/><path fill="#d4b4f0" d="m193 267 6 1v1l-5 1h-8v-2Z"/><path fill="#d0abed" d="m335 248 2 1v2l-3 2-5-1v-3l6 1Zm-4 2"/><path fill="#ccaceb" d="M442 233h6l-4 2-2 2-5-1 1-2Z"/><path fill="#ceaeeb" d="M551 218h6l-1 2-3 1h-7v-2Z"/><path fill="#3c2052" d="M285 217h8l-3 2-7 1-5-1v-1Z"/><path fill="#614477" d="M255 147h1l1 10-4 4-1-4 2-1Z"/><path fill="#dfbaf9" d="M127 150h2v10h-2l-1-9Z"/><path fill="#9674b0" d="m222 74 2 3 1 2v7h-2l-1-4Z"/><path fill="#9273a7" d="m198 49 3 1h-2l-1 6-5 2 2-5Z"/><path fill="#dcb3f8" d="m545 22 3 1-1 8-2 1-1-8Z"/><path fill="#9c79b2" d="M338 880h4v2h6l-1 2-9-1-2-2Z"/><path fill="#2e1542" d="m162 870 5 2 3 3v2h-3v-2l-4-2Z"/><path fill="#28103a" d="M531 742h6l2 1v2l-3 1-5-1Z"/><path fill="#9a79b4" d="m98 721 3 1 1 6-2 4Z"/><path fill="#b693cf" d="M444 627h3v5l-3 3-1-7Z"/><path fill="#d6b0ef" d="m530 558 1 2h3l1 3h-8v-2Z"/><path fill="#9d7dba" d="m798 525 2 3 1 5-3 1-1-7Z"/><path fill="#331645" d="M63 489h1v13l-3-3Z"/><path fill="#a17ebb" d="m633 385 1 2 2 1-8 4-1-3 5-3Z"/><path fill="#2a123c" d="M501 332h3l1 7-3 1Zm2 4"/><path fill="#b28ecd" d="m701 317 1 2 2 1-5 5-1-5Z"/><path fill="#c09bdc" d="m716 300 2 1-1 4-2 1-2-2Zm-5 5h2v2l-3-1Z"/><path fill="#220b33" d="m118 290 3 1-5 5-2 1 1-5Zm0 2"/><path fill="#85649b" d="m211 225 3 1 5 1v1l-14 1 4-1v-2Z"/><path fill="#381b4d" d="M301 215h5v3h-5l-2 1v-2h-5v-1Z"/><path fill="#5b3e72" d="m107 186 2 4 1 4-3 1v-2h-2l1-6Z"/><path fill="#9e7db9" d="m500 43 2 2 1 8-4-3Z"/><path fill="#3a1f50" d="M305 889h6v2l-9 1-2-2Z"/><path fill="#2a103d" d="m615 728 7 1-2 2h-7v-2Z"/><path fill="#2a113c" d="m251 669 6 5-1 2-4-2-2-4Z"/><path fill="#ddb1fa" d="M496 648h3v8h-3Z"/><path fill="#e0b3fe" d="m802 574 4 2-1 2h-2l-1 4h-1v-7Z"/><path fill="#2f1544" d="m69 565 3 1 1 4v7h-1v-5l-2-1Z"/><path fill="#957ba9" d="m513 471 4 2 1 2-6 2v-5Z"/><path fill="#c6a1df" d="m482 434 4 1-7 3-5-1 4-2Z"/><path fill="#391f52" d="M517 382h1v5l-2 1h-8l4-2 4-2Z"/><path fill="#ddb4f9" d="m739 340 2 4-2 5-1 3h-1v-8Z"/><path fill="#9777af" d="M98 318v3l-3 5-4 1v-2h2l2-4Z"/><path fill="#2e173f" d="m196 254 14 1-1 2h-7l-6-2Z"/><path fill="#7b5e93" d="m295 250 4 2 1 3-9-1 3-1Z"/><path fill="#483060" d="m357 242 7 1-4 2-11 1 3-2 5-1Z"/><path fill="#9d7db6" d="m672 224 1 3-2 6-1-2-3 1 2-4Z"/><path fill="#3a1f4f" d="M255 221h8v1l-5 1-3 2-6-2v-1Z"/><path fill="#250e37" d="M339 219h9l2 2h-6v1h-5Z"/><path fill="#9c7eb8" d="M486 201h13l-2 1v2l-3 1-1-2-7-1Z"/><path fill="#71588a" d="M603 185h8v1l-8 2-9-1v-1Zm-1 3"/><path fill="#59406e" d="m675 175 3 1-2 1-1 2v-2l-5 1h-8v-1Z"/><path fill="#9a79b2" d="m252 163 1 4v4l-3 3-1-2Z"/><path fill="#1d0a2e" d="M664 167h4v4l-7-1-1-2Zm2 2"/><path fill="#240d34" d="m125 132 1 3-3 5-3-1 2-5h3Zm-4 5"/><path fill="#301840" d="m302 125 2 3-1 6-3-4-1-4Zm0 3 1 2Z"/><path fill="#dcb2fa" d="m498 118 1 3-1 9-2-3v-7Z"/><path fill="#9c79b7" d="m241 98 1 2 4 2-2 6-2-4Z"/><path fill="#3a1e4d" d="M595 833h7v2l-5-1v2l-6-1Z"/><path fill="#d9b0fa" d="m620 740 7 1-1 2h-8Z"/><path fill="#29103c" d="M306 730h2v2l4 2v3l-7-5Z"/><path fill="#a986c6" d="m757 669 2 1v5l-3 4v-9Z"/><path fill="#9176a5" d="M809 598h2l-1 5-3 5h-2l2-5Z"/><path fill="#dcb2f8" d="m424 574 5 1v2l-7 1Z"/><path fill="#765888" d="m538 560 11 1-2 2h-12l3-1Z"/><path fill="#87679d" d="m631 546 9 2v1l-13 1Z"/><path fill="#7a5892" d="m649 411 12 1v1l-14 1Z"/><path fill="#9b7cb2" d="M635 400h2l-2 4-7 1 3-3Z"/><path fill="#9876b0" d="m160 350 3 1 1 5-2 4Z"/><path fill="#a583bf" d="m332 323 5 1-3 2-2 1h-6l4-1v-2Z"/><path fill="#deb4fb" d="M129 294h1l1 9h-3v-8Z"/><path fill="#2f1642" d="M132 263h6l-1 3h-7l-1-2Zm3 1"/><path fill="#d9b1f5" d="M14 258h1v7l-4 1v-4h2Z"/><path fill="#dcb4f8" d="M115 242h3l1 3h-2l-1 3-3-2Z"/><path fill="#2a143e" d="M307 239h6l1 2-8 2-1-3Zm1 1 4 1Z"/><path fill="#b294cc" d="m682 213 2 3-4 2v2l-3-1Z"/><path fill="#2f1543" d="M489 214h8l7 1v1l-10 1v-2h-5Z"/><path fill="#210a33" d="m576 211 1 3-8 1 1-3Z"/><path fill="#8c6ba6" d="M104 164h3l-2 4H93v-1l10-1Z"/><path fill="#86649d" d="M744 138h4v2l-5 1v2h-3l-1 2 1-4Z"/><path fill="#8c6da5" d="m557 52 2 3 1 8-4-2Z"/><path fill="#e1bafc" d="M511 23h2v7l-2 1-1-6Zm-1 8 1 4Z"/><path fill="#250e37" d="M515 10h5l1 2-9 1-2-2Z"/><path fill="#381a4b" d="M430 865h8l-4 2-4 1-5-1v-1Z"/><path fill="#dfb7f9" d="m426 862 7 2-3 2h-6Z"/><path fill="#220a36" d="m571 838 5 1-3 2-7 1Z"/><path fill="#331a49" d="M649 823h5l-1 3-4 1-4-2Zm1 1"/><path fill="#deb4fa" d="M128 813h1v6h-2l-1 3-1-4Z"/><path fill="#c8a0e4" d="m358 778 5 2 2 2-8 1Z"/><path fill="#d8adf3" d="m322 747 3 1v3h-7l1-3 3 1Z"/><path fill="#7e5c97" d="m760 694 1 4-2 3h-2v-4h2Zm2 1 2 1-2 1Zm-1 2"/><path fill="#2f1343" d="M772 646h1l-1 7-4 3 2-6Z"/><path fill="#8a6aa2" d="m176 455 2 3 1 8-3-1Z"/><path fill="#2c1440" d="m679 445 2 4-1 4-2-1-1-6Z"/><path fill="#361c4d" d="m52 442 2 4 1 7-2 1-2-8Z"/><path fill="#9373aa" d="m618 394 4 2-3 3h-3l1-4Z"/><path fill="#755689" d="m47 379 1 2-3 5-3 1 1-6Zm-3 3"/><path fill="#c09cdb" d="M153 378h2v2h2l-1 4-3 1Z"/><path fill="#9476ac" d="m65 357 1 2-4 7-3-1Z"/><path fill="#aa87c4" d="m79 285 3 2-6 5 1-5Z"/><path fill="#c29edd" d="M220 263h4v2l-7 2-3-2Z"/><path fill="#2c153e" d="m226 259 1 4h-6l-1-3Z"/><path fill="#1f0b31" d="m186 256 6 1-2 2h-8l1-2Z"/><path fill="#765a8e" d="m666 232 1 3-4 2v2l-3-1 1-3Z"/><path fill="#1d072e" d="M183 232h6l-1 6-5-5Zm3 2"/><path fill="#2c1642" d="m796 214 3 3-5 3h-2l2-4Zm-1 2"/><path fill="#886a9f" d="m704 186 1 2-3 5-4 2 2-4Z"/><path fill="#83639b" d="m516 184 7 1-4 3-6-1 3-1Z"/><path fill="#311848" d="M644 168h6l-1 2-4 2h-5l2-2 2 1Z"/><path fill="#d7aff3" d="m212 125 2 3-1 6h-2Z"/><path fill="#a37fbb" d="M229 124h1v5h-2v5l-2-4v-3h2Z"/><path fill="#d9b8f7" d="m571 106 2 3v6h-3Z"/><path fill="#d8b2f1" d="m228 43 2 1-6 3-2 3-1-4 1-2Z"/><path fill="#4e3262" d="M254 42h6l1 3 2 2-3 1-3-3-3-1Z"/><path fill="#ddb3f9" d="m212 894 5 1-1 4-3-1Z"/><path fill="#341b47" d="M410 772h7l2 2-10 1Z"/><path fill="#76588f" d="M439 769h5l-1 3-11-1v-1Z"/><path fill="#8a6ba0" d="m106 751 2 2v3h2l-1 7h-1Zm2 1"/><path fill="#9a77b2" d="M319 743h2l4 5-5 1-2-5Z"/><path fill="#815e98" d="m631 723 11 1v1l-11 1Z"/><path fill="#8d6aa5" d="m765 685 1 4-3 3-1-2Zm2 1 2 1h-3Z"/><path fill="#e0b5fd" d="M769 638h2v7l-2 1-1-6Z"/><path fill="#b18cca" d="M420 576h2v2h7v1h-10l-2-2Z"/><path fill="#321844" d="m711 557 2 4-1 4-3-4Z"/><path fill="#3e2451" d="m199 540 3 1 1 7-2 1-2-5Z"/><path fill="#d0a7ed" d="m788 499 3 2-1 5h-3Z"/><path fill="#a07cbb" d="m403 480 2 2-1 8-2-4Z"/><path fill="#381f49" d="M543 476h2l1 8-2 2-1-6Zm1 5"/><path fill="#87669f" d="m773 445 2 3 2 8-2-1v-2l-3-1 2-1Z"/><path fill="#321642" d="m514 424 2 1-1 5-3 2 1-6Zm-1 5"/><path fill="#906fa7" d="m369 367 1 2h2l1 4-2 4Z"/><path fill="#2e133f" d="m275 358 2 3 1 3-3 3-1-7Zm0 5"/><path fill="#644778" d="M142 273h5l-3 2-2 1-2 3-1-5Z"/><path fill="#8d6ea8" d="M659 222v3l-5 5 1-5 1-2Z"/><path fill="#2f1643" d="M468 217h9l2 1-1 2-10-2Z"/><path fill="#200a32" d="m393 210 4 1 4 3h-7Zm2 1"/><path fill="#ba96d2" d="M828 173h2l1 4-4 3Z"/><path fill="#2c153f" d="M535 144h7l3 2-9 1Z"/><path fill="#8a6ba0" d="m120 129 2 1v2l-6 3-2-1Z"/><path fill="#8c6ba7" d="m671 115 2 4v5l-3-1Z"/><path fill="#8f6eaa" d="M359 87h12l-2 3-10-2Z"/><path fill="#ad87ca" d="m630 79 4 3v2l2 1-2 1-4-3Z"/><path fill="#2d1340" d="m543 18 4 1 2 1-1 4-6-4Z"/><path fill="#290e3c" d="M275 895h5l-1 2-2-1v2h-5l-1-2Z"/><path fill="#84629c" d="m293 889 1 2h6v1l-11 1Z"/><path fill="#ddb0fd" d="m156 862 6 1v3l-5-1Z"/><path fill="#deb8fa" d="M129 827h1v7h-2l-1-6Z"/><path fill="#cea9ed" d="m495 761 1 4h-7l3-3Z"/><path fill="#7b6093" d="M487 761h8v1l-8 2-6-1v-1Z"/><path fill="#513765" d="m685 726 7 1-2 2h-8Z"/><path fill="#29123a" d="m667 719 5 1-1 2-6 1 1-3Z"/><path fill="#9271ab" d="m803 687 3 1-2 6h-2Z"/><path fill="#b38ed0" d="M274 684h2v7l-4-4v-2Z"/><path fill="#2b1241" d="m725 607 2 4-1 5-2-3v-5Z"/><path fill="#a27fbc" d="M790 607h3l-2 5-2 2-1-5h2Zm-3 3"/><path fill="#88679f" d="m595 479 2 3 1 7h-3Z"/><path fill="#8f6ea3" d="m383 449 10 1v1l-11 1Z"/><path fill="#614971" d="m605 417 7 2v1l-9 1Z"/><path fill="#a988c2" d="M592 411h2l-1 4-3 3-1-4 3-1Z"/><path fill="#251036" d="M331 411h6l-3 3-8-1v-1Z"/><path fill="#29103a" d="m409 328 4 4 1 3-3 2Z"/><path fill="#301845" d="M319 327h7v2l-2 1h-6Z"/><path fill="#a788be" d="m606 304 1 4-4 3-2-1Z"/><path fill="#241037" d="m220 235 5 1 2 2-9-1Z"/><path fill="#d6b0ee" d="M214 224h5l1 3h-8l2-1Z"/><path fill="#82689c" d="M543 218h8v1h-5v2l-7-1Z"/><path fill="#1f0931" d="M487 215h7v2l-2 1h-6Z"/><path fill="#9272a7" d="m123 207 2 1v4h2l-1 6-2-4Z"/><path fill="#210c35" d="M571 187h5l1 3-9-1Z"/><path fill="#1d062f" d="M99 168h5l-2 4-4-1Zm2 1"/><path fill="#240d35" d="m304 152 1 2-2 3-3 3-1-2 3-5Z"/><path fill="#dfb4fb" d="m661 107 2 1v3h-7v-2h5Z"/><path fill="#b999d2" d="M792 107h12v3l-12-2Z"/><path fill="#270d39" d="m215 95 3 2-1 5-2-1-1-5Z"/><path fill="#8c70a3" d="M350 88h8l-2 3-6-1Z"/><path fill="#2c113c" d="m184 66 2 2-5 5-1-3Z"/><path fill="#d1a9ef" d="M496 40h4l-1 5-3 1Z"/><path fill="#200b2e" d="M329 239h7l-1 2h-6Z"/><path fill="#210e30" d="m614 180 5 1-1 2h-5Z"/><path fill="#1e0a2d" d="m45 327 2 1-5 5 1-4Z"/><path fill="#220f2f" d="m497 756 4 2-6 1 2-1Z"/><path fill="#210d2e" d="M446 229h5l-2 2h-3Z"/><path fill="#1f092e" d="M635 733h4v2l-4-1Z"/><path fill="#1e0a2e" d="m540 399 2 1-1 2-3-1Z"/><path fill="#200a2e" d="m315 726 3 3h-3Z"/><path fill="#1f0e2e" d="m489 604 2 1-1 3Z"/><path fill="#220e30" d="m621 271 2 1-1 2h-2Z"/><path fill="#200c2e" d="m336 240 3 1h-2v2l-2-1Z"/><path fill="#1d0c2d" d="M512 754h2v2l-3-1Z"/><path fill="#210b2f" d="M640 733h5v1h-5Z"/><path fill="#200b2f" d="m714 716 3 1-3 1Z"/><path fill="#1e0a2d" d="m278 695 3 1-1 2Z"/><path fill="#1f0a2d" d="m404 583 4 1-3 1Z"/><path fill="#1f092d" d="m670 359 2 1-3 2Z"/><path fill="#20092d" d="m85 319 1 3h-2Z"/><path fill="#1e072e" d="M74 296h2l-1 3Z"/><path fill="#1e082d" d="m90 280 2 4-2-1Z"/><path fill="#1f0b2e" d="m369 235 4 1-2 1Z"/><path fill="#1f0b2d" d="M438 223h5v1h-5Z"/><path fill="#200d2d" d="m504 193 4 1-2 1Z"/><path fill="#210d2e" d="m525 96 2 4-2-1Z"/><path fill="#1f0b2d" d="m527 747 4 1Z"/><path fill="#1f082d" d="m719 717 4 1Z"/><path fill="#210c2f" d="m497 436 4 1Z"/><path fill="#1f092d" d="m46 336 2 2-2 1Z"/><path fill="#1e0c2f" d="M119 247v3Z"/><path fill="#1e092d" d="m248 224 4 1Z"/><path fill="#1e0a2d" d="m364 208 3 1h-3Z"/><path fill="#200b2e" d="M374 207h3l-1 2Z"/><path fill="#1f0c2d" d="m692 197 2 1h-3Z"/><path fill="#210f2d" d="m491 196 2 1h-3Z"/><path fill="#1e0d2d" d="M499 191h2v2h-2Z"/><path fill="#1d0b2d" d="m537 189 4 1Z"/><path fill="#1e0b2d" d="m603 181 3 1h-3Z"/><path fill="#1e0b2e" d="m471 762 3 1Z"/><path fill="#1f0c2e" d="m632 733 1 2-2-1Z"/><path fill="#210c2f" d="m318 729 2 2h-2Z"/><path fill="#21082f" d="M716 715h2l-1 2Z"/><path fill="#1c082d" d="m527 650 3 1Z"/><path fill="#200b2f" d="m628 589 2 2h-2Z"/><path fill="#220b2f" d="M627 585"/><path fill="#1f0d2e" d="M181 435"/><path fill="#1e0a2d" d="m438 396 3 1Z"/><path fill="#200d2e" d="m748 357 2 2h-2Z"/><path fill="#1d082d" d="m33 340 1 2-2-1Z"/><path fill="#1d092d" d="m37 336 1 2-2-1Z"/><path fill="#1d0b2e" d="M549 307"/><path fill="#21102e" d="M604 302h2l-1 2Z"/><path fill="#200a2e" d="m92 280 2 2h-2Z"/><path fill="#1e0d2d" d="m172 267 3 1Z"/><path fill="#1e0e2d" d="m210 237 3 1Z"/><path fill="#1e082e" d="m779 235 1 2-2-1Z"/><path fill="#1e0a2d" d="m406 235 3 1Z"/><path fill="#1d0d2e" d="m231 234 3 1Z"/><path fill="#1d092d" d="m304 219 3 1Z"/><path fill="#1f0b2e" d="m566 209 1 2-2-1Z"/><path fill="#1f0d2d" d="M387 207h2l-1 2Z"/><path fill="#200d2d" d="m619 179 2 2h-2Z"/><path fill="#1a092d" d="m290 163 2 2h-2Z"/><path fill="#1e0d2f" d="M252 143"/><path fill="#1d072d" d="M304 140"/><path fill="#1f0a2e" d="M243 140"/><path fill="#1f092d" d="M507 59"/><path fill="#220f2f" d="m151 866 2 1Z"/><path fill="#1e0d2d" d="m403 773 2 1Z"/><path fill="#200d2d" d="m451 765 2 1Z"/><path fill="#200e2d" d="M501 754"/><path fill="#210c2d" d="m534 746 2 1Z"/><path fill="#1c0b2f" d="m612 738 2 1Z"/><path fill="#200d2d" d="m618 732 2 1Z"/><path fill="#20052d" d="m725 711 2 1Z"/><path fill="#1e092d" d="M233 661"/><path fill="#1f0c30" d="m524 650 2 1Z"/><path fill="#1d072d" d="M76 630"/><path fill="#1f0b2d" d="M717 585"/><path fill="#1c092d" d="M541 513"/><path fill="#210f2e" d="M684 470"/><path fill="#21112e" d="M188 463"/><path fill="#1d0d2e" d="M289 405"/><path fill="#200b30" d="M666 363"/><path fill="#210c2e" d="M365 359"/><path fill="#1f0b2e" d="M149 348"/><path fill="#200d30" d="M413 336"/><path fill="#1f0b2e" d="M556 333"/><path fill="#1c062d" d="M697 328"/><path fill="#1e0a2f" d="M500 328"/><path fill="#1f0c2d" d="m332 327 2 1Z"/><path fill="#220a2d" d="M59 316"/><path fill="#1f0b2e" d="m108 300 2 1Z"/><path fill="#1e092e" d="M123 284"/><path fill="#220e2e" d="M12 283"/><path fill="#200a2d" d="M97 272"/><path fill="#200c2e" d="M99 269"/><path fill="#1b0a2d" d="m633 256 2 1Z"/><path fill="#1c0b2d" d="m275 253 2 1Z"/><path fill="#1e0d2d" d="m291 251 2 1Z"/><path fill="#1b092e" d="m299 250 2 1Z"/><path fill="#1c0b2d" d="M144 245"/><path fill="#1d072d" d="m138 239 2 1Z"/><path fill="#1b0a2e" d="m388 238 2 1Z"/><path fill="#210f2d" d="M448 223"/><path fill="#1b0a2d" d="m500 222 2 1Z"/><path fill="#1d0a2d" d="m304 221 2 1Z"/><path fill="#1e0a2d" d="m335 220 2 1Z"/><path fill="#1a092d" d="m349 218 2 1Z"/><path fill="#200d2d" d="m385 208 2 1Z"/><path fill="#1e0a2d" d="m436 206 2 1Z"/><path fill="#1f0b2e" d="m642 203 2 1Z"/><path fill="#1c082d" d="m611 203 2 1Z"/><path fill="#1e0a2d" d="m512 194 2 1Z"/><path fill="#210c2d" d="m699 189 2 1Z"/><path fill="#1d092d" d="m563 189 2 1Z"/><path fill="#1c082d" d="m557 189 2 1Z"/><path fill="#1f0b2e" d="m617 178 2 1Z"/><path fill="#1d092d" d="m243 160 2 1Z"/><path fill="#1f0a2e" d="M510 120"/><path fill="#1e0a2d" d="m244 119 2 1Z"/><path fill="#1f0e2e" d="m311 91 2 1Z"/><path fill="#1f0a2e" d="M226 81"/><path fill="#1d082d" d="M572 71"/><path fill="#1d0c2d" d="M229 63"/><path fill="#1f0c2d" d="m187 61 2 1Z"/><path fill="#1e092d" d="m589 59 2 1Z"/><path fill="#1e0b2d" d="M480 19"/><path fill="#1d072d" d="M433 867"/><path fill="#1f0b2e" d="M136 857"/><path fill="#1d072d" d="M598 835"/><path fill="#1f092d" d="M359 764"/><path fill="#23102e" d="M442 760"/><path fill="#1f092d" d="M441 759"/><path fill="#200d2d" d="M483 753"/><path fill="#210c2d" d="M484 752"/><path fill="#1f092d" d="M345 752"/><path fill="#200d2d" d="M534 749"/><path fill="#1e0d2d" d="M531 749"/><path fill="#1d092e" d="M328 749"/><path fill="#1e0a2d" d="M523 748"/><path fill="#210e2e" d="M558 747"/><path fill="#210c2d" d="M531 746"/><path fill="#220a2e" d="M337 745"/><path fill="#1e0a2d" d="M332 744"/><path fill="#220f2d" d="M593 738"/><path fill="#210c2d" d="M579 736"/><path fill="#1d0c2e" d="M634 734"/><path fill="#210c2d" d="M630 733"/><path fill="#1f0e2e" d="M682 726"/><path fill="#200d2d" d="M313 726"/><path fill="#1f062d" d="M293 719"/><path fill="#1f092d" d="M726 717"/><path fill="#21092d" d="M722 715"/><path fill="#240b32" d="M295 709"/><path fill="#200a2e" d="M284 709"/><path fill="#1e082e" d="M292 706"/><path fill="#1e0a2d" d="M276 700"/><path fill="#1f092d" d="M277 698"/><path fill="#200a2e" d="M277 694"/><path fill="#1e0a2f" d="M254 685"/><path fill="#200c2f" d="M247 675"/><path fill="#210e2e" d="M404 668"/><path fill="#21082f" d="M772 667"/><path fill="#210e2e" d="M412 667"/><path fill="#1e0d2d" d="M413 666"/><path fill="#22122f" d="M423 665"/><path fill="#200a2e" d="M78 648"/><path fill="#1e0a2d" d="M229 646"/><path fill="#220f2d" d="M558 645"/><path fill="#200d2d" d="M237 645"/><path fill="#1c0b2d" d="M225 631"/><path fill="#210d30" d="M795 623"/><path fill="#1f0e2e" d="M582 618"/><path fill="#1f092d" d="M347 614"/><path fill="#1c082d" d="M228 610"/><path fill="#1f0b2e" d="M431 592"/><path fill="#220f2d" d="M430 591"/><path fill="#210c2d" d="M72 587"/><path fill="#200d2d" d="M573 585"/><path fill="#210e2e" d="M403 584"/><path fill="#210c2d" d="M626 582"/><path fill="#200d2d" d="M572 582"/><path fill="#220f2f" d="M212 582"/><path fill="#200a2e" d="M505 569"/><path fill="#220f2d" d="M513 568"/><path fill="#1f0b2e" d="M568 567"/><path fill="#1e0a2d" d="M515 567"/><path fill="#1f0e2e" d="M557 561"/><path fill="#200d2d" d="M214 560"/><path fill="#1c0b2d" d="M354 542"/><path fill="#200f2f" d="M206 531"/><path fill="#20102d" d="M205 528"/><path fill="#1d092e" d="M489 522"/><path fill="#1f092d" d="M487 522"/><path fill="#1d072d" d="M796 512"/><path fill="#1f0e2e" d="M624 502"/><path fill="#200d2d" d="M462 501"/><path fill="#1f0b2e" d="M198 499"/><path fill="#1b0a2e" d="M547 494"/><path fill="#200d2d" d="M596 477"/><path fill="#200f2f" d="M544 474"/><path fill="#210e2e" d="M190 469"/><path fill="#23102e" d="M683 466"/><path fill="#1a092d" d="M781 465"/><path fill="#20102d" d="M680 456"/><path fill="#1e0d2d" d="M369 455"/><path fill="#1e0a2d" d="M177 453"/><path fill="#1e0d2f" d="M177 451"/><path fill="#1e0a2d" d="M677 444"/><path fill="#1d092e" d="M581 444"/><path fill="#200c2f" d="M574 440"/><path fill="#1f0b2e" d="M481 439"/><path fill="#1d072d" d="M577 436"/><path fill="#210e2e" d="M180 432"/><path fill="#21112e" d="M174 426"/><path fill="#20102d" d="M588 424"/><path fill="#200d2d" d="M643 416"/><path fill="#1f092d" d="M535 416"/><path fill="#1f0b2e" d="M537 414"/><path fill="#200d2d" d="M291 412"/><path fill="#1c0b2d" d="M290 411"/><path fill="#1c082d" d="M531 408"/><path fill="#1f0b2e" d="M172 403"/><path fill="#200a30" d="M553 398"/><path fill="#1f0b30" d="M554 397"/><path fill="#210d32" d="M555 396"/><path fill="#1e0a2f" d="M625 395"/><path fill="#1c082d" d="M556 395"/><path fill="#1e0a2d" d="M546 393"/><path fill="#1e0a2f" d="M629 392"/><path fill="#1d092e" d="M547 392"/><path fill="#220f2d" d="M486 389"/><path fill="#1c082d" d="M655 386"/><path fill="#1a092d" d="M659 383"/><path fill="#1c0d2e" d="M515 382"/><path fill="#1d0c2e" d="M371 382"/><path fill="#1d082f" d="M661 381"/><path fill="#1c082d" d="M166 380"/><path fill="#1e0d2d" d="M45 379"/><path fill="#1d0e2d" d="M164 375"/><path fill="#1d072d" d="M55 367"/><path fill="#200c2f" d="M421 365"/><path fill="#220d2e" d="M563 358"/><path fill="#1d072d" d="M63 357"/><path fill="#210c2d" d="M158 351"/><path fill="#200a2e" d="M41 344"/><path fill="#1f092d" d="M42 343"/><path fill="#1d092e" d="M580 341"/><path fill="#1d072e" d="M66 341"/><path fill="#1d072d" d="M45 339"/><path fill="#1e0a2f" d="M34 339"/><path fill="#1f092f" d="M69 338"/><path fill="#1c082d" d="M49 335"/><path fill="#20112e" d="M414 333"/><path fill="#1f0b30" d="M51 333"/><path fill="#1d092e" d="M53 331"/><path fill="#220f2d" d="M47 329"/><path fill="#1c062d" d="M698 327"/><path fill="#200d2d" d="M410 327"/><path fill="#220f2d" d="M335 327"/><path fill="#1f092d" d="M83 322"/><path fill="#1e0d2d" d="M149 318"/><path fill="#200a2e" d="M93 318"/><path fill="#230b2d" d="M61 318"/><path fill="#1f092d" d="M64 317"/><path fill="#21092d" d="M60 315"/><path fill="#1f092d" d="M103 309"/><path fill="#200f2f" d="M467 308"/><path fill="#210c2d" d="M102 308"/><path fill="#200a2e" d="M100 308"/><path fill="#1c072e" d="M717 305"/><path fill="#200d2d" d="M491 305"/><path fill="#1e0a2f" d="M718 304"/><path fill="#1e0a2d" d="M100 304"/><path fill="#200a2e" d="M108 302"/><path fill="#1c082d" d="M99 302"/><path fill="#20072e" d="M76 299"/><path fill="#1d072d" d="M113 297"/><path fill="#1e0a2d" d="M614 292"/><path fill="#210d30" d="M615 291"/><path fill="#200a30" d="M616 290"/><path fill="#210d30" d="M617 289"/><path fill="#1f092f" d="M121 288"/><path fill="#1f092d" d="M84 288"/><path fill="#210c2d" d="M93 284"/><path fill="#1d072d" d="M91 279"/><path fill="#1e082e" d="M105 262"/><path fill="#1c082d" d="M641 259"/><path fill="#200d2d" d="M203 257"/><path fill="#20102d" d="M210 256"/><path fill="#200d2d" d="M122 252"/><path fill="#1f092d" d="M115 252"/><path fill="#210e2e" d="M123 250"/><path fill="#1d082f" d="M642 245"/><path fill="#1e0d2d" d="M147 245"/><path fill="#1d0b31" d="M643 244"/><path fill="#1e0d31" d="M644 243"/><path fill="#1e0d2f" d="M347 243"/><path fill="#1e0d2d" d="M151 243"/><path fill="#1e0a2d" d="M122 243"/><path fill="#1c0b2d" d="M645 242"/><path fill="#200d2d" d="M343 241"/><path fill="#1e0a2d" d="M315 241"/><path fill="#200d2d" d="M148 240"/><path fill="#1f0b2e" d="M137 240"/><path fill="#1f0e2e" d="M143 239"/><path fill="#1c0b2d" d="M192 237"/><path fill="#200d2d" d="M376 235"/><path fill="#1f0e2e" d="M226 235"/><path fill="#1f0b2e" d="M192 235"/><path fill="#1e0d2f" d="M416 234"/><path fill="#1b0c2d" d="M414 234"/><path fill="#1e0a2d" d="M200 234"/><path fill="#1e0930" d="M654 231"/><path fill="#20102d" d="M442 230"/><path fill="#200d2d" d="M24 229"/><path fill="#1a092d" d="M286 227"/><path fill="#1c0b2f" d="M473 226"/><path fill="#1f0b2e" d="M263 224"/><path fill="#1e0a2d" d="M261 223"/><path fill="#1c0b2d" d="M492 222"/><path fill="#1a092d" d="M793 220"/><path fill="#1e0a2d" d="M489 219"/><path fill="#1c082d" d="M473 219"/><path fill="#200a2e" d="M115 217"/><path fill="#200d2d" d="M327 215"/><path fill="#1e0a2d" d="M318 215"/><path fill="#1d0e2d" d="M338 212"/><path fill="#200d2d" d="M564 211"/><path fill="#210e2e" d="M389 210"/><path fill="#1d0c2e" d="M585 209"/><path fill="#1c0b2d" d="M583 209"/><path fill="#200d2d" d="M568 209"/><path fill="#1a092d" d="M620 206"/><path fill="#1d092e" d="M599 204"/><path fill="#210e2e" d="M419 204"/><path fill="#1d0c2e" d="M467 202"/><path fill="#1e0d2d" d="M37 201"/><path fill="#1e0a2d" d="M627 200"/><path fill="#200d2d" d="M437 199"/><path fill="#200c31" d="M694 196"/><path fill="#20102d" d="M488 195"/><path fill="#200d2d" d="M503 194"/><path fill="#1d092e" d="M658 193"/><path fill="#1c0b2d" d="M519 193"/><path fill="#200d2d" d="M507 191"/><path fill="#1e0a2d" d="M543 189"/><path fill="#20102d" d="M43 189"/><path fill="#1c082d" d="M254 188"/><path fill="#1d072d" d="M522 187"/><path fill="#1c062d" d="M520 187"/><path fill="#1c082d" d="M241 187"/><path fill="#1e0a2d" d="M554 183"/><path fill="#1c0b2f" d="M635 179"/><path fill="#200c31" d="M293 179"/><path fill="#200a2e" d="M623 175"/><path fill="#1f092d" d="M620 175"/><path fill="#200a2e" d="M246 175"/><path fill="#1a092d" d="M674 174"/><path fill="#1e0d2d" d="M286 174"/><path fill="#1f0b2e" d="M247 173"/><path fill="#1b0c2d" d="M656 172"/><path fill="#200d2d" d="M246 172"/><path fill="#1d0c2e" d="M659 170"/><path fill="#200d2d" d="M243 167"/><path fill="#1d092e" d="M291 162"/><path fill="#1e0a2d" d="M292 161"/><path fill="#1c082d" d="M292 158"/><path fill="#1c0b2d" d="M568 149"/><path fill="#1e0d2d" d="M253 147"/><path fill="#1c082d" d="M221 147"/><path fill="#200c2f" d="M534 146"/><path fill="#1c0b2d" d="M221 145"/><path fill="#1f0b2e" d="M551 144"/><path fill="#1c0b2d" d="M118 144"/><path fill="#1d072d" d="M556 143"/><path fill="#1b0a2e" d="M220 143"/><path fill="#1d072d" d="M218 137"/><path fill="#1d092e" d="M303 135"/><path fill="#1c082d" d="M677 131"/><path fill="#1e0a2d" d="M572 125"/><path fill="#1e0d2f" d="M825 123"/><path fill="#1d072d" d="M523 123"/><path fill="#200d2d" d="M524 121"/><path fill="#1f092f" d="M222 120"/><path fill="#210c2d" d="M524 118"/><path fill="#1e0d2d" d="M509 118"/><path fill="#1f0b2e" d="M221 117"/><path fill="#1c0b2d" d="M244 116"/><path fill="#1e0a2d" d="M583 110"/><path fill="#1c0b2d" d="M171 107"/><path fill="#1e0d2d" d="M167 107"/><path fill="#1c082d" d="M582 106"/><path fill="#1e0a2d" d="M294 104"/><path fill="#1c0b2f" d="M657 100"/><path fill="#1e0a2f" d="M238 95"/><path fill="#1f0e2e" d="M317 90"/><path fill="#1d092e" d="M372 84"/><path fill="#200d2d" d="M575 83"/><path fill="#1e0a2d" d="M574 78"/><path fill="#1c0b2d" d="M451 75"/><path fill="#1f0b2e" d="M277 73"/><path fill="#200d2d" d="M462 66"/><path fill="#1e0d2d" d="M610 59"/><path fill="#20102d" d="M188 59"/><path fill="#1e0a2d" d="M502 25"/><path fill="#1f0b2e" d="M499 23"/></svg>