<?xml version="1.0" encoding="utf-8" ?><svg xmlns="http://www.w3.org/2000/svg" xmlns:xlink="http://www.w3.org/1999/xlink" width="1024" height="1024" viewBox="0 0 1024 1024"><path fill="#37125E" d="M560.992 65.2569C578.99 61.6722 597.114 58.7563 615.328 56.5152C621.933 59.7031 639.067 67.7672 644.33 71.7372C647.217 79.0556 654.102 102.223 656.129 110.256C664.57 108.681 689.34 105.981 697.406 105.965C705.607 111.38 763.638 158.643 766.447 163.499C770.831 171.078 780.896 212.594 782.975 223.005C783.14 223.831 783.251 224.64 783.358 225.475C781.083 229.5 771.933 240.407 772.429 244.025C772.953 244.195 774.2 244.824 774.592 244.428C784.895 234.011 794.17 221.826 803.436 210.385C819.076 191.074 835.914 172.654 851.676 153.495C865.308 152.612 878.973 152.316 892.631 152.608C903.728 158.927 918.901 173.983 929.592 181.822C932.268 183.785 940.519 219.004 941.148 223.535C932.431 234.435 919.022 248.735 909.549 259.321L858.646 316.158C850.435 325.04 842.414 334.096 834.589 343.32C831.882 346.457 828.01 350.388 825.571 353.54L882.256 533.106L899.765 588.516C902.991 598.761 907.706 612.657 909.742 622.777C911.171 629.879 910.36 646.886 910.103 654.521C909.63 668.687 909.084 682.851 908.463 697.012C907.86 711.084 907.436 726.834 906.28 740.762C905.305 752.513 885.82 769.97 877.314 778.713L830.032 826.774L800.988 856.479C795.66 861.995 776.121 883.491 769.94 885.189C754.078 889.546 735.484 892.571 719.188 895.733L616.516 915.351L394.338 958.337C370.495 962.88 346.568 967.678 322.716 972.239C319.392 972.874 311.535 974.192 308.532 973.101C300.685 970.251 292.974 965.632 285.627 961.566C274.097 955.187 262.651 948.658 251.292 941.981C239.725 935.267 228.157 928.666 216.782 921.583C208.773 916.597 208.016 911.933 205.554 903.207C204.443 899.269 203.429 895.254 202.366 891.32C198.299 876.085 194.341 860.82 190.495 845.527L167.857 759.385C164.559 746.566 160.468 732.293 157.89 719.472C156.188 711.006 155.002 698.833 153.943 690.089C151.655 671.748 149.658 653.372 147.953 634.967C145.641 611.403 142.658 587.904 140.063 564.357C138.05 547.436 136.769 537.691 132.57 521.35L119.019 471.937C116.958 464.545 112.57 450.7 111.7 443.809C111.776 443.674 111.852 443.54 111.928 443.406C114.21 438.424 126.682 429.997 125.223 424.795C124.724 423.015 122.186 422.146 120.815 421.719C117.968 420.834 107.749 419.852 106.714 416.531C103.243 405.394 100.222 389.957 97.7112 378.68L84.0758 319.47C96.1288 290.48 113.655 258.414 127.714 229.857C128.997 227.253 141.822 218.717 145.381 216.174C167.681 200.357 190.142 184.77 212.761 169.415C218.384 165.562 224.966 160.55 230.669 157.183C232.486 156.11 243.013 155.513 245.548 155.322C245.292 150.721 244.885 145.003 245.027 140.425C253.849 127.093 271.531 106.534 282.057 93.5917C297.577 89.9243 313.672 87.3138 329.382 84.5598C332.389 84.0327 335.45 83.6422 338.5 83.4939C347.157 89.6202 355.151 93.388 363.959 98.9902C365.091 99.7103 366.566 101.418 367.034 102.669C371.216 113.841 375.172 129.14 377.809 140.734C425.954 134.241 475.957 130.292 524.456 124.055C524.403 119.632 524.228 114.658 524.494 110.287C532.1 101.337 538.515 93.4403 545.672 84.0605C549.005 79.6921 557.403 68.8826 560.992 65.2569Z"/><path fill="#CE99F5" d="M226.724 331.138C236.57 330.431 248.47 328.501 258.311 327.095L294.278 322.171L399.061 307.846L764.729 257.696C754.703 269.506 744.744 281.373 734.853 293.297C730.476 298.584 724.116 306.901 719.574 311.668C710.957 322.22 700.068 336.082 691.161 346.116L674.104 366.485C670.619 371.299 666.501 375.531 662.915 380.626C659.469 387.932 657.211 399.492 654.146 405.179C650.51 415.236 647.264 426.748 643.471 436.683C642.101 440.269 633.989 447.369 630.967 450.579C624.538 456.631 618.586 463.341 612.113 469.478C611.464 470.191 609.76 472.144 609.123 472.671C599.504 481.957 599.983 485.063 596.675 497.985L588.959 525.726C587.693 530.214 583.539 541.765 585.519 545.358C586.428 547.003 588.039 548.142 589.893 548.453C592.118 548.833 623.768 536.334 628.648 534.77C635.139 531.858 643.855 528.828 650.584 526.313C657.353 522.331 675.281 494.192 683.024 485.898C684.67 483.371 687.464 478.899 689.814 477.268C698.35 471.344 715.936 461.058 725.023 457.142C731.345 452.675 739.417 448.655 745.43 443.864C749.54 440.59 754.927 433.937 758.562 429.74C763.264 424.283 768.054 418.904 772.931 413.605C774.204 411.896 776.101 409.922 777.529 408.301C790.666 393.38 804.215 378.923 816.967 363.665L874.139 546.963C879.44 563.503 884.637 580.077 889.731 596.683C892.906 606.717 896.41 616.878 899.169 627.013C887.348 649.31 875.677 671.687 864.155 694.14C851.91 717.404 839.884 740.784 828.079 764.275C753.993 775.53 678.432 789.485 604.446 801.938L505.141 818.641C489.365 821.302 470.214 823.919 455.039 827.194C444.468 816.834 427.335 802.94 415.883 793.013L331.845 720.856C330.799 715.995 328.882 709.952 327.53 704.996C324.797 694.685 321.989 684.394 319.105 674.124L298.073 596.145L226.724 331.138Z"/><path fill="#9E5CC8" d="M531.28 421.193C538.303 420.736 547.434 419.282 554.618 418.32C568.174 416.522 581.713 414.597 595.233 412.546C597.263 419.018 610.435 467.378 612.113 469.478C611.464 470.191 609.76 472.144 609.123 472.671C605.753 472.236 594.721 474.338 590.746 474.836C576.544 476.614 562.386 478.559 548.243 480.76C542.966 461.083 536.045 440.697 531.28 421.193Z"/><path fill="#9E5CC8" d="M595.102 328.121C601.74 326.794 611.415 325.796 618.297 324.878L659.933 319.353C661.948 327.009 671.251 360.895 674.104 366.485C670.619 371.299 666.501 375.531 662.915 380.626C660.292 380.362 648.491 382 645.609 382.391L612.345 386.982C606.369 367.935 600.544 347.337 595.102 328.121Z"/><path fill="#9E5CC8" d="M683.024 485.898C688.447 485.727 697.078 483.909 703.27 483.35C705.74 489.612 707.898 498.399 709.854 505.079L720.406 541.331L679.436 546.999C673.762 547.777 663.134 549.528 657.628 549.631C655.337 541.841 652.989 534.068 650.584 526.313C657.353 522.331 675.281 494.192 683.024 485.898Z"/><path fill="#9E5CC8" d="M554.611 503.023C568.253 501.471 583.272 498.937 596.675 497.985L588.959 525.726C587.693 530.214 583.539 541.765 585.519 545.358C586.428 547.003 588.039 548.142 589.893 548.453C592.118 548.833 623.768 536.334 628.648 534.77C630.532 539.719 632.576 548.022 634.014 553.291C629.038 554.495 617.684 555.748 612.111 556.506C598.549 558.319 584.998 560.215 571.46 562.194C566.741 543.391 559.971 522.029 554.611 503.023Z"/><path fill="#9E5CC8" d="M725.023 457.142C731.345 452.675 739.417 448.655 745.43 443.864C749.54 440.59 754.927 433.937 758.562 429.74C763.264 424.283 768.054 418.904 772.931 413.605C776.056 425.203 780.049 437.657 783.511 449.273C770.692 450.81 757.891 452.499 745.112 454.34C740.394 455.012 728.977 457.004 725.023 457.142Z"/><path fill="#9E5CC8" d="M619.069 409.195C629.906 408.553 643.203 406.543 654.146 405.179C650.51 415.236 647.264 426.748 643.471 436.683C642.101 440.269 633.989 447.369 630.967 450.579C627.921 443.545 620.825 417.148 619.069 409.195Z"/><path fill="#9E5CC8" d="M682.79 316.646C692.077 314.758 709.613 312.981 719.574 311.668C710.957 322.22 700.068 336.082 691.161 346.116C688.678 336.171 685.705 326.469 682.79 316.646Z"/><path fill="#9E5CC8" d="M480.117 342.689C481.898 342.394 481.858 342.352 483.747 342.638C484.463 343.508 500.045 397.578 501.157 401.763C481.229 404.61 458.925 408.043 439.025 410.156C437.487 410.457 437.535 410.458 435.978 410.305C433.589 406.732 420.263 358.114 418.174 351.161C438.879 348.635 459.45 345.416 480.117 342.689Z"/><path fill="#9E5CC8" d="M414.821 436.699C416.308 436.399 416.323 436.246 417.691 436.787C419.286 440.203 423.55 455.965 424.788 460.344L435.16 495.777C421.257 498.446 406.389 499.59 392.369 501.871C386.482 502.828 379.826 503.69 373.88 504.152C372.255 504.424 371.161 504.804 369.649 504.223C367.777 500.325 365.93 492.378 364.491 487.904C360.099 474.25 356.743 459.261 352.226 445.769C355.357 445.017 358.385 444.607 361.576 444.215C379.357 442.03 397.069 439.035 414.821 436.699Z"/><path fill="#9E5CC8" d="M439.303 518.681L440.802 518.445C443.129 520.153 456.612 570.594 458.374 577.372C451.332 578.944 440.865 579.998 433.487 580.986C420.718 582.612 407.988 584.525 395.306 586.725L393.716 586.816C393.477 586.63 393.237 586.444 392.998 586.258C387.954 569.039 380.822 544.055 375.965 527.629C381.562 526.493 390.742 525.562 396.688 524.703C410.874 522.564 425.08 520.557 439.303 518.681Z"/><path fill="#9E5CC8" d="M506.465 424.747L507.053 424.897C507.903 426.425 509.854 433.679 510.582 436.008C515.502 451.79 520.032 467.691 524.167 483.697L460.03 492.778L459.476 492.574C458.393 490.873 453.823 473.903 452.965 470.925C449.4 458.561 445.533 445.983 442.158 433.571C462.665 430.353 485.87 427.046 506.465 424.747Z"/><path fill="#9E5CC8" d="M571.496 331.243L572.073 331.22C574.422 334.445 587.593 382.915 589.379 389.524C571.219 393.218 543.847 396.187 525.037 398.718C523.776 397.632 508.548 344.209 507.239 339.663C528.38 337.018 550.443 333.272 571.496 331.243Z"/><path fill="#9E5CC8" d="M463.138 599.71C463.391 599.644 464.176 599.651 464.477 599.643C465.311 600.497 480.275 653.037 481.713 658.1C469.425 660.095 457.113 661.942 444.779 663.638C436.194 664.777 426.559 665.673 418.161 667.319L417.28 667.297C415.977 666.113 413.346 655.618 412.69 653.372C408.257 638.507 403.948 623.605 399.766 608.668C420.023 605.576 442.939 602.225 463.138 599.71Z"/><path fill="#9E5CC8" d="M528.755 506.722C529.575 506.448 529.106 506.5 530.171 506.761C531.972 510.913 535.053 522.886 536.443 527.746C539.989 540.216 543.651 552.652 547.43 565.052C544.518 565.326 541.557 565.807 538.677 566.332C520.741 569.599 502.536 571.16 484.56 574.083C483.728 574.111 483.672 573.995 482.831 573.758C481.444 571.46 479.802 564.41 478.868 561.33C474.228 546.016 469.839 530.628 465.704 515.17C486.647 513.048 507.728 509.308 528.755 506.722Z"/><path fill="#9E5CC8" d="M484.504 680.178C485.857 679.915 486.144 679.961 487.541 679.986C489.423 682.049 502.455 729.785 504.868 737.691C501.626 738.354 497.459 738.993 494.142 739.338C477.376 741.086 459.824 745.409 443.119 746.726C441.415 747.076 442.047 747.18 440.536 746.67C438.694 742.957 435.214 730.038 433.85 725.361C430.361 713.395 426.663 701.228 423.425 689.211C430.647 687.652 439.554 686.661 447.023 685.606L484.504 680.178Z"/><path fill="#9E5CC8" d="M553.015 587.229C554.474 588.749 568.423 639.433 570.017 645.564C549.102 649.467 527.08 651.115 506.115 654.741C504.833 653.028 490.822 602.695 489.011 596.785C507.562 592.366 533.436 591.086 553.015 587.229Z"/><path fill="#9E5CC8" d="M575.444 667.779C577.616 670.021 590.949 718.637 592.957 725.32C590.419 725.533 587.545 725.929 585.02 726.317C566.651 729.143 548.067 731.336 529.736 734.307C529.44 734.148 529.145 733.988 528.85 733.829C524.747 721.349 515.849 686.718 512.374 676.752C515.979 676.074 519.912 675.466 523.556 675.017C540.741 672.9 558.252 669.382 575.444 667.779Z"/><path fill="#9E5CC8" d="M638.685 575.716L639.756 575.446C640.805 576.154 640.923 576.401 641.278 577.698C646.363 596.276 652.083 614.807 657.135 633.375C652.254 633.702 643.725 635.25 638.514 635.976C624.356 637.875 610.226 639.972 596.127 642.267L594.893 642.13C592.938 639.815 579.522 590.733 577.973 584.159C597.048 581.206 619.572 577.873 638.685 575.716Z"/><path fill="#9E5CC8" d="M788.853 471.732L789.386 471.694C790.335 472.487 804.788 523.426 806.584 529.389C786.749 532.821 764.8 534.873 744.936 538.25C744.665 538.207 744.087 537.922 743.803 537.798C742.284 534.409 739.197 522.978 738.005 518.902C734.212 506.05 730.494 493.176 726.85 480.281C747.376 477.825 768.234 474.046 788.853 471.732Z"/><path fill="#9E5CC8" d="M724.701 563.178L725.988 562.894C727.608 564.31 742.1 615.25 743.854 621.263C723.745 623.751 703.664 626.461 683.614 629.391C682.187 629.634 682.179 629.746 680.819 629.362C678.856 624.406 676.555 615.163 674.944 609.662L663.998 572.207C670.655 571.556 679.733 569.859 686.497 568.827L724.701 563.178Z"/><path fill="#9E5CC8" d="M662.899 655.301C663.938 656.111 678.665 707.678 680.01 712.351C673.443 713.756 664.401 714.761 657.613 715.71C644.209 717.468 630.841 719.491 617.516 721.778C616.165 720.864 602.071 669.923 600.564 664.073C621.038 661.14 642.393 657.646 662.899 655.301Z"/><path fill="#9E5CC8" d="M812.082 551.747L812.472 551.846C813.794 553.558 828.201 603.984 829.348 608.758C826.757 609.34 824.01 609.705 821.375 610.058C803.627 612.433 785.891 615.7 768.119 617.812L767.019 617.796C765.192 615.123 752.241 567.608 750.152 560.426L812.082 551.747Z"/><path fill="#9E5CC8" d="M748.95 642.758C750.171 644.077 764.164 693.317 766.212 699.803C745.536 702.939 724.837 705.919 704.116 708.74C701.248 704.495 689.558 660.366 686.984 651.337C707.505 649.017 728.575 644.962 748.95 642.758Z"/><path fill="#9E5CC8" d="M687.791 117.695C688.747 117.502 692.544 117.3 693.722 117.21C708.602 129.226 723.309 141.454 737.841 153.89C744.065 159.148 750.728 164.344 756.784 169.644C761.913 185.321 766.809 204.246 771.318 220.37C761.528 220.565 738.068 224.748 727.318 226.158C689.233 231.182 651.175 236.401 613.144 241.814L218.539 295.558C212.819 275.309 206.091 250.642 201.415 230.284L218.958 197.591C223.457 189.447 229.979 178.082 233.767 169.787C251.782 166.336 275.911 165.122 294.685 162.353C301.37 186.47 310.274 213.573 315.919 237.528C319.854 240.505 328.351 246.06 332.618 248.335C339.454 248.079 351.205 246.025 358.222 245.088C364.44 244.257 375.612 243.071 381.074 241.649C383.93 239.021 388.122 234.49 390.086 231.158C393.665 225.088 392.099 221.351 390.323 215.205C391.096 212.503 394.419 203.196 394.03 201.259C391.059 186.497 385.212 167.062 381.215 152.684C400.437 149.728 421.783 147.932 441.294 145.641L573.046 130.315C575.625 136.72 579.059 149.987 581.096 157.054C585.487 172.512 590.067 187.917 594.833 203.263C598.403 206.808 606.761 212.463 611.293 214.643L641.452 210.789C646.351 210.159 656.397 209.114 660.761 207.762C664.275 202.857 667.246 198.228 669.977 192.853C669.574 190.214 668.623 186.428 668.029 183.733C669.833 179.101 671.679 174.552 673.121 169.791C668.443 153.631 663.897 137.433 659.485 121.198C667.688 119.656 679.279 118.668 687.791 117.695Z"/><path fill="#582C94" d="M819.497 777.814L819.547 777.84L819.704 778.522L819.713 778.002C819.285 780.596 770.326 863.98 764.53 874.514C758.391 876.232 748.9 878 742.489 879.3C727.433 882.294 712.355 885.175 697.256 887.943L591.223 908.288L419.248 941.409C390.889 946.867 360.8 953.268 332.377 957.761L332.099 957.355C334.469 954.535 338.055 951.519 340.79 948.867C365.433 924.973 390.062 901.041 415.138 877.598C428.69 864.929 441.99 850.832 456.072 838.851L679.239 801.322L772.962 785.466C788.689 782.846 803.484 779.836 819.497 777.814Z"/><path fill="#582C94" d="M217.942 345.298C220.039 348.183 233.452 401.292 235.942 410.541L287.873 604.134L304.988 667.675C309.921 686.366 314.735 706.165 320.569 724.58L302.577 813.874C299.748 828.058 297.09 843.404 293.874 857.394L293.538 858.418L292.904 858.154C288.554 851.677 282.233 839.815 278.354 832.776L258.942 798.13L208.547 709.265C204.449 702.046 196.458 689.934 193.712 682.615C193.182 681.202 194.872 661.241 195.073 658.202C196.934 630.223 198.966 602.256 201.169 574.301L211.811 430.178C213.719 403.043 215.119 371.999 217.942 345.298Z"/><path fill="#582C94" d="M205.395 351.484L205.663 351.94C205.863 356.475 204.609 368.009 204.228 373.245L200.841 418.382L191.498 542.843L184.533 639.584C183.567 652.302 182.559 666.692 181.337 679.38C180.878 684.141 170.677 699.024 167.435 703.792C165.871 692.317 164.87 678.77 163.635 667.056C160.924 640.111 157.391 613.085 154.586 586.12C152.398 565.074 150.775 543.216 145.479 522.768C143.521 515.205 141.29 507.612 139.23 500.048L125.4 448.018C133.93 438.585 145.36 423.711 153.672 413.661C170.714 393.059 188.742 372.279 205.395 351.484Z"/><path fill="#582C94" d="M189.481 235.783L189.936 235.887C191.779 238.525 205.87 294.705 207.464 300.968C202.649 306.699 196.87 312.49 191.77 318.092L146.577 366.845C136.328 377.788 125.11 389.383 115.51 400.8L115.172 400.661C113.635 398.602 98.9132 329.123 97.1619 320.435C109.552 293.878 122.875 264.508 136.138 238.527C153.251 238.06 172.359 236.875 189.481 235.783Z"/><path fill="#CE99F5" d="M861.916 200.304C864.652 201.907 889.357 222.45 892.15 225.106L777.196 357.054L742.215 397.135C736.409 403.847 730.372 411.261 724.298 417.68C722.252 419.843 715.122 421.861 711.854 423.017C705.888 425.397 694.645 429.998 688.801 431.606C691.156 420.844 692.425 405.549 695.893 395.292C696.579 393.262 706.603 382.269 708.867 379.632L739.613 343.782C780.938 296.434 821.708 248.605 861.916 200.304Z"/><path fill="#582C94" d="M186.582 695.294C189.494 698.849 195.292 710.431 197.782 714.951L218.118 751.026C241.034 791.663 265.258 832.641 287.791 873.433C280.398 877.91 264.163 884.875 255.877 888.7C244.066 894.319 230.084 900.089 218.79 906.133C217.525 900.364 215.191 892.872 213.629 886.866C209.236 869.919 204.746 852.998 200.16 836.103L170.585 722.392C173.176 716.491 182.833 701.479 186.582 695.294Z"/><path fill="#9E5CC8" d="M330.363 735.242C332.644 736.394 344.169 746.716 346.972 749.163L377.164 775.322L415.392 808.377C423.549 815.314 433.472 823.224 441.181 830.428C424.451 835.191 407.448 839.461 390.625 844.1C367.568 850.697 344.321 856.54 321.301 863.282C315.606 864.95 309.699 866.685 303.919 867.934C307.777 849.201 311.477 830.435 315.019 811.64L330.363 735.242Z"/><path fill="#582C94" d="M760.264 233.684C761.733 233.464 762.348 233.246 763.773 233.704C760.806 237.736 757.645 242.512 755.603 247.082C740.607 249.521 723.887 251.376 708.707 253.457L614.797 266.325L337.882 304.408L263.25 314.565C254.97 315.674 217.581 319.139 213.27 324.155C187.909 353.662 163.65 384.788 137.799 413.857L129.622 411.536L123.052 409.969C131.348 401.345 139.795 391.555 148.112 382.65C171.199 357.942 194.107 333.067 216.834 308.027C219.261 307.333 228.533 306.298 231.56 305.821C245.814 303.575 260.264 302.033 274.564 300.121L400.495 282.92L760.264 233.684Z"/><path fill="#CE99F5" d="M331.989 96.6701C332.745 96.5368 334.413 96.1954 335.073 96.4997C341.523 99.4747 350.321 104.075 356.323 107.423C362.776 129.848 369.005 152.338 375.009 174.888C377.434 183.767 380.267 192.651 382.465 201.568C380.508 208.902 374.705 223.317 371.94 231.216C362.981 232.521 354.01 233.741 345.028 234.878C341.387 235.468 337.811 235.846 334.146 236.256C335.877 231.431 343.289 211.649 342.882 208.367C341.64 198.334 335.892 180.932 332.933 170.65C327.222 150.807 321.717 130.869 315.347 111.339C311.924 108.634 305.727 104.635 301.911 101.976L331.989 96.6701Z"/><path fill="#CE99F5" d="M611.363 68.7154C615.149 68.2571 630.79 77.0319 635.295 79.3388C639.354 90.906 642.757 105.789 646.155 117.714C651.075 134.98 656.4 152.671 660.846 170.029C658.011 179.311 654.53 188.044 651.656 197.767C642.748 198.429 631.509 200.189 622.539 201.361C619.482 201.87 615.981 202.232 612.871 202.622C615.286 195.046 620.628 185.203 620.993 177.43C621.281 171.301 598.89 96.3509 594.295 83.5332C590.889 80.7054 583.931 76.417 580.048 74.2028C589.496 72.3938 602.02 69.6796 611.363 68.7154Z"/><path fill="#582C94" d="M430.411 845.629L431.063 845.71C430.611 846.942 324.816 947.425 315.253 956.601C314.702 953.863 314.254 950.67 313.8 947.877C310.158 926.611 307.031 901.167 302.711 880.589C318.518 875.757 336.5 871.378 352.624 866.944C378.51 859.681 404.439 852.576 430.411 845.629Z"/><path fill="#9E5CC8" d="M850.619 172.46C852.183 173.794 854.512 188.561 855.019 191.505C849.699 197.035 843.535 204.562 838.441 210.474L810.55 242.93L728.197 339.245L700.519 371.784C696.027 377.022 691.211 382.972 686.36 387.778C684.281 389.837 677.351 392.107 674.366 393.217L669.692 395.34C675.188 381.733 678.324 379.418 687.69 368.462C693.627 361.457 699.506 354.403 705.325 347.3C729.223 318.1 753.332 289.074 777.653 260.226C797.54 236.658 816.808 212.473 836.631 188.843C841.269 183.316 845.645 177.7 850.619 172.46Z"/><path fill="#9E5CC8" d="M916.25 228.716L921.296 228.56C912.103 240.186 897.407 255.563 887.164 267.01L828.751 332.831C807.329 357.363 785.713 381.723 763.904 405.911C756.341 414.347 749.023 422.99 741.538 431.484C738.561 434.862 734.549 437.189 730.703 439.445L726.102 442.279C727.582 438.487 731.072 429.074 733.108 426.154C736.888 420.733 742.975 414.024 747.447 408.831L776.546 375.316C806.527 341.099 836.321 306.718 865.926 272.174C876.922 259.394 893.006 242.524 902.934 229.644C907.135 229.104 911.977 228.951 916.25 228.716Z"/><path fill="#CE99F5" d="M648.301 449.452C659.866 466.366 659.052 464.98 677.777 473.674C669.974 483.909 661.67 493.972 654.308 504.564L651.062 508.848C645.826 515.827 646.598 515.603 638.386 518.739C625.334 523.723 611.951 528.267 599.063 533.63C603.166 517.891 607.394 502.184 611.744 486.512L648.301 449.452Z"/><path fill="#582C94" d="M290.993 884.935L291.529 885.291C292.45 887.528 294.287 902.422 294.868 905.928C297.7 923.037 300.048 940.535 303.38 957.567C298.825 955.78 291.384 951.084 286.98 948.468C279.304 943.827 271.523 939.362 263.643 935.077C251.796 928.305 239.994 921.747 228.289 914.684C233.721 911.59 241.157 908.705 246.921 905.909C261.379 898.895 276.796 892.355 290.993 884.935Z"/><path fill="#582C94" d="M286.081 106.796C288.377 107.443 302.061 116.305 305.289 118.244C307.69 124.171 312.833 143.831 314.895 150.758L324.826 185.147C327.069 192.797 330.067 201.419 331.42 209.183C329.291 214.652 327.205 220.138 325.162 225.639C323.228 218.411 321.106 211.234 318.799 204.116C315.712 196.352 306.971 155.62 301.976 151.934C296.831 148.138 264.939 153.857 257.438 155.094C257.391 151.778 257.437 148.36 257.439 145.034C265.522 132.085 277.852 119.571 286.081 106.796Z"/><path fill="#9E5CC8" d="M897.769 654.363C898.399 658.668 897.434 682.168 897.054 687.248C895.769 704.437 896.001 725.061 894.164 741.806C887.932 745.522 876.732 748.812 869.556 751.147C861.093 753.876 852.651 756.674 844.233 759.539C843.876 756.693 892.715 665.819 897.769 654.363Z"/><path fill="#582C94" d="M564.799 78.2899C571.554 83.2237 579.427 86.067 585.059 91.7889C587.146 100.238 590.153 109.499 592.627 117.95L602.999 154.277C605.18 161.815 607.935 170.446 609.598 177.977C608.529 181.097 606.515 188.165 604.166 189.952L603.189 189.604C601.936 187.507 598.451 174.62 597.485 171.342C596.176 166.189 583.732 121.375 580.883 119.239C577.808 116.935 541.523 122.265 536.411 123.016L536.563 114.976C544.89 101.804 555.997 90.7297 564.799 78.2899Z"/><path fill="#9E5CC8" d="M878.611 163.75C881.588 163.498 885.914 163.535 888.998 163.473C897.077 170.106 913.928 182.726 920.539 189.324C922.169 196.915 925.812 208.943 927.998 216.426C921.971 216.698 915.623 217.244 909.539 217.59C907.069 217.822 904.321 217.898 901.821 218.021L880.544 200.439C876.244 196.905 870.712 192.686 866.759 188.909C865.483 185.406 862.122 168.004 861.593 164.358C866.767 163.969 873.327 163.933 878.611 163.75Z"/><path fill="#582C94" d="M875.99 761.545L876.495 761.603C876.712 764.389 803.344 835.624 796.389 845.098L795.874 844.834C796.426 842.751 806.049 826.568 807.975 823.155C814.123 812.019 820.343 800.923 826.635 789.867C829.114 785.547 833.426 777.667 836.215 774.073C839.735 772.631 846.635 770.719 850.499 769.526L875.99 761.545Z"/><path fill="#582C94" d="M211.542 184.994L211.947 185.441C211.107 187.643 209.888 189.796 208.741 191.858C202.753 202.629 197.161 213.721 190.99 224.382C178.546 224.808 166.106 225.389 153.676 226.123L153.341 225.8C154.531 224.321 164.533 217.642 166.977 215.938C181.845 205.57 196.785 195.546 211.542 184.994Z"/><path fill="#9E5CC8" d="M681.449 402.572L681.776 403.027C680.365 413.855 677.744 425.861 675.768 436.632C675.301 439.178 667.357 449.756 665.239 453.453L661.822 448.373C659.284 444.829 657.861 442.75 655.788 438.95C658.481 429.344 661.972 418.849 664.903 409.163C670.688 407.051 675.777 404.979 681.449 402.572Z"/><path fill="#9E5CC8" d="M716.988 433.06L717.35 433.731C715.339 439.921 713.383 445.58 710.634 451.482C707.167 453.381 703.79 455.232 700.371 457.225C695.983 459.781 691.271 463.829 686.528 465.314C683.834 463.817 681.391 462.572 678.627 461.212L674.095 459.029C675.503 456.877 681.92 447.593 683.446 446.742C692.177 441.87 707.61 436.768 716.988 433.06Z"/><path fill="#2A0850" d="M654.308 504.564C655.619 506.901 656.117 509.133 655.942 511.811L655.347 512.491C652.558 511.653 653.271 510.15 651.062 508.848L654.308 504.564Z"/></svg>