<svg xmlns="http://www.w3.org/2000/svg" width="512" height="512"><path fill="#cfa2f1" d="M347 32h13l1 3 5 3 5 6 5 3 5 5 5 3 5 5 3 4 4 14 3 10 1 3-6 2h-4v3h-5l-4 1h-16v2h11l19-2-2 6-4 5-8 2h-7l-2-1v2h-8l-5 1v3l-6 1-3-1h-19l3 1v2l10-2v2l12-2h6l1-2h2l4-1 26-2-2 5-10 12-2 4-3 3-6 7-1 2h-3l-2 5-3 5-5 4-1 2h-2v2l-7 1-17 2-1 1h-5l-2 2 3 15 2 5 2 11h2v5l-5 10-3 3-1 3-3 1-1 4-4 1-1 3-3 2-1 3-5 2-1 5-5 3-13 2-9 2h-8l-3 1 1 9 4 7v10h2v4h2l1 10 1 4 6-2h2l7-1 2 1 11-2v-1l16-2 2 1-2-6-1-9-1-1v-6l7-3 7-3 6-9 1-3 3-1 3 7 3 10 1 5 1 7h2l3 6v1l9-3 25-2 11-2v-5h-2l-2-12v-2h-2l-2-12v-3h-2l-2-6v-4l-13 2-4 2h-14l-5 1v-3l8-5 14-8 4-3h2v-2h3l1-3 4-4h2l2-4 5-5 12-14 9-10 2-4 4-1 2 2 1 8 2 6 3 10v3h2l1 6 3 10 6 20 1 6h2l2 10 3 8 3 10 2 7 3 7 3 12 3 8 1 9h2l1 7-6 11-4 10-3 3-2 5-7 13-2 5-7 12-2 6h-2l1 6-7 6-10 2 4 2h6l5-1 3-10h2l2-6 4-8 1-3h2l2-6 4-8 1-4h2l2-7 6-10 3-5h1l1 10-1 21-1 3-1 17-2 5-8 7-6 7-8 7-7 8-6 5-7 8-4 2-2 4-3 1-2 4-13 13-4 4-14 3-1 1-17 2-9 3-17 1v2l-3 1-18 2h-6v2l-2 1-18 2-3 2-12 1-11 2-4 2-16 2-10 2-16 3-9 2-12 2-5 2-16 2-9 2-16 3-6 2-9-1-3-3-5-2v-2l-7-2-3-3-8-4-4-2-5-3h-2v-2l-5-2-4-2-3-6-2-5-1-1-2-13-3-7-2-12-2-4-3-14-2-5-3-15-1-1-2-10-3-10-2-10-2-10v-13l-3-23-1-2-1-19-2-9v-7l-2-10v-7l-4-10-1-9-3-8-2-11-3-9 1-3h2l1-4 5-5 2-3 4-5 3-1 1-4 3-3 4-6 6-5-3-2v2h-2v2h-2v3l-5 5h-2l-1 2-3 4-1 3-7 1-6-2 1-4 4-7 6-4h2l1-4-3-2-3 4-1 4-5 1v3h-2l-1 3-4 1-4-11-2-13-3-8-1-15 1-6h2l3-9h2v-4h2v-4h2l1-5 2-6h2l1-7 2-1 2-4 10-1 12-1 10 1 3 8 1 7 5 20v4l12 1v-3l4-1h-8l-4-2-3-9-2-13h-2l-2-15 5-9 2-6 5-8 5-9 3-3 13-2 20-1 4 9 3 9 2 7 1 10h2l1 7 4 3 4 1v2l6-2 19-2 2-6h2l1-9 2-7-2-10-2-9-2-8 12-3 25-2 11-2 24-2h8l1-2 9-1 19-1 3 2 2 13 5 17 2 2 1 7 3 1v3l11 1 14-2 6-1 4-10v-6l2-6-3-12-2-6-1-5v-3h2l1-2Zm15 65v2h2v-2Zm-8 2-6 1h-11l-13 4-1 3h6v-2l6 1v-2l6 1 6-1 9-1h1l4-2 1-2Zm-53 6 2 4 5-1 1 1 13-1-2-2-2 1v-2Zm-3 1v2l-2 1h3v-2l2-1Zm-25 3-3 1-9 1v2h-7l-2 1-8-1-8 1 1 4h11l13-2v-2l8 1v-2h16l8-1-3-3Zm-44 6v2l-6-1v2h-18l-7 1-3 2-6 2v2l-5-2h-14l2 2 10 2 18-2 2-1v-2h17l10-1 1-3h5l-1-3Zm96 1-3 1-10 1-12 1v2l-8 1 2 1v2h3v-2l7 1 1-1 25-2v-3l3-1Zm-35 6v2l-4-1h-15l-3 3v-2h-2v2l-8-1-5 1v2l-7-1-12 1-6 3-3 1h-19l2 1 1 2 8 1 15-2 17-3 15-1v-2l3 1v-2l5 1 10-1 11-1-2-4Zm-131 3-12 2-15 1-2 3h-6v2l-9-2-11 1-3 2 2 2 9-1 5 1 15-2 6-2 25-2 2-4-5-1Zm33 10-12 1-11 1-13 5-1-2h-4l-12 1-3 2h-8l-9 2-16 1-5 2-9 1-2 5-5 5-5 6-3 2 2 5 2-1v-4l3 1 1-6 4-2v-2l6-2 1 10 1 2h2l1 13 3 9 1 1 2 12 2 5 3 14 2 6 2 7 2 6 2 10h2l-1 4 4 14 2 3 1 9 3 11 3 10 2 6 2 10 3 7v6l4 10 1 7 2 5 2 9 3 9 2 4 5 2v2l10 8 6 7 4 2 2-1-1 3 9 6v2l6 4 3 3h2l2 4 6 5h2l1 3 5 4 6 3 3 3 21-2v-2l4 1 4-1 16-2 4-2 14-1 9-2 5-2 9-1 12-1 11-2 11-2 6-3h3l17-1 2-1-1-2h-18l-5 1v2l-6-1-1 1-18 2-3 3v2l-8-1h-12l-12 3-9 1-9 1-3 2-5 1-16 1-11 2-5 1-6 1-7-8-2-2h-3v-3l-4-1-1-2-1-1-5-5-5-2-3-4h-2l-2-4-4-2-6-7-4 1-1-5-5-4-4-2-1-3-4-2-3-2-3-10h-2l1-6-3-10-2-7-7-26h-2l1-4-4-12-2-10-3-8-1-3-1-7-3-8-1-4-1-7-1-4h-2v-8l-4-13-1-1-1-8-2-5-1-6-3-9-4-16-1-1-3-15-2-2-1-10 13-2 7-3 1 2 17-3 1-1 15-1 18-2 6-1v-2h17l8-1 1-3 2-1Zm-109 4-3 5-1 3-4 1-2 4-4 2 2 5 7-6 5-6v-4h3v-3Zm-16 18-7 7v3l-2-1v2l-3 1-4 6 5 2 14-15-2-1Zm5 13-2 4 3 3 2-4Zm211 1-4 1-9 1v2l-23 1-1 4 2 5h2l-1 6 2 8h2l2 13h2l1 10 6-1h6v-2l5 1 16-2v-2h13l2-2-2-11-2-6-3-7-1-2-1-9-1-4-1-4Zm-71 10-9 2-16 2-14 2-5 1 3 11h2v8l4 10 1 8 3 1v2l-2 1 2 1-1 3 14-1 6-2 22-2 5-2 2 1-1-6-2-5-1-7-3-7-1-7-2-5-2-4v-5Zm23 71-10 2-12 2-20 2-4 1 3 15 3 6 1 8 2 7h2v7l3 3 10-1 5-1v-2l22-1 7-1 1-4-1-10-2-1-2-12-1-2h-2l-1-13-2-5Zm170 50-13 2-3 1-13 1-10 2h-1v9l4 11 1 8 3 1 1 12 2 5 17-2v-2h12l18-3-1-11-3-10-3-10-2-6-1-7-1-1Zm-75 11-18 2-5 2h-5l-6 2h-7l-3 2 3 7 1 8 3 1v9l3 11 3 1-1 7h7l9-2 12-1 7-2 13-1 1-4-4-11-2-9-3-9-1-7-2-2-1-4Zm-79 11-5 1v2l-5-1-10 2-14 1-7 1-1 4 3 10 4 14h2v9l4 9h9l12-2v-2l5 1v-2l7 1 15-2-3-10-2-10-3-7-2-10-3-7 1-2Zm153 76-6 1v2l-18 1-7 2-1 3h13l13-2v-2l24-2 4-2-10-1Z"/><path fill="#d0a2f2" d="M90 156h2l2 10v2h2l3 17 3 6 2 12 2 5 3 14 2 6 2 7 2 6 1 10h2l1 9 4 10 1 7 4 13 2 12 2 1 1 8 3 11 2 3v6l4 10 1 7 2 5v5l2 1 1 7 3 9 6 1 2 4 5 5 3 2 5 6 4 2h2v3l9 6 5 5 5 4 5 5 5 4 5 5 10 6v2l3-1 18-1v-2l4 1 1-2 22-2 1-2 14-1 9-2 5-2 9-1 12-1 11-2h9l19-4 14-2 25-4v-2l2-1 22-2 10-2 5-1 3-10h2l2-6 4-8 1-3h2l2-6 4-8 1-4h2l2-7 6-10 3-5h1l1 10-1 21-1 3-1 17-2 5-8 7-6 7-8 7-7 8-6 5-7 8-4 2-2 4-3 1-2 4-13 13-4 4-14 3-1 1-17 2-9 3-17 1v2l-3 1-18 2h-6v2l-2 1-18 2-3 2-12 1-11 2-4 2-16 2-10 2-16 3-9 2-12 2-5 2-16 2-9 2-16 3-6 2-9-1-3-3-5-2v-2l-7-2-3-3-8-4-4-2-5-3h-2v-2l-5-2-4-2-3-6-2-5-1-1-2-13-3-7-2-12-2-4-3-14-2-5-3-15-1-1-2-10-3-10-2-10-2-10v-13l-3-23-1-2-1-19-2-9v-7l-2-10v-7l-4-10-1-9-3-8-2-11-3-9 1-3h2l1-4 5-5 2-3 4-5 3-1 1-4 3-3 4-6 10-8 3-4 1-6h2l2-5 6-5Z"/><path fill="#cfa3f1" d="M347 32h13l1 3 5 3 5 6 5 3 5 5 5 3 5 5 3 4 4 14 3 10 1 3-6 2h-4v3h-5l-4 1h-16v2h11l19-2-2 6-4 5-8 2h-7l-2-1v2h-8l-5 1v3l-6 1-3-1h-19v2h-8l-3 1-10 1h-12v2l-9 2-5 1h-15l-1 2h-2v-2h-2v2h-8l-7 2h-9l-8 1-6 3-3 1h-17l9 3v1l-18 2 1-3h-8l-12 1-11 1-9 4-10-1-11 1-2 2h-9l-9 2-16 1-5 2-9 1-2 5h-2l-2 4-6 7-2 1 2 4v3l-5 5-5-1v2h-2v2h-2v3l-5 5h-2l-1 2-3 4-1 3-7 1-6-2 1-4 4-7 6-4h2l1-4-3-2-3 4-1 4-5 1v3h-2l-1 3-4 1-4-11-2-13-3-8-1-15 1-6h2l3-9h2v-4h2v-4h2l1-5 2-6h2l1-7 2-1 2-4 10-1 12-1 10 1 3 8 1 7 5 20v4l12 1v-3l4-1h-8l-4-2-3-9-2-13h-2l-2-15 5-9 2-6 5-8 5-9 3-3 13-2 20-1 4 9 3 9 2 7 1 10h2l1 7 4 3 4 1v2l6-2 19-2 2-6h2l1-9 2-7-2-10-2-9-2-8 12-3 25-2 11-2 24-2h8l1-2 9-1 19-1 3 2 2 13 5 17 2 2 1 7 3 1v3l11 1 14-2 6-1 4-10v-6l2-6-3-12-2-6-1-5v-3h2l1-2Zm15 65v2h2v-2Zm-8 2-6 1h-11l-13 4-1 3h6v-2l6 1v-2l6 1 6-1 9-1h1l4-2 1-2Zm-53 6 2 4 5-1 1 1 13-1-2-2-2 1v-2Zm-3 1v2l-2 1h3v-2l2-1Zm-25 3-3 1-9 1v2h-7l-2 1-8-1-8 1 1 4h11l13-2v-2l8 1v-2h16l8-1-3-3Zm-44 6v2l-6-1v2h-18l-7 1-3 2-6 2v2l-5-2h-14l2 2 10 2 18-2 2-1v-2h17l10-1 1-3h5l-1-3Zm-70 10-12 2-15 1-2 3h-6v2l-9-2-11 1-3 2 2 2 9-1 5 1 15-2 6-2 25-2 2-4-5-1Zm-76 14-3 5-1 3-4 1-2 4-4 2 2 5 7-6 5-6v-4h3v-3Zm-16 18-7 7v3l-2-1v2l-3 1-4 6 5 2 14-15-2-1Zm5 13-2 4 3 3 2-4Zm-10 11"/><path fill="#cb9fec" d="M448 59h19l10 8 5 2v3l3 1 2 4 2 11v5l-5 5-11 12v3l-5 3-3 4v2l-8 6-4 6-3 3h-2l-1 3-5 5-4 5h-2v3l-5 5-8 8-3 5-6 5-1 3-3 2-2 4-7 6-2 4-5 5v2h-3v2l-6 5-5 5-9 5-4 3h-2l-3 3-10 5-4 4v4l-4 2-2 4h-2v3l-5 5-1 2h-2l-1 3-8 4-9 3-5 2-5 1 1-10 2-11 2-2 3-7 5-6 8-7 5-5 3-3 1-4h2l2-10 2-6 2-8 4-8 5-5 4-5v-2l5-3 2-4 1-2 3-1 9-11 1-3 5-5 1-3 7-6 11-14 3-3 3-5h2v-3l5-4 1-3 5-4 6-8 2-2 4-6 5-5 8-9 1-3Z"/><path fill="#ca9eec" d="M394 97h3l-2 6-4 5-8 2h-7l-2-1v2h-8l-5 1v3l-6 1-3-1h-19v2h-8l-3 1-10 1h-12v2l-9 2-5 1h-15l-1 2h-2v-2h-2v2h-8l-7 2h-9l-8 1-6 3-3 1h-17l9 3v1l-18 2 1-3h-8l-12 1-11 1-9 4-10-1-11 1-2 2h-9l-9 2-16 1-5 2-9 1-2 5h-2l-2 4-6 7-2 1 2 4v3l-5 5-5-1v2h-2v2h-2v3l-5 5h-2l-1 2-3 4-1 3-7 1-6-2 1-4 4-7 6-4h2l1-4-3-2-3 4-1 4-5 1v3h-2l-1 3-4 1-4-11-2-13-3-8-1-15 1-6h2l3-9h2v-4h2v-4h2l1-5 2-6h2l1-7 2-1 2-4 10-1 12-1 10 1 3 8 1 7 5 20v4l12 1v-3l14-2 5 1 15-2 6-2 16-1h9l1-4-8 1-12 1-2-2 22-3h6l7 2 5 1 20-2v-2l27-2 1-2 3-2-4-1v2l-6-1v2l-17 1v-2l22-3h8l1 3h11l13-1v-2l8 1v-2l11-1 11-1-5-1h-12v-2l42-6 14-2h7v1l-9 3h-4v2l5 1v-2h5l1-1h6l6-1 7-1 3-1v2l5-4h16Zm-93 8 2 4 5-1 1 1 13-1-2-2-2 1v-2Zm-3 1v2l-2 1h3v-2l2-1ZM83 139l-3 5-1 3-4 1-2 4-4 2 2 5 7-6 5-6v-4h3v-3Zm-16 18-7 7v3l-2-1v2l-3 1-4 6 5 2 14-15-2-1Zm5 13-2 4 3 3 2-4Zm-10 11"/><path fill="#cca3eb" d="M394 97h3l-2 6-4 5-8 2h-7l-2-1v2h-8l-5 1v3l-6 1-3-1h-19v2h-8l-3 1-10 1h-12v2l-9 2-5 1h-15l-1 2h-2v-2h-2v2h-8l-7 2h-9l-8 1-6 3-3 1h-17l9 3v1l-18 2 1-3h-8l-12 1-11 1-9 4-10-1-11 1-2 2h-9l-9 2-6-1v-1l18-3 1-1-2-2 4-2h-17v-1l15-2 6-2 16-1h9l1-4-8 1-12 1-2-2 22-3h6l7 2 5 1 20-2v-2l27-2 1-2 3-2-4-1v2l-6-1v2l-17 1v-2l22-3h8l1 3h11l13-1v-2l8 1v-2l11-1 11-1-5-1h-12v-2l42-6 14-2h7v1l-9 3h-4v2l5 1v-2h5l1-1h6l6-1 7-1 3-1v2l5-4h16Zm-93 8 2 4 5-1 1 1 13-1-2-2-2 1v-2Zm-3 1v2l-2 1h3v-2l2-1Zm-91 29"/><path fill="#c99ee9" d="m154 21 10 2 3 3 3 3 3 10 1 5 1 7h2l4 18 3 10-2 13-1 2h-2l-1 5-3 1-13 1h-6l-1-6 3-1v-7h2l-2-7-1-10-3-1-2-15-2-1-1-6-3-8-1-5v-3l-4-2-3-2v-3ZM303 5h12l5 4 5 2 1 6h2l2 9 2 12h2l2 11 3 9v12l-2 6h-2l-2 4-7 2h-3l-8 1h-4l-1-4 4-8v-9l-1-6h-2l-1-8-1-7h-2l-3-13-3-10v-3l-5-1-3-3V8Z"/><path fill="#cfa4ef" d="m128 27 4 1 9 6 3 9 3 7 1 6 4 15v4l2 1-1 2h2v16l-6 1-2-10-2-2v-6l-2-9-2-1-1-6v-4h-2l-1-4-5 1h-7v2h-11l-2-1v-7l5-6 2-5h3l1-5Z"/><path fill="#c39ae2" d="m286 10 5 4 3 1v2l4 2 1 3 1 9h2l2 14h2l3 14 2 2 1 8-4 8h-2v-3l-3-1-4-20-4-12-3-4-24 1v-7l7-8 2-5 6-5Z"/><path fill="#b08fcb" d="m88 145 1 2 13-2h9v1l-10 2-12 2-2 5h-2l-2 4-6 7-2 1 2 4v3l-5 5-5-1v2h-2v2h-2v3l-5 5h-2l-1 2-3 4-1 3-7 1-6-2 1-4 4-7 6-4h2l1-4-2-1 1-3 5 1 13-14-2-6h4l1 2 10-10h3Zm-16 25-2 4 3 3 2-4Zm-10 11"/><path fill="#d0a7f0" d="M394 97h3l-2 6-4 5-8 2h-7l-2-1v2h-8l-5 1v3l-6 1-3-1h-13l-12-1 3-4-3-2 22-4 5-2 3-1v2l5-4h16Zm-62 11"/><path fill="#ad8bc7" d="M164 123h6l7 2 5 2v1l-14 2-7 2 3 2v2l29-3 4-1h9l7 3 4 2-18 2 1-3h-8l-12 1-11 1-9 4-10-1-11 1-2 2h-9l-9 2-6-1v-1l18-3 1-1-2-2 4-2h-17v-1l15-2 6-2 16-1h9l1-4-8 1-12 1-2-2Zm43 12"/><path fill="#ae8ac8" d="M213 121h12v2l-5 1 22 3v1l-8 1-6 3-3 1h-28l-21 3h-12v-2l-4-1-1-2 8-1 1-1 14-1v-2l20-2v-2Z"/><path fill="#d0a8ed" d="m84 130 2 4v4l12 1v-3l14-2 2 1h21v3l-3 1 2 2-21 4-18 2h-8l-4 3-1-5 1-2h3v-3l-3-1-1-5h2Zm5 14"/><path fill="#bb96d9" d="m88 69 2 2-2 7-2 1-4 7-2 5h-2l-2 5-2 1H62l-7-1-1-3 3-3 8-4 5-4 17-12Z"/><path fill="#cfa8ea" d="m142 41 4 5 2 10 4 15v4l2 1-1 2h2v16l-6 1-2-10-2-2v-6l-2-9-2-1-1-6 1-6 2-8Z"/><path fill="#b693d0" d="M394 97h3l-2 6-4 5-8 2h-7l-2-1v2h-7l-1-2 2-2-2-3-3 1-13-1 4-3h3v2l5-4h16Z"/><path fill="#1d1128" d="M330 100h7v1l-9 3h-4v2l5 1v-2h5l1-1h6l6-1 2 2-18 3h-9l-4-1v-2l-16 1 2 2 5-1v2l4 1-26 4-25 3-4 1h-10v-1l13-1v-2l8 1v-2l11-1 11-1-5-1h-12v-2l42-6Zm-32 6v2l-2 1h3v-2l2-1Zm-8 2"/><path fill="#9979b0" d="M302 38h1l1 7h2l3 14 2 2 1 8-4 8h-2v-3l-3-1-4-20-2-5 1-4 3-3Z"/><path fill="#281933" d="M392 401h6v2l-10 2h-8l-7 2-1 2 19-2h5l-4 2-19 3-18 3-15 3h-8v-1l10-2 6-3h3l17-1 1-1h-23v2h-6l-1 1h-11v-1l27-5Z"/><path fill="#be98da" d="M191 125h6l-1 5-1 2 2 1-21 3h-12v-2l-4-1-1-2 8-1 1-1 14-1v-2Z"/><path fill="#1a0f24" d="M197 132h9l7 3 4 2-18 2 1-3h-8l-12 1-11 1-9 4-10-1h-9v-1l42-6Zm10 3"/><path fill="#bb98d4" d="m88 145 1 2 13-2h9v1l-10 2-12 2-2 5h-2l-2 4-6 7-2-1 7-9v-2l-4 1-7 7-3-1-1-5h4l1 2 10-10h3Z"/><path fill="#a282b8" d="m150 68 2 3v4l2 1-1 2h2v16l-6 1-2-10-2-2v-8l5-1Z"/><path fill="#362445" d="M164 123h6l7 2 5 2v1l-14 2-1 1h-13v-1h9l1-4-8 1-12 1-2-2Z"/><path fill="#caa5e5" d="M90 140h9l1 1 13 2v2l-18 2h-8l-4 3 2-4Zm-1 4"/><path fill="#9f80b5" d="m305 54 4 5 2 2 1 8-4 8h-2l-4-17 1-4 1 1Z"/><path fill="#a788c0" d="m66 87 1 3h-2l1 2 11 1-2 4H62l-7-1-1-3 3-3Z"/><path fill="#1e1128" d="M228 114h8l1 3h9l2 2-12 2h-7l1-3 3-2-4-1v2l-6-1v2l-17 1v-2Z"/><path fill="#291c34" d="m226 212 2 3 2 7v6l-35 5h-8v-1l12-2 1-1 22-2 6-2 1-2-2-1-2-9Z"/><path fill="#d3adef" d="M225 121h13l-1 2 9 2-4 2h-9l-16-3v-1h8Z"/><path fill="#dab2f6" d="M294 112h9l-3 2 11 2-4 2h-9l-15-2-1-2Z"/><path fill="#d4adef" d="M160 89h2l1 8 5 1h9l1-2v3l-3 1-13 1h-6l-1-6 3-1v-3h2Z"/><path fill="#8f75a3" d="M218 48h5l-1 2-4 1 2 2h-37v-1l10-2Z"/><path fill="#c09ddb" d="m79 153 4 1-2 5-5 6-1 2h-6l-3-2Z"/><path fill="#1b1023" d="m186 69 2 2 2 7-1 14-3 3-2 6h-2v2l-2-1 2-6h2l1-9 2-7-2-10Z"/><path fill="#d8b1f4" d="M167 130h4v3h16l-4 2-7 1h-12v-2l-4-1-1-2Z"/><path fill="#352343" d="M176 135h5l-4 2-11 2-6 3-10-1h-9v-1Z"/><path fill="#271735" d="m323 272 2 2 3 11v3l-12 2h-8l-1-2 16-2 2 1-2-6Z"/><path fill="#23162d" d="M382 230h9v1l-13 2-4 2h-14l-5 1v-3l2-2 3 1h9Z"/><path fill="#251434" d="M358 110h8l-2 2h-3v3l-6 1-3-1h-13l-3-2 18-2Z"/><path fill="#150b1d" d="M303 5h12l5 5-6-2h-10l-5 3v2l2 2-5-1-3-3V8Z"/><path fill="#2d193c" d="M264 109h9l-1 2-10 1-6 2-4 1-8-1h-7v-1Z"/><path fill="#9075a5" d="m293 290 3 1 11-1 4 1v2h-11l-19 1 2-3h4Z"/><path fill="#1f112a" d="M361 96h5l1 3h-3v-2h-2v2l-14 2h-8l-1-2Zm4 1"/><path fill="#21142a" d="m113 47 1 2-1 5 15-2h10l2 2v3h-2l-1-4-5 1h-7v2h-11l-2-1v-7Z"/><path fill="#271634" d="m128 128 4 1-2 3-4-1-1 2-12-1-6 1-3-2Z"/><path fill="#231331" d="M296 119h4v2l-9 2-5 1h-10l-5-1v-1Z"/><path fill="#2b173c" d="M193 119h5l-3 3-5 1-1 2-5-1-14-1v-1Z"/><path fill="#32243e" d="M362 99h12l4 2-13 1 1 3-16-1 4-3h3v2Z"/><path fill="#745e86" d="m88 69 2 2-2 7-2 1-3 5-1-2 2-6-3 1-3 3-2-2Z"/><path fill="#1e1227" d="M286 34h8l3 6-1 4-4-7-20 1 1-2Z"/><path fill="#0c0512" d="M164 123h6l2 2-1 2h-3v-2h-2l-1 2-5-1-13 2-5-1v-1Z"/><path fill="#69527d" d="m331 35 1 3h2l2 11 3 8-2 1-4-5h-2l1-12Z"/><path fill="#21112c" d="M315 414h6l-3 5h-15l-5-1v-1Z"/><path fill="#725984" d="m170 197 1 2h2l2 12 3 6v3h-2l-2-5-3-1-1-3 1-1v-7Z"/><path fill="#231333" d="M382 93h10v3h-5l-4 1h-16v-2Z"/><path fill="#563e67" d="m267 479 11 1v1l-11 2-4 2-16 1-1-3h10l10-2Z"/><path fill="#24152e" d="M420 396h7l-3 2-2 1 4 2-6 1-4-1h-16l3-2Zm0 3"/><path fill="#241430" d="M229 128h5l-1 2-8 3-19-1v-1Z"/><path fill="#2f1f3c" d="M211 180h6v1l-10 2-4 1-16 2h-9v-1Z"/><path fill="#34253f" d="m84 130 2 4v4l11 1v1l-7 1-6 7-2-1 1-4h3v-3l-3-1-1-5h2Z"/><path fill="#21152b" d="m213 429 4 1 5 3v2l3-1 18-1v-2l4 2-8 2-10 1h-9l-7-6Z"/><path fill="#2d1b3a" d="M267 422h7v1l-8 2-6 2h-16v-1Z"/><path fill="#4a3a57" d="m289 217 1 2-8 2h-6v2h-18l4-2 2-1 6 1v-2l15-1Z"/><path fill="#53405f" d="m27 137 1 2-1 5 1 3-2 1 1 17-2-1-1-9-1-9 1-6h2Z"/><path fill="#271833" d="M329 114h7l-3 1v2h-8l-3 1-10 1-5-1v-1Z"/><path fill="#2b1e36" d="m72 402 2 2 7 27-1 4-2-4-3-14-2-5Z"/><path fill="#2d1f38" d="m86 87 1 2-2 6h-2l2 11 2 7v5l-2-4v-3h-2l-2-15Z"/><path fill="#1f1329" d="M131 141h8l-2 3h-9l-9 2-6-1v-1Z"/><path fill="#190f21" d="M347 32h13l-1 3h-14l-5 1-1 6-2-1v-6h2l1-2Z"/><path fill="#3f2d4d" d="m400 454 1 2-3 2-14 3-1 1-9 1-2-2 14-3 4-2 8-1Z"/><path fill="#241730" d="M144 144h6l2 2-19 3h-8v-1l9-2 1-1Z"/><path fill="#6e587f" d="m180 69 2 3 2 10-3 12h-2l-1 2 1-6 1-6v-3l1-5Z"/><path fill="#2a1c37" d="M221 253h6l-2 2-12 2-17 1 4-2Z"/><path fill="#271932" d="M338 162h8v1l-13 2-1 1h-5l-2 2 1 5-2 1-2-9Z"/><path fill="#1b0d28" d="M334 116h2v2l10-2v2l2 1-13 2h-5v-3Z"/><path fill="#1d0d2b" d="M54 93h23l-2 4H62l-7-1Z"/><path fill="#140a1d" d="m304 420 8 1v1l-15 3-3 1h-8l4-2 9-3Z"/><path fill="#9779ae" d="M470 335h1v22h-1l-1-14-2-1-1 4h-2l2-6Z"/><path fill="#725a86" d="m438 209 2 4 3 9 3 9-1 4-4-10h-1l-1-8-2-1Z"/><path fill="#dab4f7" d="M92 140h7l1 1 13 2v1H93l-2-1Z"/><path fill="#23142e" d="m60 347 2 1 3 22v5l-2-4-3-13Z"/><path fill="#2a1b38" d="M268 172h7v1h-5v2l-21 2-1-2Z"/><path fill="#1e1326" d="M264 123h7l-1 3h-2v-2h-2v2h-8l-7 2-9-1v-1Z"/><path fill="#21142b" d="m314 71 1 4-2 5h11l-1 2-8 1h-4l-1-4Z"/><path fill="#7c6090" d="m296 61 2 3 3 9 1 1v6l-2-3v-3l-5 1v-7l1-3Z"/><path fill="#342442" d="m266 41 8 1v1l-17 3h-15v-1l19-1 1-2Z"/><path fill="#d9aff6" d="M367 401h21l-3 2-6 1h-8l-4-1Z"/><path fill="#1c0e27" d="m148 369 3 4v2l6 1 2 4 5 5 3 2v2l-4-2-11-10-3-2Z"/><path fill="#2c1c3b" d="m422 336 2 3 2 9-13 2h-8v-1l18-2-1-4Z"/><path fill="#2f1b3d" d="M330 100h7v1l-9 3h-20v-1Z"/><path fill="#1f122b" d="M377 278h6l1 2-16 2-3 1h-7l4-2 5-2Z"/><path fill="#42314f" d="m98 185 2 3 2 3 2 12 2 5v5h-2l-5-21Z"/><path fill="#22162c" d="M292 418h6l-4 2-5 1-8 2-7-1v-1Z"/><path fill="#22162b" d="m207 228 5 1-3 2-14 2h-8v-1l12-2 1-1Z"/><path fill="#bfa0d5" d="m367 227 2 1-2 3h5l-3 2h-10l2-4Z"/><path fill="#826894" d="m341 194 1 4-2 5-1 10h-4l-1 3v-4h2l2-10 2-6Z"/><path fill="#544261" d="m154 21 10 2 1 3-5-1v2l-3-1v-2h-13l4-2Z"/><path fill="#d6aff2" d="M319 363h10l3 1v2h-15l-1-2Z"/><path fill="#261832" d="M244 324h7v1h-5v2l-7 1-11 1-4-2 16-2Z"/><path fill="#271833" d="M306 315h6l-4 2-4 1-11 2-4-1v-1Z"/><path fill="#2d1f36" d="M328 312h8l1 7-3-2v-4l-11 2-8 1-2-2Z"/><path fill="#d6aff2" d="m79 153 4 1-2 5-3 3h-3l1-6Z"/><path fill="#d8b2f5" d="M125 149h8l7 1-1 2h-16l-2-2Z"/><path fill="#1f112a" d="m111 134 5 2v1l-18 2v-3Zm-12 3"/><path fill="#dab4f7" d="M260 131h7l3 2-1 1h-16l-1-2Z"/><path fill="#302238" d="m297 180 2 2 5 18-1 3-2-6-3-7-1-2Z"/><path fill="#665177" d="M218 48h5l-1 2-4 2-20-1v-1Z"/><path fill="#1c0f28" d="m231 299 9 1v1l-13 2h-9v-2Z"/><path fill="#2e2039" d="m267 254 2 4 4 7v10h-2l-2-10-1-3-2-1Z"/><path fill="#765f88" d="M188 87h1v5l-3 3-2 6h-2v2l-2-1 2-6h2l2-6Z"/><path fill="#634c72" d="M127 29v6h-2l-2 4-5 3 1-5h3l1-5Z"/><path fill="#22112e" d="m87 150 1 4-3 1-2 4-6 7-2-1 9-11Z"/><path fill="#281a34" d="M102 145h9v1l-10 2-3 1h-9l1-2Z"/><path fill="#402e4e" d="m247 287 2 2 3 11h-12v-1l7-1Z"/><path fill="#dab4f3" d="M286 240h12l2 2-3 1h-8l-5-1Z"/><path fill="#775e88" d="m48 195 4 1-1 3-7 1-3-1v-2l-2-1h7Z"/><path fill="#d9b0f5" d="M328 160h13v2l-3 1h-9l-2-2Z"/><path fill="#281a33" d="M147 139h13v3l-10-1h-9v-1Z"/><path fill="#dab1f6" d="M367 303h13v2l-4 1h-9Z"/><path fill="#423150" d="m191 270 2 4 3 6v8h-3v-11h-2Z"/><path fill="#dbb3f4" d="M224 249h13v2l-3 1h-9Z"/><path fill="#604a6f" d="m45 210 1 4-4 4h-2v5l-2-4 1-3h2l1-4Z"/><path fill="#574466" d="m430 183 2 1 2 9 1 6h2l-1 3-2-2-3-11h-3v-3h2Z"/><path fill="#1f1625" d="M78 152v3l-7 7-3-1-1-5h4l1 2Z"/><path fill="#281d31" d="M153 78h2v16l-6 1 1-3 2-2 1-8Z"/><path fill="#1e1028" d="M392 401h6v2l-10 2h-5v-2Z"/><path fill="#150b1d" d="M90 156h2l1 4-2 1v-3l-5 5-5 5 1-6 6-5Z"/><path fill="#24182f" d="m342 52 2 3 1 4v8l-2 5-2-2 1-5 1-5Z"/><path fill="#6d587d" d="M293 8h9l-3 3v2l2 2-5-1-3-3Z"/><path fill="#c49fdf" d="M240 300h6v2l2 1-9 1-1-1-7-1v-1Z"/><path fill="#3c2b4a" d="m311 239 1 2v6l-3-1-1 8-2 2v-7l3-5Z"/><path fill="#564263" d="m357 231 3 1h13l-3 2-15 2v-3Z"/><path fill="#533f62" d="M329 188h1l2 11h2v5h-2l-1-3-3-2 1-5Z"/><path fill="#22142e" d="M278 425h7v2l-13 2h-5l3-1 1-2Z"/><path fill="#dab3f6" d="M340 417h7l2 1v2h-11l-3-2Z"/><path fill="#dab2f6" d="M392 408h7l4 2-1 1h-10l-4-2Z"/><path fill="#291b34" d="m289 333 4 4 2 13-2 1-4-14Z"/><path fill="#c8a3e4" d="m230 225 2 3-2 2h-5l-1 2-5-1-3-2 14-1Z"/><path fill="#d7b0f3" d="M268 169h10l1 2-3 1h-10Z"/><path fill="#dcb5f8" d="M195 140h7l1 2-5 1-12-1v-1Z"/><path fill="#23162f" d="m177 96 2 2-4 2-13 1-2-2 8-1h9Z"/><path fill="#2c2037" d="m137 69 2 2 2 5 2 7-1 4-2-4-3-10Z"/><path fill="#614a73" d="m471 319 1 3-3 4-4 8h-1v-5l2-1 1-4-2-1 4-1Z"/><path fill="#765f88" d="m366 158 1 3-5 6-3-1 4-7Z"/><path fill="#1b0f23" d="M264 109h9l-1 2-10 1-6 2v-3Z"/><path fill="#2b1e35" d="m301 57 2 3 3 11v3l-3-1Z"/><path fill="#775d8b" d="m320 10 5 1 1 6h2l-1 3-5-4Z"/><path fill="#2c1e38" d="m81 435 2 3 3 16-3-3Z"/><path fill="#291a34" d="m342 358 4 1v1l-10 1-2 1h-8l3-2Z"/><path fill="#180e21" d="m389 106 3 1-9 3h-7v-2Z"/><path fill="#281a34" d="M338 58h1v12l-2 6h-2l1-7Z"/><path fill="#2b1a3a" d="M334 468h6v2l-3 1h-12l4-2Z"/><path fill="#40314c" d="M248 371h7l-1 4-11-1v-2l5 1Z"/><path fill="#2c1a39" d="M52 266h1l1 7v10l-2-3-1-11Z"/><path fill="#715c81" d="m344 246 2 1-1 5-7 4 2-4 2-5Z"/><path fill="#291b36" d="m47 247 2 4 2 7v5l-2-3-2-4-1-8Z"/><path fill="#13081c" d="M193 119h5l-3 3-5 1-1 2-3-1 2-4Z"/><path fill="#584567" d="m130 58 5 1 1 6-4-3v-2h-13v-1Z"/><path fill="#7a608e" d="m337 256 2 3-4 4-8 1 2-3 6-2Z"/><path fill="#1e1328" d="m69 172 4 4 2-1-1 3-4 1-4-3Z"/><path fill="#deb6f9" d="M25 147h3v11h-2l-1-4Z"/><path fill="#d8b1f3" d="M116 47h2v5h7l-4 2-6-1v-5Z"/><path fill="#dbb2f8" d="M312 40h2v13l-2-2-1-8Z"/><path fill="#7a5f8b" d="m270 29 1 2-1 3 5 1-4 3h-3v-7Z"/><path fill="#9d80b1" d="m142 23 5 1-2 2 1 2-3 1-5-2v-3Z"/><path fill="#dab0f9" d="m152 499 13 1-3 2h-7l-3-1Z"/><path fill="#291836" d="M308 473h5v2l-2 1h-13v-1Z"/><path fill="#1e1226" d="m187 399 4 2 7 6-1 2-4-2-2-4h-2Z"/><path fill="#170d1f" d="M400 404h13v1l-11 2h-4v-2Z"/><path fill="#170d20" d="m293 290 2 2-7 2h-7l2-3h4Z"/><path fill="#291937" d="m243 272 2 3 2 10-2 1-2-6Z"/><path fill="#1b1222" d="m49 183 2 1-10 10v-3l2-4Z"/><path fill="#685377" d="m133 29 7 4 2 2 1 5h-2l-1-4-6-2 1-3h-2Z"/><path fill="#624a75" d="m294 17 4 2 1 3 1 6-2 1-3-6Z"/><path fill="#24182e" d="m239 257 2 4 2 7-1 4v-2h-2l-1-5Z"/><path fill="#25192f" d="m396 244 2 4 2 10-1-2h-2l-2-11Z"/><path fill="#9a7fb1" d="M321 121h9l-3 4h-5Z"/><path fill="#382447" d="M286 34h8l3 6-1 4-4-7v-2h-6Z"/><path fill="#dcb2f8" d="M253 481h11l-3 2-11 1-2-2Z"/><path fill="#140a1b" d="M315 414h6l-3 5h-4Z"/><path fill="#8f72a1" d="m143 316 1 4h-2v3l2 1-2 4-2-6v-5Z"/><path fill="#170a21" d="M61 182h2v3l-5 5h-2l-1 2v-3Z"/><path fill="#836897" d="m421 160 4 1-1 4-4 6-2-1 3-6 1-1Z"/><path fill="#4a355a" d="M234 486h13l-2 2-13 1 2-1Z"/><path fill="#1e1129" d="m289 477 4 1-3 2-10 1-2-2Z"/><path fill="#33233e" d="m170 197 1 2h2l1 8v3h-2l-2-9Z"/><path fill="#22152d" d="m245 176 2 1 1 8h2l-1 5-2-2-2-7Z"/><path fill="#685376" d="m107 186 1 4v6l1 5-3-4-1-10Z"/><path fill="#997baf" d="m324 174 2 1 1 8-1-2-4 1Z"/><path fill="#1b1025" d="m93 166 1 2h2l2 11-2 1-3-10Z"/><path fill="#6c537e" d="M31 127h2l1 3-1 2h-2v4l-3 1 1-6h2Zm3 1"/><path fill="#13091c" d="M334 116h2l1 4-7 1v-3Z"/><path fill="#1c0f26" d="M358 110h8l-2 2h-3v3h-3l-1-4Z"/><path fill="#191220" d="m323 104 1 2 5 1v-2h5l-3 3h-9l-2-3Z"/><path fill="#2a1e34" d="m157 70 2 3 2 8v6l-2-4-1-5Z"/><path fill="#33273e" d="m297 421 1 3-4 2h-8l4-2Z"/><path fill="#deb5f8" d="M151 347h2v9h-2l-1-7Z"/><path fill="#1a1021" d="m366 320 3 4 1 5v6h-1l-3-11Z"/><path fill="#deb7f8" d="m300 292 9 1v1l-12 1-5-1v-1Z"/><path fill="#1a0d27" d="M188 258h5l-4 1 2 3 1 6-2 2-2-7Z"/><path fill="#dfbaf8" d="M53 259h2v7l-2 4-1-9Z"/><path fill="#24172d" d="m392 230 2 3 1 8h-2l-2-6Z"/><path fill="#644c76" d="M101 151h8v3l-13-1v-1Z"/><path fill="#1c0e27" d="M149 125h6l-1 2-10 1-2-2Z"/><path fill="#9170aa" d="m294 117 13 1v1l-15 1v-2Z"/><path fill="#5d4c6a" d="M393 111h4l-2 5-2 1v-4h-7v-1Z"/><path fill="#392347" d="m300 104 4 1-9 1v3h-3v-2l-3-1Z"/><path fill="#dab0f9" d="M259 106h10l-4 3-9-1Z"/><path fill="#695179" d="m86 87 1 2-2 6h-2v4h-2l1-5Z"/><path fill="#291d33" d="m88 69 2 2-2 7h-3l1-7Z"/><path fill="#1b0f24" d="m370 336 3 1 2 8-2 2-3-9Z"/><path fill="#d8b0f4" d="M313 258h7v2l-4 2-4-1Z"/><path fill="#22132e" d="m68 182 1 2h-2l-2 4-4 4v-3l5-6Z"/><path fill="#1c1126" d="m425 170 4 2-1 4-3-3-3 2v-3Z"/><path fill="#0b0411" d="M295 106h3v2h-2l-1 4-5-2-1-3h3v2h3Zm-5 2"/><path fill="#dab0f8" d="M322 97h8v2l3 1-11-1Z"/><path fill="#0c0412" d="M385 93h7v3h-5l-3 1Z"/><path fill="#d6aef3" d="M483 83h3l1 4-2 3h-2Z"/><path fill="#2c1b38" d="M189 78h1l-1 7-2 5h-2l1-5 1-3h2Z"/><path fill="#261b2f" d="m140 57 2 3 2 7-1 4v-3l-2-1-1-6Z"/><path fill="#3d2c4a" d="m146 54 2 2 2 6v6l-2-4-2-6Z"/><path fill="#281733" d="m295 354 4 4v6l-2 1-2-7Z"/><path fill="#dab1f7" d="M429 189h2l2 5-1 3-3-1Z"/><path fill="#291835" d="M290 169h5v2l-9 1-2-2Z"/><path fill="#a88bbe" d="M385 113h8v6l-2 1-1-4-5-2Z"/><path fill="#1d1424" d="m153 57 2 3 2 10-3-1Z"/><path fill="#2b1b38" d="m142 41 4 5 1 7-2-1-3-7Z"/><path fill="#dcb4f6" d="m152 23 3 1h-2v2l-9 1 3-3Z"/><path fill="#1a0d23" d="m217 425 4 2 5 4-4 1-1-3-3-1Z"/><path fill="#241431" d="m436 386 3 2v2l-4 4h-2l2-6Z"/><path fill="#2a1e33" d="M150 358h2l2 7v5l-2-4v-3h-2Z"/><path fill="#12071c" d="M273 275h2v4h2l-1 6-2-3Z"/><path fill="#342441" d="m455 264 2 3 2 5 1 4h-2l-3-8Z"/><path fill="#261931" d="m98 185 2 3 2 3v7l-2-3-2-6Z"/><path fill="#d5b0f3" d="M52 182v3l-3 4h-2l-1 3-2-2Z"/><path fill="#1a0b26" d="m173 125 7 1 2 2h-10Z"/><path fill="#8e73a4" d="m395 123 1 4-3 3h-3l2-4Z"/><path fill="#68547a" d="M378 99h10l-3 3-7-1Z"/><path fill="#725a83" d="m390 90 10 1-4 2h-8Z"/><path fill="#201629" d="M181 85h1v7l-1 2h-2l-1 2 1-6Z"/><path fill="#624e73" d="m305 82 1 3 9 2v1h-9l-2-5Zm-1 5"/><path fill="#dbb4f7" d="M160 70h2v8l-2 1-1-6Z"/><path fill="#7b5f8c" d="M158 23h6l1 3-5-1v2l-3-1Z"/><path fill="#9b7db1" d="m207 425 4 1 3 5h-2l-2-2-4-2Z"/><path fill="#24192d" d="m177 398 9 5v3l-9-6Z"/><path fill="#ddb4f8" d="M426 392h5l1 3h-7Z"/><path fill="#d9b1f5" d="M263 372h5l1 3h-7Z"/><path fill="#d9aff5" d="m144 361 2 2-1 7-2-2Z"/><path fill="#24142f" d="m215 356 1 2h2l1 6-2 2-2-6Z"/><path fill="#1f1129" d="m286 321 2 3 2 4-1 4-2-3Z"/><path fill="#4e3a5e" d="m267 254 2 4 2 6-2 1-1-3-2-1Z"/><path fill="#23162d" d="m297 180 2 2 1 7-2 1-1-2Z"/><path fill="#231430" d="m217 181 2 3 1 7-3-2-1-3Z"/><path fill="#1a1022" d="m45 179 1 2-1 4-5 1 3-5Z"/><path fill="#1c1422" d="m73 167 4 4v3l-2 1v-2l-2-1-1-4Z"/><path fill="#2e1e3a" d="M353 160h4v2l-7 1-4-2Z"/><path fill="#23162f" d="M183 134h7v2l-10 1Z"/><path fill="#12071b" d="m128 128 4 1-2 3-4-1-1 2v-4Z"/><path fill="#32233e" d="M250 125h5l-2 1v2h-7l-4-2Z"/><path fill="#cba8e9" d="m294 112 3 1-1 2h-7l-2-2Z"/><path fill="#ddb4fa" d="M363 106h6v3h-7Z"/><path fill="#22182a" d="m158 91 1 4-2 5 2 1h-3l-1-6 3-1Z"/><path fill="#3f2b4f" d="M128 52h10l2 2v3h-2l-1-4h-9Z"/><path fill="#765b85" d="M337 35h5l-2 1-1 6-2-1Z"/><path fill="#7a618b" d="M131 499h8l-1 4-7-2Z"/><path fill="#1a1120" d="M267 422h7v1l-8 2-4 1v-2Z"/><path fill="#22122e" d="m154 370 8 6-2 2-6-5Z"/><path fill="#9174a5" d="m133 281 2 1-2 9-2-3 1-5Z"/><path fill="#2b1d36" d="m459 277 3 4 2 6-2 1-3-7Z"/><path fill="#180b23" d="M353 275h2l3 6-3 2-2-6Z"/><path fill="#251a2d" d="M297 242h7l-3 2-5 1-4-2Z"/><path fill="#22142c" d="m82 139 1 3-4 5-3-1Z"/><path fill="#0d0512" d="m203 132 5 1-1 3h-5Z"/><path fill="#dab2f7" d="M45 102h5l-6 7-1-3Z"/><path fill="#20142a" d="m359 35 6 2 3 5-4-2Z"/><path fill="#3a2848" d="m313 5 4 2 3 3-12-3V6Z"/><path fill="#b692d3" d="M402 406h4l-1 3-9-1v-1Z"/><path fill="#271931" d="m179 392 4 2 4 5-4-1Z"/><path fill="#281833" d="m266 354 2 3 1 8-2-2-2-6Z"/><path fill="#dfb6f8" d="M339 317h2l-1 8-2-2Z"/><path fill="#24162e" d="m413 308 3 3 1 7-3-3Z"/><path fill="#2c2035" d="m128 273 2 3 1 8-3-4-1-3Z"/><path fill="#8f74a4" d="m118 260 2 2v7l-3-2Z"/><path fill="#634e74" d="M359 222h5v2l-7 2Z"/><path fill="#150a1e" d="M255 212h2l2 7-2 2Z"/><path fill="#352440" d="m341 194 1 4-3 7-2-1 3-8Z"/><path fill="#170f1e" d="m39 186 1 3h-2l-1 3-4 1v-2Z"/><path fill="#0e0417" d="M154 139h6v3h-6Z"/><path fill="#dbb4fa" d="M129 135h6v3h-6Z"/><path fill="#644e73" d="m36 118 1 4-1 4-3 1v-4h2Z"/><path fill="#160b20" d="M164 123h6l2 2-1 2h-3v-2Z"/><path fill="#634d73" d="m95 70 1 2-2 6-3 1 2-6Z"/><path fill="#050207" d="m65 160 1 2-2-1Z"/><path fill="#070309" d="M115 237"/><path fill="#08040a" d="m200 120 2 1Z"/><path fill="#07030a" d="M368 111"/></svg>